<svg width="90" height="74" viewBox="0 0 90 74" fill="none" xmlns="http://www.w3.org/2000/svg">
<path d="M90 47.1156C90 65.5129 59.9617 74 41.67 74C23.3783 74 0 52.9759 0 34.5786C0 16.1813 30.3533 0 48.645 0C66.9367 0 90 28.7183 90 47.1156Z" fill="white"/>
<path d="M54.1 27H35.9C34.8657 27 33.8737 27.3951 33.1423 28.0983C32.4109 28.8016 32 29.7554 32 30.75V43.25C32 44.2446 32.4109 45.1984 33.1423 45.9017C33.8737 46.6049 34.8657 47 35.9 47H54.1C55.1343 47 56.1263 46.6049 56.8577 45.9017C57.5891 45.1984 58 44.2446 58 43.25V30.75C58 29.7554 57.5891 28.8016 56.8577 28.0983C56.1263 27.3951 55.1343 27 54.1 27ZM54.1 29.5L45.65 35.0875C45.4524 35.1972 45.2282 35.255 45 35.255C44.7718 35.255 44.5476 35.1972 44.35 35.0875L35.9 29.5H54.1Z" fill="#0E6DD3"/>
</svg>
