<svg width="90" height="74" viewBox="0 0 90 74" fill="none" xmlns="http://www.w3.org/2000/svg">
<path d="M90 47.1156C90 65.5129 59.9617 74 41.67 74C23.3783 74 0 52.9759 0 34.5786C0 16.1813 30.3533 0 48.645 0C66.9367 0 90 28.7183 90 47.1156Z" fill="white"/>
<path d="M57.7212 30.0108L54.1326 33.6242C53.4162 41.9955 46.405 48.5 38.0131 48.5C36.2852 48.5 34.8611 48.2241 33.7804 47.68C32.9084 47.241 32.5511 46.7697 32.4625 46.6358C32.3829 46.5157 32.3313 46.379 32.3116 46.236C32.2919 46.093 32.3045 45.9474 32.3485 45.81C32.3925 45.6726 32.4668 45.5469 32.5658 45.4425C32.6647 45.338 32.7859 45.2575 32.9201 45.2068C32.9507 45.1952 35.7573 44.1098 37.5712 42.0433C36.443 41.2343 35.45 40.2494 34.6296 39.1257C32.9988 36.8971 31.274 33.0268 32.3179 27.245C32.349 27.0729 32.4262 26.9127 32.5412 26.7817C32.6563 26.6506 32.8047 26.5538 32.9705 26.5017C33.1363 26.4495 33.3131 26.444 33.4818 26.4858C33.6504 26.5276 33.8045 26.6151 33.9273 26.7388C33.9693 26.7809 37.9297 30.7124 42.7713 31.9823L42.7719 31.2493C42.7821 29.7149 43.397 28.2474 44.4814 27.1694C45.5658 26.0913 47.0309 25.4909 48.5547 25.5001C49.5447 25.5139 50.5142 25.786 51.3685 26.2899C52.2228 26.7937 52.9328 27.5121 53.4289 28.3748H57.0482C57.2365 28.3748 57.4205 28.431 57.577 28.5363C57.7335 28.6416 57.8555 28.7913 57.9275 28.9664C57.9996 29.1415 58.0184 29.3342 57.9817 29.5201C57.945 29.706 57.8543 29.8768 57.7212 30.0108Z" fill="#0F77D8"/>
</svg>
