<svg width="90" height="74" viewBox="0 0 90 74" fill="none" xmlns="http://www.w3.org/2000/svg">
<path d="M90 47.1156C90 65.5129 59.9617 74 41.67 74C23.3783 74 0 52.9759 0 34.5786C0 16.1813 30.3533 0 48.645 0C66.9367 0 90 28.7183 90 47.1156Z" fill="white"/>
<path fill-rule="evenodd" clip-rule="evenodd" d="M32 33.9C32 29.7753 32 27.7129 33.0504 26.2672C33.3896 25.8003 33.8003 25.3896 34.2672 25.0504C35.7129 24 37.7753 24 41.9 24H48.1C52.2247 24 54.2871 24 55.7328 25.0504C56.1997 25.3896 56.6104 25.8003 56.9496 26.2672C58 27.7129 58 29.7753 58 33.9V40.1C58 44.2247 58 46.2871 56.9496 47.7328C56.6104 48.1997 56.1997 48.6104 55.7328 48.9496C54.2871 50 52.2247 50 48.1 50H41.9C37.7753 50 35.7129 50 34.2672 48.9496C33.8003 48.6104 33.3896 48.1997 33.0504 47.7328C32 46.2871 32 44.2247 32 40.1V33.9ZM44.9995 30.117C41.1988 30.117 38.1172 33.1986 38.1172 36.9994C38.1172 40.8001 41.1988 43.8817 44.9995 43.8817C48.8003 43.8817 51.8819 40.8001 51.8819 36.9994C51.8819 33.1986 48.8003 30.117 44.9995 30.117ZM44.9995 41.3008C42.6286 41.3008 40.6981 39.3703 40.6981 36.9994C40.6981 34.6267 42.6286 32.6979 44.9995 32.6979C47.3705 32.6979 49.301 34.6267 49.301 36.9994C49.301 39.3703 47.3705 41.3008 44.9995 41.3008ZM53.3146 29.6022C53.3146 30.1087 52.904 30.5193 52.3975 30.5193C51.8911 30.5193 51.4805 30.1087 51.4805 29.6022C51.4805 29.0957 51.8911 28.6851 52.3975 28.6851C52.904 28.6851 53.3146 29.0957 53.3146 29.6022Z" fill="#0E6DD3"/>
</svg>
