<svg width="320" height="252" viewBox="0 0 320 252" fill="none" xmlns="http://www.w3.org/2000/svg">
<path fill-rule="evenodd" clip-rule="evenodd" d="M0 0L13.3333 1.61064C26.6667 3.22128 53.3333 6.44256 80 17.717C106.667 28.9915 133.333 48.3192 160 45.0979C186.667 41.8766 213.333 16.1064 240 16.1064C266.667 16.1064 293.333 41.8766 306.667 54.7617L320 67.6469V252H306.667C293.333 252 266.667 252 240 252C213.333 252 186.667 252 160 252C133.333 252 106.667 252 80 252C53.3333 252 26.6667 252 13.3333 252H0V0Z" fill="#E9EEFF"/>
</svg>
