<svg width="24" height="25" viewBox="0 0 24 25" fill="none" xmlns="http://www.w3.org/2000/svg">
<path d="M12 4.5C12.5523 4.5 13 4.94772 13 5.5V19.5C13 20.0523 12.5523 20.5 12 20.5C11.4477 20.5 11 20.0523 11 19.5V5.5C11 4.94772 11.4477 4.5 12 4.5ZM17 8.5C17.5523 8.5 18 8.94772 18 9.5V19.5C18 20.0523 17.5523 20.5 17 20.5C16.4477 20.5 16 20.0523 16 19.5V9.5C16 8.94772 16.4477 8.5 17 8.5ZM7 12.5C7.55228 12.5 8 12.9477 8 13.5V19.5C8 20.0523 7.55228 20.5 7 20.5C6.44772 20.5 6 20.0523 6 19.5V13.5C6 12.9477 6.44772 12.5 7 12.5Z" fill="rgba(94, 91, 136, 0.7)"/>
</svg>
