<svg width="24" height="25" viewBox="0 0 24 25" fill="none" xmlns="http://www.w3.org/2000/svg">
<path d="M3.83221 4.5H8.32216L9.76937 8.11803L7.44449 9.66795C7.16629 9.85342 6.99919 10.1656 6.99919 10.5C7.00173 10.5936 6.99919 10.501 6.99919 10.501L6.99919 10.502L6.9992 10.5043L6.99923 10.5093L6.99938 10.5217C6.99952 10.5309 6.99977 10.5421 7.0002 10.5552C7.00104 10.5814 7.00257 10.6153 7.00531 10.6564C7.01078 10.7385 7.0211 10.8494 7.04049 10.9852C7.07925 11.2565 7.15447 11.6281 7.30051 12.0662C7.59374 12.9459 8.16992 14.0849 9.29208 15.2071C10.4142 16.3293 11.5533 16.9054 12.433 17.1987C12.8711 17.3447 13.2427 17.4199 13.514 17.4587C13.6497 17.4781 13.7607 17.4884 13.8428 17.4939C13.8839 17.4966 13.9178 17.4981 13.944 17.499C13.9571 17.4994 13.9683 17.4997 13.9775 17.4998L13.9899 17.5L13.9949 17.5L13.9971 17.5L13.9982 17.5C13.9982 17.5 14.1098 17.4939 13.9992 17.5C14.378 17.5 14.7242 17.286 14.8936 16.9472L15.5633 15.6078L19.9992 16.3471V20.667C17.8881 20.9723 12.1866 21.2732 7.7063 16.7929C3.226 12.3126 3.52691 6.6111 3.83221 4.5ZM9.07284 10.9861L10.8788 9.78213C11.6657 9.25751 11.9776 8.25338 11.6263 7.37525L10.1791 3.75722C9.87538 2.9979 9.13996 2.5 8.32216 2.5H3.77996C2.87145 2.5 2.01628 3.13116 1.86713 4.1169C1.52782 6.3595 1.06597 12.981 6.29208 18.2071C11.5182 23.4332 18.1397 22.9714 20.3823 22.6321C21.368 22.4829 21.9992 21.6277 21.9992 20.7192V16.3471C21.9992 15.3694 21.2924 14.5351 20.328 14.3743L15.8921 13.635C15.026 13.4907 14.1671 13.9281 13.7745 14.7134L13.428 15.4064C13.3191 15.3796 13.1975 15.3453 13.0654 15.3013C12.4451 15.0946 11.5841 14.6707 10.7063 13.7929C9.82846 12.9151 9.40464 12.0541 9.19787 11.4338C9.142 11.2662 9.10178 11.1154 9.07284 10.9861Z" fill="rgba(94, 91, 136, 0.7)"/>
</svg>
