<svg width="24" height="25" viewBox="0 0 24 25" fill="none" xmlns="http://www.w3.org/2000/svg">
<path d="M16.2 6.5C16.2 5.94772 16.6477 5.5 17.2 5.5C17.8367 5.5 18.4624 5.62794 19.0714 5.87152C19.7341 6.13661 20.2442 6.53001 20.7071 6.99289C21.17 7.45578 21.5634 7.9659 21.8285 8.62861C22.0721 9.23756 22.2 9.86326 22.2 10.5C22.2 11.1367 22.0721 11.7624 21.8285 12.3714C21.5667 13.0258 21.1798 13.5314 20.7245 13.9897L19.7399 15.0727C19.7293 15.0844 19.7183 15.0959 19.7071 15.1071L16.5071 18.3071C16.0442 18.77 15.5341 19.1634 14.8714 19.4285C14.2624 19.6721 13.6367 19.8 13 19.8C12.3633 19.8 11.7376 19.6721 11.1286 19.4285C10.4659 19.1634 9.95578 18.77 9.49289 18.3071C9.03 17.8442 8.63661 17.3341 8.37152 16.6714C8.12326 16.0507 8 15.4244 8 14.7C8 14.0633 8.12794 13.4376 8.37152 12.8286C8.63661 12.1659 9.03 11.6558 9.49289 11.1929L10.5929 10.0929C10.9834 9.70237 11.6166 9.70237 12.0071 10.0929C12.3976 10.4834 12.3976 11.1166 12.0071 11.5071L10.9071 12.6071C10.57 12.9442 10.3634 13.2341 10.2285 13.5714C10.0721 13.9624 10 14.3367 10 14.7C10 15.1756 10.0767 15.5493 10.2285 15.9286C10.3634 16.2659 10.57 16.5558 10.9071 16.8929C11.2442 17.23 11.5341 17.4366 11.8714 17.5715C12.2624 17.7279 12.6367 17.8 13 17.8C13.3633 17.8 13.7376 17.7279 14.1286 17.5715C14.4659 17.4366 14.7558 17.23 15.0929 16.8929L18.2761 13.7097L19.2601 12.6273C19.2707 12.6156 19.2817 12.6041 19.2929 12.5929C19.63 12.2558 19.8366 11.9659 19.9715 11.6286C20.1279 11.2376 20.2 10.8633 20.2 10.5C20.2 10.1367 20.1279 9.76244 19.9715 9.37139C19.8366 9.0341 19.63 8.74422 19.2929 8.40711C18.9558 8.06999 18.6659 7.86339 18.3286 7.72848C17.9376 7.57206 17.5633 7.5 17.2 7.5C16.6477 7.5 16.2 7.05228 16.2 6.5ZM11.3 8C10.9367 8 10.5624 8.07206 10.1714 8.22848C9.8341 8.36339 9.54422 8.57 9.20711 8.90711L5.92393 12.1903L4.93994 13.2727C4.92927 13.2844 4.91832 13.2959 4.90711 13.3071C4.56999 13.6442 4.36339 13.9341 4.22848 14.2714C4.07206 14.6624 4 15.0367 4 15.4C4 15.7633 4.07206 16.1376 4.22848 16.5286C4.36339 16.8659 4.57 17.1558 4.90711 17.4929C5.24422 17.83 5.5341 18.0366 5.87139 18.1715C6.26244 18.3279 6.63674 18.4 7 18.4C7.55228 18.4 8 18.8477 8 19.4C8 19.9523 7.55228 20.4 7 20.4C6.36326 20.4 5.73756 20.2721 5.12861 20.0285C4.4659 19.7634 3.95578 19.37 3.49289 18.9071C3.03 18.4442 2.63661 17.9341 2.37152 17.2714C2.12794 16.6624 2 16.0367 2 15.4C2 14.7633 2.12794 14.1376 2.37152 13.5286C2.63328 12.8742 3.02016 12.3686 3.47551 11.9103L4.46006 10.8273C4.47073 10.8156 4.48168 10.8041 4.49289 10.7929L7.79289 7.49289C8.25578 7.03 8.7659 6.63661 9.42861 6.37152C10.0376 6.12794 10.6633 6 11.3 6C11.9367 6 12.5624 6.12794 13.1714 6.37152C13.8341 6.63661 14.3442 7.03 14.8071 7.49289C15.27 7.95578 15.6634 8.4659 15.9285 9.12861C16.1721 9.73756 16.3 10.3633 16.3 11C16.3 11.6367 16.1721 12.2624 15.9285 12.8714C15.6664 13.5265 15.279 14.0325 14.823 14.4912L13.7372 15.6757C13.364 16.0828 12.7314 16.1103 12.3243 15.7372C11.9172 15.364 11.8897 14.7314 12.2628 14.3243L13.3628 13.1243C13.3726 13.1136 13.3827 13.1031 13.3929 13.0929C13.73 12.7558 13.9366 12.4659 14.0715 12.1286C14.2279 11.7376 14.3 11.3633 14.3 11C14.3 10.6367 14.2279 10.2624 14.0715 9.87139C13.9366 9.5341 13.73 9.24422 13.3929 8.90711C13.0558 8.57 12.7659 8.36339 12.4286 8.22848C12.0376 8.07206 11.6633 8 11.3 8Z" fill="rgba(94, 91, 136, 0.7)"/>
</svg>
