<svg width="170" height="170" viewBox="0 0 170 170" fill="none" xmlns="http://www.w3.org/2000/svg">
<path d="M84.9998 135.016C98.8068 135.016 110 128.635 110 120.763C110 112.891 98.8068 106.51 84.9998 106.51C71.1928 106.51 60 112.891 60 120.763C60 128.635 71.1928 135.016 84.9998 135.016Z" fill="#363636"/>
<path d="M110 120.764C110 128.636 98.8092 135.017 84.9998 135.017C71.1945 135.017 60 128.636 60 120.764V124.747C60 132.62 71.1904 139 84.9998 139C98.8051 139 110 132.62 110 124.747V120.764Z" fill="black"/>
<path d="M85.0012 133.321C72.177 133.321 61.7461 127.691 61.7461 120.768C61.7461 113.845 72.177 108.215 85.0012 108.215C97.8254 108.215 108.256 113.845 108.256 120.768C108.256 127.687 97.8254 133.321 85.0012 133.321ZM85.0012 108.643C72.4192 108.643 62.1812 114.082 62.1812 120.764C62.1812 127.446 72.4192 132.885 85.0012 132.885C97.5832 132.885 107.821 127.446 107.821 120.764C107.821 114.082 97.5832 108.643 85.0012 108.643Z" fill="#F3B959"/>
<path d="M85.0012 57.8073C72.177 57.8073 61.7461 52.177 61.7461 45.2542C61.7461 38.3315 72.177 32.7012 85.0012 32.7012C97.8254 32.7012 108.256 38.3315 108.256 45.2542C108.256 52.177 97.8254 57.8073 85.0012 57.8073ZM85.0012 33.1333C72.4192 33.1333 62.1812 38.572 62.1812 45.2542C62.1812 51.9364 72.4192 57.3751 85.0012 57.3751C97.5832 57.3751 107.821 51.9364 107.821 45.2542C107.821 38.568 97.5832 33.1333 85.0012 33.1333Z" fill="#F3B959"/>
<path d="M107.82 120.768V120.764H108.255L107.82 120.768Z" fill="#F3B959"/>
<path d="M61.7461 120.768V120.764H62.1812L61.7461 120.768Z" fill="#F3B959"/>
<path d="M108.256 120.762H107.821C107.821 114.08 97.5832 108.641 85.0012 108.641C72.4192 108.641 62.1812 114.08 62.1812 120.762H61.7461V107.54C61.7461 100.145 65.7896 93.3851 72.292 89.9074L78.6425 86.5113C79.8124 85.8875 80.5103 84.7174 80.5103 83.3883C80.5103 82.0592 79.8124 80.8932 78.6425 80.2654L72.292 76.8692C65.7855 73.3916 61.7461 66.636 61.7461 59.2362V45.8066H62.2059L62.2264 45.9983C62.9612 52.3787 72.9611 57.3771 84.9971 57.3771C97.0331 57.3771 107.037 52.3787 107.768 45.9983L107.788 45.8066H108.248V59.2485C108.248 66.6482 104.205 73.4038 97.7023 76.8815L91.3517 80.2776C90.1818 80.9014 89.4839 82.0674 89.4839 83.4006C89.4839 84.7297 90.1818 85.8957 91.3517 86.5235L97.7023 89.9197C104.143 93.6787 108.182 100.434 108.248 107.549V120.762H108.256Z" fill="#F3F3F3"/>
<path d="M86.9641 98.091C85.749 97.402 84.267 97.402 83.0519 98.091C77.8796 101.026 64.2344 109.242 64.2344 114.224C64.2344 120.368 73.5364 125.35 85.01 125.35C96.4837 125.35 105.786 120.368 105.786 114.224C105.786 109.242 92.1405 101.026 86.9641 98.091Z" fill="#F3B959"/>
<path opacity="0.3" d="M86.9641 98.091C85.749 97.402 84.267 97.402 83.0519 98.091C77.8796 101.026 64.2344 109.242 64.2344 114.224C64.2344 120.368 73.5364 125.35 85.01 125.35C96.4837 125.35 105.786 120.368 105.786 114.224C105.786 109.242 92.1405 101.026 86.9641 98.091Z" fill="white"/>
<path d="M85.01 125.349C73.5364 125.349 64.2344 120.367 64.2344 114.223V119.861C64.2385 126.005 73.5364 130.983 85.01 130.983C96.4837 130.983 105.782 126.001 105.786 119.861V114.223C105.786 120.367 96.4837 125.349 85.01 125.349Z" fill="#F3B959"/>
<path d="M64.2344 46.0234V58.2585C64.2344 64.8428 67.8509 70.8931 73.6432 73.9875L79.3697 77.0493C79.4559 77.0942 79.5421 77.1431 79.6201 77.1961C79.8254 77.3266 80.0347 77.453 80.2441 77.5712C82.6209 79.043 84.0782 81.6482 84.0782 84.4572V89.7614C84.0782 90.2751 84.4928 90.695 85.0059 90.695C85.5191 90.695 85.9337 90.2792 85.9337 89.7614V84.4572C85.9337 81.6441 87.391 79.043 89.7678 77.5712C89.9813 77.453 90.1865 77.3266 90.3918 77.1961C90.4739 77.1431 90.556 77.0942 90.6422 77.0493L96.3687 73.9875C102.161 70.8931 105.778 64.8428 105.778 58.2585V46.0234H64.2344Z" fill="#F3B959"/>
<path d="M85.9453 93.5547C85.9453 93.041 85.5307 92.6211 85.0176 92.6211C84.5045 92.6211 84.0898 93.037 84.0898 93.5547C84.0898 94.0684 84.5045 94.4884 85.0176 94.4884C85.5307 94.4884 85.9453 94.0684 85.9453 93.5547Z" fill="#F3B959"/>
<path opacity="0.3" d="M64.2344 46.0234V58.2585C64.2344 64.8428 67.8509 70.8931 73.6432 73.9875L79.3697 77.0493C79.4559 77.0942 79.5421 77.1431 79.6201 77.1961C79.8254 77.3266 80.0347 77.453 80.2441 77.5712C82.6209 79.043 84.0782 81.6482 84.0782 84.4572V89.7614C84.0782 90.2751 84.4928 90.695 85.0059 90.695C85.5191 90.695 85.9337 90.2792 85.9337 89.7614V84.4572C85.9337 81.6441 87.391 79.043 89.7678 77.5712C89.9813 77.453 90.1865 77.3266 90.3918 77.1961C90.4739 77.1431 90.556 77.0942 90.6422 77.0493L96.3687 73.9875C102.161 70.8931 105.778 64.8428 105.778 58.2585V46.0234H64.2344Z" fill="white"/>
<g opacity="0.3">
<path opacity="0.3" d="M85.9453 93.5547C85.9453 93.041 85.5307 92.6211 85.0176 92.6211C84.5045 92.6211 84.0898 93.037 84.0898 93.5547C84.0898 94.0684 84.5045 94.4884 85.0176 94.4884C85.5307 94.4884 85.9453 94.0684 85.9453 93.5547Z" fill="white"/>
</g>
<path d="M85.01 57.1507C96.4841 57.1507 105.786 52.1693 105.786 46.0245C105.786 39.8798 96.4841 34.8984 85.01 34.8984C73.536 34.8984 64.2344 39.8798 64.2344 46.0245C64.2344 52.1693 73.536 57.1507 85.01 57.1507Z" fill="#F3B959"/>
<g opacity="0.5">
<path opacity="0.5" d="M83.2954 86.7077L79.256 90.1039C75.1756 93.5367 72.6222 100.239 72.6222 107.545V130.809C71.3086 130.356 70.0853 129.838 68.9688 129.259V107.545C68.9688 100.243 71.8874 93.5408 76.5672 90.1039L81.1895 86.7077C83.1148 85.293 83.1148 81.4933 81.1895 80.0867L76.5672 76.6906C71.8874 73.2577 68.9688 66.5511 68.9688 59.2451V46.0234H72.6222V59.2451C72.6222 66.547 75.1756 73.2537 79.256 76.6906L83.2954 80.0867C84.9744 81.4933 84.9744 85.293 83.2954 86.7077Z" fill="white"/>
</g>
<path d="M84.9998 59.5063C98.8068 59.5063 110 53.125 110 45.2532C110 37.3814 98.8068 31 84.9998 31C71.1928 31 60 37.3814 60 45.2532C60 53.125 71.1928 59.5063 84.9998 59.5063Z" fill="#363636"/>
<path d="M110 45.252C110 53.1246 98.8092 59.5051 84.9998 59.5051C71.1945 59.5051 60 53.1246 60 45.252V49.2352C60 57.1078 71.1904 63.4883 84.9998 63.4883C98.8051 63.4883 110 57.1078 110 49.2352V45.252Z" fill="black"/>
</svg>
