<svg width="170" height="170" viewBox="0 0 170 170" fill="none" xmlns="http://www.w3.org/2000/svg">
<path d="M74.5561 132.022C74.5561 132.022 74.9601 134.569 74.1522 135.843C73.3401 137.117 72.763 136.598 71.6624 138.131C70.5618 139.664 67.6433 143.416 65.6399 141.779C63.0306 139.648 67.2435 135.757 69.3004 133.502C71.3532 131.243 70.5617 128.32 70.5617 128.32L74.5561 132.022Z" fill="#5C3617"/>
<path d="M83.3824 90.2086C83.4525 94.1699 81.7954 105.3 78.3864 112.538C78.3864 112.538 78.4771 117.382 77.834 119.962C77.1868 122.543 74.8867 132.489 74.8867 132.489C74.8867 132.489 72.5825 133.227 70.1875 131.475C70.1875 131.475 71.2922 114.801 71.2922 111.025C71.2922 107.249 73.1348 89.009 74.3343 86.3379L83.3824 90.2086Z" fill="#3B516D"/>
<path d="M93.3077 135.281C93.3077 135.281 93.7941 137.54 93.5715 138.748C93.3448 139.952 91.6093 144.737 90.4057 145.529C89.202 146.32 85.8095 146.283 85.962 144.061C86.1104 141.84 88.7857 139.09 88.5961 135.285H93.3077" fill="#5C3617"/>
<path d="M90.1676 89.5907C90.1676 89.5907 91.9318 91.8909 92.1462 95.7904C92.3605 99.694 92.1462 112.151 92.1462 112.151C92.1462 112.151 93.6425 115.894 93.8033 118.297C93.9641 120.7 92.8387 132.197 93.8033 135.672C93.8033 135.672 90.7529 137.061 88.3497 135.672C88.3497 135.672 85.4107 117.283 84.3389 113.701C83.2713 110.119 78.4072 98.1441 78.9389 88.791L90.1676 89.5907Z" fill="#405A79"/>
<path d="M78.1578 59.1967C76.4101 59.679 66.6118 65.3964 66.6118 65.3964L60.6058 58.125C60.6058 58.125 59.5134 60.0129 57.8398 60.1407C57.8398 60.1407 62.4278 70.4584 64.7898 70.747C67.1559 71.0396 75.0539 69.4732 77.5642 66.6001C80.0746 63.7229 79.6583 58.7804 78.1578 59.1967Z" fill="#D8594F"/>
<path d="M60.6078 58.122C60.6078 58.122 60.5872 55.5828 60.3522 54.8861C60.1214 54.1854 58.4313 51.7657 58.2252 52.1449C58.0232 52.5241 58.489 54.5646 58.489 54.5646C58.489 54.5646 57.3224 53.835 57.1163 53.1672C56.9143 52.4953 57.0586 51.0402 56.4197 51.1267C55.7766 51.2133 54 52.8457 54 53.8638C54 54.882 56.1476 59.8203 57.8418 60.1377C57.8418 60.1377 59.874 59.9316 60.6078 58.122Z" fill="#FAC9B9"/>
<path d="M66.7494 142.182C66.3619 142.182 65.9868 142.059 65.6405 141.778C64.4369 140.793 64.6842 139.437 65.5004 138.04C67.5285 136.902 70.6242 136.028 74.2846 135.604C74.2434 135.686 74.1981 135.768 74.1528 135.843C73.3407 137.116 72.7636 136.597 71.663 138.13C70.752 139.4 68.6002 142.182 66.7494 142.182Z" fill="#543318"/>
<path d="M88.4764 145.997C87.1903 145.997 85.867 145.465 85.9618 144.059C86.0979 142.048 88.3033 139.599 88.5794 136.326C90.6446 136.829 92.3759 137.493 93.6208 138.272C93.6125 138.441 93.5961 138.602 93.5713 138.746C93.3487 139.933 91.6628 144.591 90.4591 145.49C89.9067 145.671 89.3173 145.84 88.6989 145.993C88.6247 145.997 88.5506 145.997 88.4764 145.997Z" fill="#543318"/>
<path d="M87.266 60.2477C88.8942 60.9732 90.1845 61.5008 90.1845 61.5008C90.1845 61.5008 93.8037 64.6254 95.9761 65.4828C96.2852 65.6023 96.5078 65.8785 96.549 66.2042C96.6892 67.3089 96.7923 69.8729 95.3289 72.5399C93.3915 76.0767 89.9825 84.1849 90.9306 88.9254C91.8787 93.6699 75.2789 90.8215 73.6836 86.7695C73.6836 86.7695 75.5798 78.9209 75.3201 76.8063C75.0645 74.6916 76.1404 60.6805 77.9088 59.3408C79.6772 58.0094 87.266 60.2477 87.266 60.2477Z" fill="#C65047"/>
<path d="M94.3648 67.047C93.058 68.7412 93.9691 71.7503 95.9477 73.5393C97.9304 75.3283 104.266 80.3079 105.231 80.0647C106.199 79.8215 113.45 68.8978 113.45 68.8978C113.45 68.8978 111.467 67.7395 111.228 66.5771L104.46 73.8279C104.46 73.8279 99.7854 68.498 98.0788 66.8656C95.4489 64.3594 94.3648 67.047 94.3648 67.047Z" fill="#D8594F"/>
<path d="M111.236 66.5788C111.236 66.5788 110.902 62.2423 111.413 62.0403C111.929 61.8383 112.662 64.3075 112.662 64.3075C112.662 64.3075 113.474 62.2176 113.458 61.2819C113.445 60.3461 113.779 59.1837 114.942 59.6989C116.1 60.2142 116.949 61.5745 116.525 64.0725C116.1 66.5705 113.458 68.8996 113.458 68.8996C113.458 68.8996 111.813 68.1699 111.236 66.5788Z" fill="#FAC9B9"/>
<path d="M84.1084 62.6334C84.1084 62.6334 83.0201 62.8766 82.6574 63.6309C82.6574 63.6309 82.3812 61.5122 83.8487 60.7207C83.8487 60.7207 83.993 61.2896 84.1084 62.6334Z" fill="#D8594F"/>
<path d="M84.7801 62.6884L84.1041 62.6348C83.9475 62.6719 83.7537 62.7337 83.5434 62.8367C83.3208 62.948 83.1436 63.0676 83.0117 63.1748C83.0117 63.5705 83.0117 63.9621 83.0117 64.3578L84.7801 64.9638L85.6169 64.4732C85.6169 64.4774 85.4808 63.0717 84.7801 62.6884Z" fill="#302D67"/>
<path d="M84.7811 64.9675C84.7811 64.9675 83.0457 70.4582 83.3755 74.0692C83.7094 77.6802 83.5486 83.6037 83.5486 83.6037L81.4587 85.6936L80.3828 82.9359C80.3828 82.9359 81.7967 77.202 81.5988 74.0362C81.3968 70.8663 82.4439 65.4168 83.0127 64.3574L84.7811 64.9675Z" fill="#302D67"/>
<path d="M81.3013 52.8066C81.3343 54.7275 82.167 58.2767 82.5132 59.6658C82.5957 60.0121 82.9048 60.2512 83.2594 60.247C83.9271 60.2388 84.7557 60.177 85.6873 60.008C87.2248 59.7277 88.4697 59.4968 89.5539 58.6435C90.0526 58.2519 90.436 57.7903 90.7287 57.308C91.7674 55.6179 91.7221 53.6558 91.718 53.4991C91.6438 51.504 90.6297 48.0909 87.7113 47.588C85.0731 47.1345 83.28 48.2887 82.1752 49.8181C81.9238 50.1643 81.7342 50.5394 81.5981 50.9228C81.3755 51.5329 81.2931 52.18 81.3013 52.8066Z" fill="#FAC9B9"/>
<path d="M81.6016 50.9189C82.0303 51.5825 82.6939 52.3163 83.6255 52.5513C85.4475 53.0047 88.1022 50.9848 88.7865 52.0195C89.4666 53.0583 88.6587 55.2554 88.7865 55.6593C88.9101 56.0633 89.6438 56.29 89.6438 56.29L90.7321 57.3041C91.7709 55.614 91.7255 53.6519 91.7214 53.4952C91.6472 51.5001 90.6332 48.087 87.7147 47.5841C85.0766 47.1306 83.2834 48.2848 82.1787 49.8142C81.9272 50.1645 81.7376 50.5355 81.6016 50.9189Z" fill="#4C4745"/>
<path d="M89.0195 56.3286C89.0195 56.3286 89.7904 55.1208 90.8415 55.4753C91.8927 55.8257 91.2785 57.9774 89.1308 58.13L89.0195 56.3286Z" fill="#FAC9B9"/>
<path d="M84.1046 62.6332C84.1046 62.6332 83.9397 60.1351 83.375 59.4674L89.7066 57.5918V60.2465C89.7066 60.2465 86.9819 63.1113 84.1046 62.6332Z" fill="#FAC9B9"/>
<path d="M89.7072 60.248C89.7072 60.248 90.3173 60.8375 90.5894 61.7567C90.5894 61.7567 88.7962 64.4238 85.6758 65.075C85.6758 65.075 85.651 63.3685 84.7812 62.6883C85.7005 62.6224 86.4178 62.3874 86.8753 62.2019C87.6214 61.8969 88.1449 61.5259 88.5201 61.258C89.0353 60.887 89.431 60.5242 89.7072 60.248Z" fill="#D8594F"/>
<path d="M97.1172 24L105.007 26.1142L98.319 42.0583L95.5011 41.3032L97.1172 24Z" fill="#D8594F"/>
<path d="M86.9375 30.127L91.5353 30.7967L88.8169 40.2484L87.1748 40.0092L86.9375 30.127Z" fill="#D8594F"/>
<path d="M104.703 39.3145L108.971 41.1514L103.899 49.5774L102.375 48.9214L104.703 39.3145Z" fill="#D8594F"/>
<rect x="95.3242" y="42.5469" width="3.06321" height="2.04214" transform="rotate(15 95.3242 42.5469)" fill="#D8594F"/>
<rect x="87.1602" y="40.7246" width="1.74238" height="1.16158" transform="rotate(8.28816 87.1602 40.7246)" fill="#D8594F"/>
<rect x="102.172" y="49.6094" width="1.74238" height="1.16158" transform="rotate(23.2882 102.172 49.6094)" fill="#D8594F"/>
</svg>
