<svg width="170" height="170" viewBox="0 0 170 170" fill="none" xmlns="http://www.w3.org/2000/svg">
<path opacity="0.27" d="M99.6849 131.718C99.6849 135.187 93.1123 138.001 85.0026 138.001C76.893 138.001 70.3203 135.187 70.3203 131.718C70.3203 128.249 76.893 125.436 85.0026 125.436C93.1123 125.436 99.6849 128.247 99.6849 131.718Z" fill="#231F20"/>
<path d="M70.6403 108.622C70.2521 106.296 71.0126 101.766 72.3714 100.355C73.728 98.9411 77.0965 97.1474 79.8119 96.7353C82.5296 96.321 90.4131 95.7929 95.9946 99.5307C101.576 103.271 98.9864 108.873 97.9336 109.59C96.8807 110.302 96.7277 103.435 84.9938 103.07C73.2621 102.704 70.6403 108.622 70.6403 108.622Z" fill="#8E8E8D"/>
<path d="M92.7574 127.772C94.1345 123.186 84.4764 120.199 78.6643 123.45C76.6089 124.599 75.7981 126.211 76.2435 127.727C77.0748 130.281 78.6803 132.006 80.6443 132.985H80.6466C84.7916 135.145 90.8207 133.513 92.7574 127.772Z" fill="#5C5C5C"/>
<path d="M100.53 116.92C100.431 116.718 100.201 116.222 100.045 115.944C100.045 115.942 99.7623 115.491 99.7623 115.491C97.8256 112.356 92.0386 108.81 83.5544 109.085C65.0103 110.014 62.9343 125.452 77.3129 129.732L77.539 129.793C88.5878 133.082 104.501 127.662 100.53 116.92Z" fill="#B3B3B1"/>
<path d="M94.4022 112.021C89.0947 108.859 80.3685 108.773 74.908 111.827C69.4475 114.878 69.3242 119.917 74.6317 123.079C79.9369 126.241 88.6654 126.33 94.1236 123.275C99.5864 120.22 99.7097 115.183 94.4022 112.021Z" fill="#8E8E8D"/>
<path d="M79.9182 102.941C64.9847 105.484 63.8108 119.173 77.3718 123.216C87.731 126.307 100.205 122.137 101.086 114.459C102.231 105.256 88.9916 101.261 79.9182 102.941Z" fill="#BDBDBD"/>
<path d="M94.4248 105.492C89.1173 102.328 80.3911 102.241 74.9306 105.296C69.4701 108.348 69.3491 113.386 74.6542 116.548C79.9617 119.712 88.688 119.801 94.1484 116.746C99.6089 113.693 99.7322 108.656 94.4248 105.492Z" fill="#8E8E8D"/>
<path d="M99.7954 102.437C97.5162 98.8568 92.6495 96.9538 88.4428 96.3119C81.6966 95.1146 70.3189 97.2543 68.2407 104.65L68.2384 104.655V104.657C67.8273 106.048 67.8593 107.475 68.2018 108.895C70.7711 119.583 94.5176 120.841 100.168 110.741C100.177 110.732 100.38 110.318 100.385 110.307C101.531 108.017 101.485 105.121 99.7954 102.437ZM94.5017 110.309C89.0412 113.362 80.3149 113.275 75.0075 110.113C69.7 106.951 69.8256 101.912 75.2838 98.8568C80.742 95.8066 89.4705 95.8931 94.7757 99.0549C100.083 102.217 99.9621 107.256 94.5017 110.309Z" fill="#CFCFCF"/>
<path d="M95.7878 59.9284C95.1986 60.0695 94.6825 60.7774 94.5409 61.4216L84.5859 106.374L86.5842 107.531L96.5392 62.5803C96.667 62.0044 97.0621 61.4535 97.4938 61.2054C97.592 61.1485 97.6879 61.1075 97.7861 61.087C97.9551 61.046 98.099 61.0665 98.2132 61.1325C96.0093 59.8578 96.1144 59.8533 95.7878 59.9284Z" fill="#B7B7B7"/>
<path d="M93.4359 71.8062L92.1045 71.0368C91.9857 70.9686 91.8921 70.8434 91.8327 70.6908C91.7345 70.4427 91.5815 70.2583 91.3828 70.1445L92.7165 70.9139C92.9106 71.0277 93.0659 71.2144 93.1641 71.4602C93.2258 71.615 93.3172 71.738 93.4359 71.8062Z" fill="#9A9A9B"/>
<path d="M92.3417 68.5193C91.7433 68.1711 90.9166 68.2211 90.0031 68.7447C88.1943 69.7872 86.7213 72.3299 86.7259 74.4036C86.7282 75.6328 85.8581 77.1397 84.7847 77.7566C84.2434 78.0685 83.7524 78.0958 83.3984 77.8909L84.7299 78.6649C85.0839 78.8697 85.5749 78.8401 86.1161 78.5306C87.1895 77.9114 88.0619 76.4068 88.0573 75.1753C88.0505 73.1016 89.5235 70.5612 91.3322 69.5186C92.2457 68.9928 93.0747 68.945 93.6731 69.291L92.3417 68.5193Z" fill="#9A9A9B"/>
<path d="M83.7929 80.2852L82.4614 79.5158C81.8722 79.1743 81.5045 78.4482 81.5022 77.417C81.5 76.8047 81.283 76.3745 80.9336 76.1719L82.265 76.9458C82.6144 77.1461 82.8337 77.5786 82.8337 78.1887C82.8337 79.2176 83.2014 79.9437 83.7929 80.2852Z" fill="#9A9A9B"/>
<path d="M91.3311 69.5159C92.9183 68.6009 94.2498 69.1312 94.5626 70.6678C94.6357 71.0388 94.3274 71.5623 93.962 71.774C93.5806 71.9926 93.3043 71.7923 93.1695 71.4599C92.8955 70.7679 92.1761 70.5653 91.3357 71.0479C90.2623 71.6648 89.3899 73.1717 89.3945 74.4009C89.4013 76.4815 87.9351 79.015 86.1173 80.0598C84.3085 81.1024 82.8241 80.2647 82.8172 78.1842C82.815 76.9549 81.938 76.4564 80.8646 77.0733C80.0265 77.5559 79.3162 78.5825 79.0399 79.5909C78.9143 80.0735 78.6311 80.5948 78.252 80.8133C77.8889 81.0204 77.576 80.8565 77.6468 80.4013C77.9483 78.5097 79.2728 76.4519 80.8601 75.5391C82.6779 74.4942 84.1532 75.3388 84.1601 77.4125C84.1647 78.644 85.0393 79.1402 86.115 78.5233C87.1884 77.9042 88.0608 76.3995 88.0562 75.168C88.0493 73.1011 89.5224 70.5585 91.3311 69.5159Z" fill="#777778"/>
<path d="M77.7852 80.8677L76.4537 80.0983C76.3327 80.0278 76.2665 79.8707 76.303 79.6385C76.6067 77.7492 77.9313 75.6914 79.5163 74.7786C80.4298 74.2528 81.2565 74.205 81.8548 74.5532L83.1863 75.3249C82.5879 74.9766 81.7612 75.0244 80.8477 75.5503C79.2628 76.4631 77.9382 78.5186 77.6344 80.4125C77.6025 80.6401 77.6664 80.7994 77.7852 80.8677Z" fill="#9A9A9B"/>
<path d="M73.5356 73.608C73.3711 73.0912 73.6703 72.274 74.207 71.7869C74.481 71.532 74.8876 71.3157 75.2073 71.4978L73.209 70.3415C72.8938 70.1616 72.4896 70.3665 72.2087 70.6283C71.672 71.1177 71.3728 71.9326 71.5373 72.4471L82.6546 108.14L84.6529 109.298L73.5356 73.608Z" fill="#B7B7B7"/>
<path d="M97.7739 61.0873C98.306 60.9598 98.6098 61.4288 98.4545 62.1299L88.5018 107.083L86.5561 108.198L84.6445 109.3L73.5295 73.607C73.365 73.0903 73.6642 72.2731 74.2009 71.786C74.7284 71.2943 75.2925 71.3148 75.4501 71.8406L86.572 107.531L96.527 62.5806C96.6891 61.8522 97.2692 61.192 97.7739 61.0873Z" fill="#8E8E8E"/>
<path opacity="0.83" d="M117.597 58.7475C116.593 53.3026 115.252 49.3167 110.885 43.4757C102.943 32.859 89.8017 31.3475 89.8017 31.3475C89.5985 31.2883 86.81 30.9105 83.9096 31.0197C83.8822 31.0197 83.8571 31.0197 83.8297 31.0197C65.064 31.8119 51.2084 47.2294 52.0351 65.5036C52.5901 77.5021 59.5853 87.6704 69.5767 92.9583C70.0266 93.195 70.4354 93.3976 70.8191 93.582C71.2416 93.9052 71.39 95.0138 71.3969 95.6876L71.3489 106.027C71.8308 107.515 73.048 108.943 75.0121 110.113C80.3195 113.274 89.0458 113.361 94.5063 110.308C96.5137 109.186 97.7949 107.795 98.3544 106.327C98.375 103.839 98.4161 97.8137 98.4206 95.7627C98.4298 94.9 98.48 94.1442 99.0099 93.6594C99.4986 93.4318 100.063 93.1632 101.147 92.5622C110.997 86.8851 117.04 77.6455 117.931 66.0112C118.111 63.5801 117.917 60.6619 117.597 58.7475Z" fill="#F78933"/>
<path d="M85.1101 55.0849C83.2945 64.8981 70.6379 68.2853 64.2776 60.6574C59.9407 55.4605 62.3113 49.7401 63.1449 48.108C65.1432 44.1859 70.6425 41.9665 73.8466 41.8732C80.8143 41.6683 86.1858 49.2644 85.1101 55.0849Z" fill="#FFF4C5" fill-opacity="0.41"/>
</svg>
