<svg width="147" height="37" viewBox="0 0 147 37" fill="none" xmlns="http://www.w3.org/2000/svg">
<path fill-rule="evenodd" clip-rule="evenodd" d="M41.7305 13.4555C41.7305 17.7353 38.7941 20.5771 35.1342 20.5771C31.0889 20.5771 27.8984 17.3397 27.8984 13.4555C27.8984 9.57135 31.0889 6.33398 35.1342 6.33398C38.7941 6.33398 41.7305 9.17574 41.7305 13.4555ZM47.7305 13.4555C47.7305 20.7023 42.4442 26.5771 35.1342 26.5771C34.0727 26.5771 33.0404 26.4532 32.0511 26.2192L27.3586 34.4762C26.5263 35.9407 24.6737 36.4371 23.2207 35.5849C21.7678 34.7326 21.2646 32.8545 22.0969 31.39L26.5926 23.4793C23.7215 21.0724 21.8984 17.475 21.8984 13.4555C21.8984 6.2087 27.8243 0.333984 35.1342 0.333984C42.4442 0.333984 47.7305 6.2087 47.7305 13.4555Z" fill="#0F77D8"/>
<path d="M88.1544 26.7578C86.2115 26.7578 84.4021 26.5481 82.7264 26.1287C81.0749 25.6846 79.7148 25.0801 78.6462 24.3152C78.2334 23.9945 77.9298 23.6614 77.7355 23.316C77.5655 22.9705 77.4805 22.5264 77.4805 21.9836C77.4805 21.2434 77.6991 20.6019 78.1362 20.0591C78.5734 19.5163 79.0834 19.2449 79.6663 19.2449C79.982 19.2449 80.2856 19.2943 80.577 19.393C80.8684 19.4917 81.2327 19.6767 81.6699 19.9481C82.6656 20.5156 83.6493 20.9227 84.6207 21.1694C85.6165 21.4161 86.7336 21.5395 87.9723 21.5395C89.4052 21.5395 90.4859 21.3298 91.2145 20.9103C91.9674 20.4662 92.3438 19.8247 92.3438 18.9859C92.3438 18.4184 91.9917 17.9373 91.2874 17.5425C90.6073 17.123 89.2959 16.7159 87.3529 16.3212C84.9486 15.803 83.0664 15.1862 81.7063 14.4707C80.3463 13.7552 79.387 12.9163 78.8284 11.9541C78.2941 10.9671 78.0269 9.78284 78.0269 8.40115C78.0269 6.82208 78.4884 5.39105 79.4113 4.10805C80.3341 2.82506 81.597 1.8258 83.1999 1.11029C84.8271 0.370095 86.6486 0 88.6644 0C90.4373 0 92.016 0.197384 93.4003 0.592153C94.7846 0.98692 96.0475 1.60374 97.189 2.44263C97.6262 2.76337 97.9297 3.1088 98.0997 3.47889C98.294 3.82431 98.3912 4.25609 98.3912 4.77422C98.3912 5.51441 98.1726 6.15591 97.7354 6.69871C97.3226 7.24152 96.8247 7.51292 96.2418 7.51292C95.9261 7.51292 95.6347 7.47591 95.3675 7.4019C95.1004 7.3032 94.7239 7.10582 94.2382 6.80974C94.1167 6.73572 93.7646 6.55068 93.1817 6.2546C92.6231 5.93385 91.9552 5.68712 91.1781 5.51441C90.4252 5.31703 89.5995 5.21834 88.7009 5.21834C87.4622 5.21834 86.4665 5.46507 85.7136 5.95852C84.9607 6.42731 84.5843 7.05647 84.5843 7.84601C84.5843 8.3148 84.7179 8.69723 84.985 8.9933C85.2522 9.28938 85.75 9.58545 86.4786 9.88153C87.2072 10.1529 88.288 10.4367 89.7209 10.7327C92.0524 11.2509 93.886 11.88 95.2218 12.6202C96.5575 13.3357 97.5047 14.1746 98.0633 15.1369C98.6219 16.0991 98.9012 17.2341 98.9012 18.5417C98.9012 20.1702 98.4519 21.6135 97.5533 22.8719C96.6547 24.1055 95.3918 25.0677 93.7646 25.7586C92.1617 26.4248 90.2916 26.7578 88.1544 26.7578Z" fill="#0F77D8"/>
<path d="M124.368 21.3175C124.999 21.9343 125.315 22.6498 125.315 23.464C125.315 24.2782 125.011 24.9937 124.404 25.6106C123.797 26.2274 123.081 26.5358 122.255 26.5358C121.356 26.5358 120.531 26.141 119.778 25.3515L109.395 14.5447V23.279C109.395 24.3152 109.092 25.1418 108.485 25.7586C107.877 26.3507 107.052 26.6468 106.007 26.6468C104.987 26.6468 104.174 26.3507 103.566 25.7586C102.984 25.1418 102.692 24.3152 102.692 23.279V3.47889C102.692 2.4673 102.984 1.66543 103.566 1.07327C104.174 0.456451 104.987 0.148039 106.007 0.148039C107.052 0.148039 107.877 0.456451 108.485 1.07327C109.092 1.66543 109.395 2.4673 109.395 3.47889V11.621L119.632 1.14729C120.263 0.481123 120.98 0.148039 121.781 0.148039C122.583 0.148039 123.287 0.456451 123.894 1.07327C124.501 1.66543 124.805 2.36861 124.805 3.18282C124.805 3.99702 124.453 4.74955 123.749 5.44039L116.28 12.8793L124.368 21.3175Z" fill="#0F77D8"/>
<path d="M131.226 26.4248C130.23 26.4248 129.465 26.1534 128.93 25.6106C128.396 25.0677 128.129 24.2905 128.129 23.279V3.47889C128.129 2.4673 128.396 1.6901 128.93 1.14729C129.465 0.604488 130.23 0.333086 131.226 0.333086H143.83C144.875 0.333086 145.664 0.555143 146.198 0.999256C146.732 1.44337 147 2.08487 147 2.92375C147 4.7002 145.943 5.58843 143.83 5.58843H134.65V10.5477H143.102C145.215 10.5477 146.271 11.4236 146.271 13.1754C146.271 14.0143 146.004 14.6558 145.47 15.0999C144.935 15.544 144.146 15.766 143.102 15.766H134.65V21.1694H143.83C145.943 21.1694 147 22.0576 147 23.8341C147 24.673 146.732 25.3145 146.198 25.7586C145.664 26.2027 144.875 26.4248 143.83 26.4248H131.226Z" fill="#0F77D8"/>
<path d="M3.31511 26.6477C2.31936 26.6477 1.51791 26.3393 0.910745 25.7225C0.303582 25.1057 0 24.2914 0 23.2799V3.47979C0 2.4682 0.267152 1.691 0.801456 1.14819C1.33576 0.605387 2.10079 0.333984 3.09653 0.333984H15.3369C16.4298 0.333984 17.2313 0.556041 17.7413 1.00015C18.2513 1.4196 18.5063 2.0981 18.5063 3.03568C18.5063 3.94858 18.2392 4.61475 17.7049 5.03419C17.1949 5.45363 16.4056 5.66335 15.3369 5.66335H6.59379V10.4746H14.6083C15.677 10.4746 16.4663 10.6966 16.9763 11.1407C17.5106 11.5849 17.7777 12.2634 17.7777 13.1763C17.7777 14.0892 17.5106 14.7553 16.9763 15.1748C16.4663 15.5942 15.677 15.8039 14.6083 15.8039H6.59379V23.2799C6.59379 24.3161 6.29021 25.1427 5.68305 25.7595C5.10017 26.3516 4.31086 26.6477 3.31511 26.6477Z" fill="#0F77D8"/>
<path d="M73.2474 22.0955C73.6846 22.7617 73.9031 23.3909 73.9031 23.983C73.9031 24.7726 73.5753 25.4387 72.9195 25.9815C72.2881 26.4997 71.5473 26.7587 70.6973 26.7587C70.1144 26.7587 69.568 26.623 69.058 26.3516C68.548 26.0802 68.1108 25.6731 67.7465 25.1303L63.0106 18.0985C62.6706 17.6051 62.3063 17.2473 61.9177 17.0253C61.5534 16.7785 61.1163 16.6552 60.6063 16.6552H58.2383V23.2799C58.2383 24.3161 57.9469 25.1427 57.364 25.7595C56.7811 26.3516 55.9797 26.6477 54.9596 26.6477C53.9396 26.6477 53.126 26.3516 52.5188 25.7595C51.936 25.1427 51.6445 24.3161 51.6445 23.2799V3.47979C51.6445 2.4682 51.9117 1.691 52.446 1.14819C52.9803 0.605387 53.7453 0.333984 54.7411 0.333984H63.8849C66.9936 0.333984 69.3251 1.02483 70.8795 2.40651C72.4581 3.76353 73.2474 5.73737 73.2474 8.32803C73.2474 10.3019 72.7131 11.9796 71.6445 13.3613C70.5759 14.7183 69.0701 15.6312 67.1272 16.1C67.9287 16.2234 68.6208 16.4948 69.2037 16.9142C69.8109 17.3337 70.4059 17.9628 70.9888 18.8017L73.2474 22.0955ZM62.8285 11.5479C64.31 11.5479 65.3664 11.3135 65.9979 10.8447C66.6536 10.3759 66.9815 9.61102 66.9815 8.55009C66.9815 7.46448 66.6536 6.68728 65.9979 6.21849C65.3664 5.72503 64.31 5.4783 62.8285 5.4783H58.1655V11.5479H62.8285Z" fill="#0F77D8"/>
</svg>
