<svg width="170" height="170" viewBox="0 0 170 170" fill="none" xmlns="http://www.w3.org/2000/svg">
<path d="M88.5077 42C64.8498 42 45.6719 61.2521 45.6719 85C45.6719 108.749 64.8498 128 88.5077 128C112.166 128 131.344 108.749 131.344 85C131.344 61.2521 112.166 42 88.5077 42ZM55.0422 85C55.0422 77.4413 57.5299 70.4657 61.7275 64.8522L108.578 111.883C102.987 116.096 96.0381 118.594 88.5077 118.594C70.0252 118.594 55.0422 103.553 55.0422 85ZM115.215 105.243L68.3421 58.1898C73.9502 53.9324 80.9348 51.406 88.5077 51.406C106.99 51.406 121.973 66.4467 121.973 85C121.973 92.6021 119.457 99.6131 115.215 105.243Z" fill="#DA533D"/>
<path d="M89.0577 42C88.2202 42 87.3878 42.025 86.5625 42.0742C108.772 43.3699 126.39 62.092 126.39 85C126.39 107.909 108.772 126.63 86.5625 127.926C87.3878 127.975 88.2202 128 89.0577 128C112.413 128 131.345 108.749 131.345 85C131.345 61.2521 112.413 42 89.0577 42Z" fill="#DA533D"/>
<path d="M81.8358 42C58.1779 42 39 61.2521 39 85C39 108.749 58.1779 128 81.8358 128C105.494 128 124.672 108.749 124.672 85C124.672 61.2521 105.494 42 81.8358 42ZM48.3703 85C48.3703 77.4413 50.858 70.4657 55.0556 64.8522L101.907 111.883C96.3149 116.096 89.3662 118.594 81.8358 118.594C63.3533 118.594 48.3703 103.553 48.3703 85ZM108.544 105.243L61.6703 58.1898C67.2783 53.9324 74.263 51.406 81.8358 51.406C100.318 51.406 115.301 66.4467 115.301 85C115.301 92.6021 112.785 99.6131 108.544 105.243Z" fill="#ED5E47"/>
<path d="M82.3858 42C81.5483 42 80.7159 42.025 79.8906 42.0742C102.1 43.3699 119.718 62.092 119.718 85C119.718 107.909 102.1 126.63 79.8906 127.926C80.7159 127.975 81.5483 128 82.3858 128C105.741 128 124.674 108.749 124.674 85C124.674 61.2521 105.741 42 82.3858 42Z" fill="#ED5E47"/>
</svg>
