<svg width="466" height="462" viewBox="0 0 466 462" fill="none" xmlns="http://www.w3.org/2000/svg">
<path d="M67.25 101.219H230.315V69.0898L67.25 80.1378V101.219Z" fill="#3055A0"/>
<path d="M230.312 69.0939V101.223L365.2 69.0939L357.151 42.4824L230.312 69.0939Z" fill="#4063B7"/>
<path d="M67.25 80.1418L209.182 49.5095L357.153 42.4824L230.315 69.0939L67.25 80.1418Z" fill="#4B78D5"/>
<path d="M106.117 77.5005L109.856 101.22H131.256V75.8008L106.117 77.5005Z" fill="#4B78D5"/>
<path d="M292.219 56.1017L297.75 85.1485L312.818 81.9648L317.879 50.7109L292.219 56.1017Z" fill="#4B78D5"/>
<path d="M106.117 77.5004C108.965 77.3102 241.081 47.997 241.081 47.997L266.27 46.8047L131.256 75.8007L106.117 77.5004Z" fill="#6390E0"/>
<path d="M131.258 66.3252L148.78 62.5453L317.885 50.7109L292.225 56.1017L131.258 66.3252Z" fill="#6390E0"/>
<path d="M281.697 34.9067C283.07 39.4603 279.688 42.7075 276.28 46.0308C266.883 55.1887 239.354 59.1589 231.814 58.7023C220.713 58.0173 271.919 31.6849 259.661 16.3497C249.336 3.42456 259.254 14.1808 264.9 16.8825C266.006 17.4152 275.949 17.1235 276.649 18.1255L281.697 34.9067Z" fill="#1A3D81"/>
<path d="M187.168 47.6672C187.168 47.6672 256.493 -19.8 275.58 5.7967C276.482 7.01439 277.334 8.18133 278.135 9.32291C282.56 15.627 290.05 34.3615 276.279 46.031C274.448 47.5784 294.246 9.84296 252.272 28.1462C236.708 34.9323 210.755 55.4807 210.755 55.4807L187.168 47.6672Z" fill="#4B78D5"/>
<path d="M137.274 55.241C137.198 59.9849 141.331 62.2046 145.514 64.4751C157.06 70.7284 184.627 67.0754 191.761 64.5766C202.251 60.8982 145.794 49.4824 153.398 31.3821C159.807 16.1357 153.194 29.175 148.502 33.3101C147.587 34.1218 137.936 36.5445 137.542 37.6988L137.274 55.241Z" fill="#1A3D81"/>
<path d="M231.709 41.8324C231.709 41.8324 146.578 -4.24924 135.21 25.5713C134.676 26.9792 134.168 28.3491 133.71 29.6683C131.18 36.9363 129.082 56.99 145.523 64.4864C147.697 65.4758 118.35 34.5517 163.732 40.7543C180.567 43.0501 211.148 55.7724 211.148 55.7724L231.709 41.8324Z" fill="#4B78D5"/>
<path d="M218.827 54.4385C198.533 51.3689 192.175 32.812 190.306 18.834C173.178 33.3574 191.934 65.0044 191.934 65.0044L233.564 59.8293C233.564 59.8293 235.268 60.4762 236.146 55.6435C231.301 55.7703 225.579 55.4532 218.827 54.4385Z" fill="#4063B7"/>
<path d="M195.489 15.5276C193.48 16.4916 191.763 17.5951 190.301 18.8381C192.17 32.8161 198.528 51.3604 218.822 54.4427C225.587 55.4701 231.296 55.7872 236.128 55.6477C236.408 54.0875 236.611 51.9439 236.636 49.0138C237.094 2.99559 216.228 5.64658 195.489 15.5276Z" fill="#6390E0"/>
<path d="M420.243 150.13C420.892 150.194 421.693 150.371 421.858 151.005C421.947 151.361 421.807 151.716 421.668 152.046C420.701 154.303 419.722 156.548 418.756 158.806C414.458 155.343 408.901 153.91 403.535 152.566C405.061 148.634 403.65 148.875 409.257 149.23C412.919 149.471 416.581 149.762 420.243 150.13Z" fill="#4B78D5"/>
<path d="M41.2574 102.779C40.8886 101.32 37.3918 96.4622 36.311 95.4094C33.7425 92.8853 31.0722 90.3104 27.7153 89.0039C25.0704 91.9466 22.3366 94.7879 19.4883 97.5404C26.1385 98.2126 32.6362 100.445 38.2819 104.009C39.8205 104.986 41.3082 102.995 41.2574 102.779Z" fill="#4B78D5"/>
<g class="bottom">
<path opacity="0.35" d="M100.105 438.992L260.309 462.001L365.213 407.484L335.459 403.818L139.066 417.517L100.105 438.992Z" fill="#302D67" fill-opacity="0.38"/>
<path d="M74.2578 260.191L174.851 215.594L216.215 417.513L119.017 429.525L74.2578 260.191Z" fill="#3F62B4"/>
<path d="M174.855 215.59L375.876 203.934L335.454 402.771L216.219 417.51L174.855 215.59Z" fill="#1A3D81"/>
<path d="M252.124 444.531L119.017 429.525L74.2578 260.191L230.405 269.616L252.124 444.531Z" fill="#314BA8"/>
<path d="M230.406 269.612L375.873 203.934L335.45 402.771L252.125 444.527L230.406 269.612Z" fill="#4063B7"/>
<path d="M116.395 248.125L157.453 433.86C157.453 433.86 172.28 435.534 175.764 435.927C179.248 436.32 146.111 264.538 146.111 264.538L116.395 248.125Z" fill="#4B78D5"/>
<path d="M295.013 240.441L286.926 427.089L304.232 418.413L317.977 230.078L295.013 240.441Z" fill="#4B78D5"/>
<path d="M146.18 265.275C146.18 265.275 124.538 243.89 107.296 287.967C98.7252 309.86 80.5546 332.78 51.8047 332.717C36.139 332.679 29.794 322.062 29.794 322.062C28.5733 322.861 49.821 324.916 57.5267 317.369C39.3942 316.824 28.5478 306.943 27.3398 302.326C27.3398 302.326 51.4105 302.909 76.0279 284.733C92.3038 272.721 85.946 263.791 105.248 252.718C126.839 240.313 146.409 249.953 146.18 265.275Z" fill="#5A8BE0"/>
<path d="M317.98 230.075L318.756 210.998L306.524 225.953L298.589 235.935L294.812 245.093L317.98 230.075Z" fill="#4B78D5"/>
<path d="M295.091 247.278C295.091 247.278 297.024 236.547 310.681 231.892C321.298 228.277 337.307 227.719 348.484 239.997C374.017 268.08 390.535 264.199 399.13 257.273C411.147 247.582 406.607 249.168 406.607 249.168C406.607 249.168 394.705 254.356 387.407 247.481C389.238 248.61 412.304 237.689 413.295 231.994C412.52 231.245 382.74 239.947 368.613 227.148C354.651 214.515 353.786 192.444 328.902 199.585C314.394 203.733 291.213 235.241 295.091 247.278Z" fill="#6390E0"/>
</g>
<g opacity="0.22">
<path opacity="0.22" d="M80.4734 70.9319C79.5961 71.7817 78.1846 71.769 77.3327 70.8938C76.4807 70.0186 76.4935 68.6107 77.3708 67.7608C78.2482 66.911 79.6596 66.9237 80.5116 67.7989C81.3762 68.6741 81.3508 70.0693 80.4734 70.9319Z" fill="#83B6FF"/>
</g>
<g opacity="0.43">
<path opacity="0.43" d="M21.0849 225.865C21.1739 226.119 21.034 226.398 20.767 226.487C20.5127 226.576 20.233 226.436 20.1439 226.17C20.0549 225.916 20.1948 225.637 20.4618 225.548C20.7289 225.459 21.0086 225.599 21.0849 225.865Z" fill="#83B6FF"/>
</g>
<g opacity="0.37">
<path opacity="0.37" d="M43.3732 231.907C43.5003 232.338 43.246 232.782 42.8137 232.896C42.3813 233.023 41.9363 232.769 41.8219 232.338C41.6947 231.907 41.949 231.463 42.3813 231.349C42.801 231.234 43.246 231.475 43.3732 231.907Z" fill="#83B6FF"/>
</g>
<g opacity="0.29">
<path opacity="0.29" d="M433.958 43.8758C432.978 44.8271 431.402 44.8144 430.448 43.8377C429.494 42.8611 429.507 41.2882 430.486 40.3369C431.465 39.3856 433.042 39.3983 433.996 40.375C434.949 41.339 434.937 42.9118 433.958 43.8758Z" fill="#83B6FF"/>
</g>
<g opacity="0.24">
<path opacity="0.24" d="M23.2326 226.935C24.1608 228.051 23.9955 229.7 22.8766 230.626C21.7576 231.552 20.1046 231.387 19.1763 230.271C18.2481 229.155 18.4134 227.506 19.5324 226.58C20.664 225.666 22.3171 225.819 23.2326 226.935Z" fill="#83B6FF"/>
</g>
<path d="M400.229 38.8537C402.34 40.6168 404.375 42.4814 406.307 44.4347C401.209 47.1365 396.669 50.9164 393.083 55.4319C392.829 55.749 392.575 56.0788 392.193 56.2057C391.507 56.4213 390.845 55.8886 390.299 55.3685C389.752 54.8358 389.192 54.3157 388.633 53.7957C389.307 52.3624 399.199 37.9912 400.229 38.8537Z" fill="#4B78D5"/>
<path d="M34.6345 166.164C29.0905 166.177 23.5465 169.158 18.7145 171.859C18.3458 172.062 17.9643 172.316 17.8499 172.709C17.6973 173.229 18.0406 173.749 18.3585 174.181C21.7536 178.722 24.4747 183.757 26.4202 189.072C31.4174 181.652 43.9932 176.083 52.8941 175.056C57.103 174.574 51.7624 171.707 49.0285 170.413C45.5445 168.765 43.8533 166.139 34.6345 166.164Z" fill="#6390E0"/>
<path d="M62.1139 145.388C61.3001 146.263 59.8887 146.009 58.6934 145.87C56.5318 145.629 54.3065 146.06 52.3992 147.075C51.8143 147.392 50.8606 147.62 50.6826 146.986C50.619 146.783 50.6826 146.567 50.7462 146.377C51.0768 145.337 51.4074 144.297 51.7253 143.257C51.8651 142.813 52.0177 142.356 52.3865 142.065C52.7425 141.785 53.213 141.747 53.658 141.722C56.7861 141.557 59.9523 141.874 62.9913 142.661C62.6734 143.688 62.3682 144.728 62.0503 145.756C62.1266 145.375 61.9359 144.944 61.6053 144.741" fill="#4063B7"/>
<path d="M363.801 151.589C365.416 148.519 368.137 146.046 371.342 144.727C372.422 145.906 373.351 147.225 374.088 148.646C370.426 148.773 367.514 151.601 364.984 154.24C365.06 153.136 364.462 152.007 363.496 151.449" fill="#4B78D5"/>
<path d="M76.7919 190.314C75.0753 190.873 73.3842 191.646 72.049 192.864C70.7139 194.082 69.7602 195.794 69.7857 197.595C72.2906 199.523 74.999 201.198 77.8473 202.58C77.9999 200.157 79.92 198.204 81.9291 196.834C83.8491 195.515 86.0108 194.462 88.3123 194.107C90.6265 193.752 93.0934 194.132 95.0261 195.439C96.4884 188.019 80.5049 189.097 76.7919 190.314Z" fill="#4B78D5"/>
<g opacity="0.87">
<path opacity="0.87" d="M414.464 207.959C413.955 208.529 413.09 208.593 412.505 208.098C411.933 207.591 411.87 206.728 412.365 206.145C412.874 205.574 413.739 205.511 414.324 206.005C414.896 206.513 414.959 207.388 414.464 207.959Z" fill="#83B6FF"/>
</g>
<g opacity="0.83">
<path opacity="0.83" d="M422.693 172.965C423.291 174.893 422.21 176.935 420.277 177.531C418.345 178.127 416.297 177.049 415.7 175.121C415.102 173.193 416.183 171.151 418.116 170.555C420.048 169.959 422.096 171.037 422.693 172.965Z" fill="#83B6FF"/>
</g>
<g opacity="0.92">
<path opacity="0.92" d="M437.517 157.989C437.11 158.636 436.258 158.852 435.61 158.446C434.961 158.053 434.745 157.19 435.152 156.543C435.546 155.897 436.411 155.681 437.059 156.087C437.708 156.48 437.911 157.33 437.517 157.989Z" fill="#83B6FF"/>
</g>
<g opacity="0.46">
<path opacity="0.46" d="M375.359 28.5782C375.092 31.2673 372.689 33.2206 369.993 32.9542C367.298 32.6879 365.339 30.2906 365.606 27.6015C365.873 24.9125 368.277 22.9591 370.972 23.2255C373.655 23.5045 375.626 25.9018 375.359 28.5782Z" fill="#83B6FF"/>
</g>
<g opacity="0.93">
<path opacity="0.93" d="M33.2945 170.212C32.9766 171.493 31.6796 172.267 30.3953 171.962C29.111 171.645 28.3354 170.352 28.6406 169.07C28.9584 167.789 30.2554 167.016 31.5397 167.32C32.8367 167.637 33.6124 168.931 33.2945 170.212Z" fill="#83B6FF"/>
</g>
<g opacity="0.36">
<path opacity="0.36" d="M7.85674 153.115C6.71234 154.701 4.48711 155.068 2.89766 153.927C1.3082 152.785 0.939452 150.565 2.08386 148.98C3.22826 147.394 5.45349 147.027 7.04294 148.168C8.64511 149.31 9.00114 151.529 7.85674 153.115Z" fill="#83B6FF"/>
</g>
<g opacity="0.69">
<path opacity="0.69" d="M34.2478 125.322C33.2433 126.946 31.1198 127.44 29.5049 126.451C27.8773 125.449 27.3814 123.331 28.3732 121.72C29.3778 120.096 31.5013 119.601 33.1162 120.591C34.731 121.58 35.2397 123.698 34.2478 125.322Z" fill="#83B6FF"/>
</g>
<g opacity="0.25">
<path opacity="0.25" d="M34.5822 101.297C32.9037 104.379 29.0382 105.534 25.9483 103.859C22.8584 102.185 21.7013 98.329 23.3798 95.2467C25.0582 92.1644 28.9238 91.0102 32.0136 92.6845C35.1035 94.3461 36.2607 98.2021 34.5822 101.297Z" fill="#83B6FF"/>
</g>
<path d="M46.1557 83.9281C45.9523 84.6638 45.1766 85.0951 44.4391 84.8794C43.7016 84.6765 43.2693 83.9028 43.4854 83.1671C43.6889 82.4314 44.4645 82.0001 45.202 82.2158C45.9395 82.4187 46.3719 83.1924 46.1557 83.9281Z" fill="#83B6FF"/>
<g opacity="0.69">
<path opacity="0.69" d="M69.9335 181.267C70.404 183.005 69.3741 184.806 67.632 185.275C65.89 185.744 64.0844 184.717 63.6139 182.979C63.1434 181.241 64.1734 179.44 65.9154 178.971C67.6574 178.502 69.4631 179.529 69.9335 181.267Z" fill="#83B6FF"/>
</g>
<g opacity="0.89">
<path opacity="0.89" d="M106.782 197.258C108.245 199.186 107.85 201.939 105.918 203.397C103.985 204.856 101.226 204.463 99.7632 202.535C98.3009 200.607 98.6951 197.855 100.628 196.396C102.573 194.937 105.32 195.33 106.782 197.258Z" fill="#83B6FF"/>
</g>
<g opacity="0.73">
<path opacity="0.73" d="M77.1958 149.749C77.2849 150.675 76.6109 151.499 75.6954 151.588C74.7672 151.677 73.9407 151.017 73.8516 150.091C73.7626 149.165 74.4366 148.341 75.3521 148.252C76.2803 148.163 77.1068 148.835 77.1958 149.749Z" fill="#83B6FF"/>
</g>
<path d="M61.7961 206.929C61.8723 208.819 60.4101 210.429 58.5027 210.506C56.6081 210.582 54.9932 209.11 54.9169 207.22C54.8406 205.33 56.3029 203.72 58.2103 203.643C60.1176 203.567 61.7198 205.039 61.7961 206.929Z" fill="#83B6FF"/>
<g opacity="0.41">
<path opacity="0.41" d="M452.43 229.65C451.768 230.893 450.23 231.362 448.984 230.703C447.737 230.043 447.267 228.508 447.928 227.265C448.589 226.022 450.128 225.553 451.374 226.213C452.62 226.872 453.091 228.42 452.43 229.65Z" fill="#83B6FF"/>
</g>
<g opacity="0.81">
<path opacity="0.81" d="M451.48 195.211C451.76 198.167 449.598 200.805 446.623 201.084C443.66 201.363 441.015 199.194 440.735 196.239C440.456 193.284 442.617 190.645 445.593 190.366C448.555 190.074 451.187 192.243 451.48 195.211Z" fill="#83B6FF"/>
</g>
<g opacity="0.39">
<path opacity="0.39" d="M464.349 170.387C463.421 173.901 459.809 175.994 456.287 175.055C452.765 174.129 450.667 170.527 451.608 167.013C452.536 163.5 456.147 161.407 459.669 162.345C463.179 163.271 465.277 166.874 464.349 170.387Z" fill="#83B6FF"/>
</g>
<g opacity="0.47">
<path opacity="0.47" d="M402.44 20.2849C401.804 21.1601 400.571 21.3504 399.706 20.7162C398.829 20.082 398.638 18.8516 399.274 17.9891C399.909 17.1139 401.143 16.9236 402.007 17.5578C402.885 18.192 403.076 19.4097 402.44 20.2849Z" fill="#83B6FF"/>
</g>
<g opacity="0.36">
<path opacity="0.36" d="M6.5592 82.2574C6.74993 83.4878 5.89799 84.6294 4.67729 84.8196C3.44388 85.0099 2.29947 84.16 2.10874 82.9424C1.918 81.712 2.76995 80.5704 3.99065 80.3802C5.22406 80.1899 6.38118 81.0397 6.5592 82.2574Z" fill="#83B6FF"/>
</g>
<g opacity="0.54">
<path opacity="0.54" d="M33.0791 54.1905C32.8629 55.0277 31.9982 55.535 31.1463 55.3194C30.307 55.1038 29.7984 54.2412 30.0146 53.3914C30.2308 52.5542 31.0954 52.0469 31.9474 52.2625C32.7993 52.4908 33.2952 53.3534 33.0791 54.1905Z" fill="#83B6FF"/>
</g>
<g opacity="0.86">
<path opacity="0.86" d="M59.1359 36.7212C58.8689 39.6639 56.2622 41.8329 53.3249 41.5665C50.3748 41.3001 48.2005 38.6999 48.4675 35.7698C48.7345 32.8271 51.3412 30.6581 54.2785 30.9245C57.2158 31.1782 59.4029 33.7784 59.1359 36.7212Z" fill="#83B6FF"/>
</g>
<path d="M79.5953 37.6439C80.905 38.9504 80.905 41.056 79.5953 42.3624C78.2856 43.6689 76.1748 43.6689 74.8651 42.3624C73.5554 41.056 73.5554 38.9504 74.8651 37.6439C76.1748 36.3374 78.2856 36.3374 79.5953 37.6439Z" fill="#83B6FF"/>
<g opacity="0.86">
<path opacity="0.86" d="M95.9849 40.6675C96.252 41.771 95.5653 42.8872 94.459 43.1409C93.3528 43.4073 92.2338 42.7223 91.9795 41.6188C91.7125 40.5153 92.3991 39.3991 93.5054 39.1454C94.6116 38.879 95.7179 39.564 95.9849 40.6675Z" fill="#83B6FF"/>
</g>
<g opacity="0.61">
<path opacity="0.61" d="M15.4147 191.24C15.6944 192.052 15.2494 192.927 14.4483 193.193C13.6345 193.472 12.7571 193.028 12.4901 192.229C12.2104 191.418 12.6554 190.542 13.4565 190.276C14.2576 190.01 15.1349 190.441 15.4147 191.24Z" fill="#83B6FF"/>
</g>
</svg>
