<svg width="170" height="170" viewBox="0 0 170 170" fill="none" xmlns="http://www.w3.org/2000/svg">
<path d="M122.688 139.763C130.04 139.724 135.981 136.258 135.958 132.023C135.935 127.787 129.956 124.386 122.605 124.426C115.253 124.466 109.312 127.931 109.335 132.167C109.358 136.402 115.336 139.803 122.688 139.763Z" fill="#E8EEFA"/>
<path d="M120.231 66.6041C120.231 66.6041 117.457 66.0665 115.643 68.6868C114.514 70.3168 110.884 75.6142 110.175 77.1819C109.466 78.7496 108.95 79.8985 108.848 80.3399C108.751 80.7814 110.419 86.0165 112.308 84.5733C114.196 83.1301 119.125 74.737 119.125 74.737L120.231 66.6041Z" fill="#FCFDFE"/>
<path d="M118.403 125.798C118.403 125.798 118.085 126.799 117.915 127.071C117.745 127.343 114.506 130.008 114.137 130.546C113.769 131.084 113.746 131.599 113.746 131.768C113.746 131.938 114.211 133.529 115.856 133.161C117.501 132.793 118.896 131.004 119.287 130.687C119.679 130.37 122.509 129.12 122.628 128.067C122.747 127.014 122.248 124.932 122.248 124.932L118.403 125.798Z" fill="#1F2338"/>
<path d="M127.128 129.022C127.128 129.022 126.493 130.873 126.272 131.315C126.051 131.756 123.788 134.637 123.669 135.044C123.55 135.452 123.311 136.284 123.51 136.482C123.708 136.674 125.438 137.58 127.049 136.838C128.66 136.103 129.329 134.92 129.851 134.235C130.367 133.55 130.855 131.807 131.144 131.422C131.433 131.037 131.411 129.645 131.382 129.481C131.354 129.317 131.121 127.557 131.121 127.557L127.128 129.022Z" fill="#1F2338"/>
<path d="M118.403 125.276C118.403 125.276 118.085 126.278 117.915 126.549C117.745 126.821 114.506 129.487 114.137 130.024C113.769 130.562 113.746 131.077 113.746 131.247C113.746 131.417 114.211 133.007 115.856 132.639C117.501 132.271 118.896 130.483 119.287 130.166C119.679 129.849 122.509 128.598 122.628 127.546C122.747 126.493 122.248 124.41 122.248 124.41L118.403 125.276Z" fill="#965724"/>
<path d="M127.128 128.503C127.128 128.503 126.493 130.354 126.272 130.795C126.051 131.237 123.788 134.117 123.669 134.525C123.55 134.932 123.311 135.764 123.51 135.962C123.708 136.155 125.438 137.06 127.049 136.319C128.66 135.583 129.329 134.4 129.851 133.715C130.367 133.031 130.855 131.287 131.144 130.903C131.433 130.518 131.411 129.131 131.382 128.961C131.354 128.797 131.121 127.037 131.121 127.037L127.128 128.503Z" fill="#965724"/>
<path d="M115.044 91.2305C115.044 91.3776 114.023 93.3981 114.46 99.052C114.897 104.706 115.078 110.948 115.668 112.341C116.258 113.733 120.081 114.763 121.295 112.89C122.508 111.016 122.73 104.847 122.622 103.71C122.514 102.572 121.59 92.6227 121.59 92.6227L115.044 91.2305Z" fill="#494F6F"/>
<path d="M115.406 111.291C115.667 113.074 117.618 125.842 117.873 126.277C118.129 126.719 119.235 127.047 120.375 126.645C121.515 126.243 122.581 125.762 122.621 124.625C122.655 123.487 122.791 114.472 121.798 111.71C120.806 108.948 115.406 111.291 115.406 111.291Z" fill="#494F6F"/>
<path d="M120.564 126.517C120.513 125.979 119.271 113.285 119.339 111.927C119.401 110.591 119.339 101.479 119.339 101.388L119.798 101.383C119.804 101.756 119.86 110.602 119.798 111.949C119.736 113.274 121.012 126.336 121.023 126.472L120.564 126.517Z" fill="#565D82"/>
<path d="M117.102 94.2798C117.102 94.2798 117.119 99.8828 118.259 100.873C119.399 101.864 120.096 102.413 120.317 103.663C120.539 104.914 122.541 114.037 123.278 115.249C124.015 116.46 126.744 118.288 128.286 117.552C129.829 116.816 130.158 114.513 130.232 113.851C130.305 113.188 130.459 105.435 130.68 103.307C130.901 101.179 130.89 94.5684 129.931 92.5083C128.973 90.4595 117.102 94.2798 117.102 94.2798Z" fill="#494F6F"/>
<path d="M128.349 100.154C124.032 100.154 123.721 97.3294 123.715 97.3011L124.174 97.2559C124.186 97.3634 124.481 99.8875 128.825 99.6781L128.848 100.137C128.678 100.148 128.507 100.154 128.349 100.154Z" fill="#565D82"/>
<path d="M119.684 102.515C119.639 102.509 118.623 102.294 117.835 100.958C117.064 99.6565 117.222 95.6835 117.228 95.5137L117.688 95.5306C117.688 95.5703 117.529 99.532 118.232 100.72C118.918 101.881 119.763 102.056 119.769 102.062L119.684 102.515Z" fill="#565D82"/>
<path d="M117.916 100.748L117.848 100.295C118.114 100.255 118.829 100.046 118.937 99.5875C119.067 99.0328 118.897 96.7011 118.823 95.8521L119.283 95.8125C119.311 96.1351 119.555 98.9649 119.385 99.695C119.186 100.544 117.967 100.736 117.916 100.748Z" fill="#565D82"/>
<path d="M122.641 113.51C122.641 113.51 125.93 129.073 126.225 129.696C126.52 130.319 128.8 130.652 129.719 129.804C130.638 128.96 131.188 128.7 131.301 127.053C131.409 125.4 130.876 117.205 130.473 114.381C130.071 111.557 128.358 108.523 128.358 108.523L122.641 113.51Z" fill="#494F6F"/>
<path d="M129.948 129.42C129.937 129.29 128.786 116.618 128.423 113.737C128.253 112.413 128.355 109.283 128.462 105.978C128.593 101.92 128.74 97.3246 128.423 95.1343L128.882 95.0664C129.205 97.2963 129.052 101.915 128.922 105.989C128.814 109.278 128.718 112.39 128.882 113.681C129.251 116.567 130.402 129.25 130.414 129.38L129.948 129.42Z" fill="#565D82"/>
<path d="M130.112 91.9023C130.112 91.9023 130.322 93.804 130.379 94.1435C130.435 94.4831 129.205 96.1131 124.469 96.5432C119.733 96.9733 115.28 95.6207 114.191 94.9189C114.889 92.8079 130.112 91.9023 130.112 91.9023Z" fill="#1F2338"/>
<path d="M116.575 96.1359C116.575 96.2548 116.575 96.3793 116.626 96.4868C116.717 96.6736 116.938 96.7528 117.137 96.8094C117.919 97.0245 118.731 97.132 119.542 97.1264C119.621 97.1264 119.7 97.1207 119.763 97.0811C119.871 97.0132 119.893 96.866 119.899 96.7358C119.939 95.9152 119.825 95.0946 119.564 94.3135C119.525 94.2004 119.485 94.0815 119.394 93.9966C119.269 93.8778 119.088 93.8495 118.918 93.8325C118.475 93.7815 118.039 93.7363 117.596 93.708C117.33 93.691 116.887 93.5721 116.689 93.8155C116.513 94.0362 116.587 94.5003 116.581 94.7493C116.587 95.2078 116.581 95.6718 116.575 96.1359Z" fill="#999FBF"/>
<path d="M129.61 92.6274C129.452 92.4916 129.219 92.4746 129.009 92.469C127.847 92.435 126.684 92.4067 125.532 92.5256C124.472 92.6331 123.417 92.8708 122.453 93.3349C122.129 93.4934 121.721 93.6745 121.642 94.0593C121.579 94.3536 121.71 94.6875 121.749 94.9762C121.829 95.593 121.806 96.2213 121.874 96.8382C121.903 97.0759 121.959 97.3475 122.169 97.4664C122.379 97.5852 122.663 97.4777 122.816 97.2853C122.963 97.0928 123.014 96.8438 123.037 96.6005C123.128 95.7515 123.031 94.829 123.485 94.1102C123.769 93.6631 124.234 93.3575 124.727 93.1821C125.221 93.0066 125.754 92.95 126.281 92.9161C126.803 92.8878 127.347 92.8878 127.83 93.0915C128.034 93.1764 128.227 93.3009 128.448 93.3179C128.59 93.3292 128.737 93.2896 128.873 93.3349C129.395 93.516 129.293 94.8347 129.276 95.2535C129.27 95.344 129.264 95.4402 129.287 95.5251C129.31 95.6157 129.367 95.7006 129.452 95.7345C129.531 95.7628 129.622 95.7459 129.701 95.7119C130.149 95.5251 130.189 95.1799 130.178 94.7668C130.172 94.4045 130.178 94.048 130.149 93.6858C130.115 93.3066 129.9 92.8708 129.61 92.6274Z" fill="#494F6F"/>
<path d="M127.399 67.8427C123.282 65.8618 119.674 66.2297 117.576 67.622C115.477 69.0142 115.075 71.5893 114.819 73.2023C114.564 74.8153 114.343 78.6016 114.672 82.818C115.001 87.0344 114.264 90.8942 114.507 92.1053C114.746 93.3165 113.419 93.724 118.5 94.788C123.577 95.852 130.128 94.3409 130.383 92.5072C130.638 90.6735 129.906 86.9325 130.162 84.5781C130.417 82.2294 132.481 73.7004 131.29 71.578C129.77 68.8727 127.399 67.8427 127.399 67.8427Z" fill="#E8EEFA"/>
<path d="M118.733 94.9822L117.746 94.9766C117.752 94.4785 117.854 82.6726 118.455 77.8224C119.056 72.9664 119.839 70.1423 119.867 70.0234L120.82 70.2894C120.815 70.3177 120.026 73.1702 119.436 77.9469C118.835 82.7349 118.733 94.8634 118.733 94.9822Z" fill="#D5D5DE"/>
<path d="M110.469 80.3917C110.469 80.3917 109.334 79.854 108.909 80.137C108.483 80.42 103.651 85.2419 103.356 86.0229C103.061 86.804 104.632 90.4261 106.447 89.3281C108.262 88.2245 111.523 85.3608 112.312 84.5797C113.095 83.7931 110.469 80.3917 110.469 80.3917Z" fill="#FCFDFE"/>
<path d="M119.098 66.734C119.098 66.734 119.716 68.5281 119.517 69.6883C119.319 70.8485 121.917 70.6731 123.17 70.0392C124.423 69.4054 125.949 68.347 125.722 67.7131C125.49 67.0793 124.792 66.3209 124.792 65.5568C124.792 64.7985 125.354 62.8912 125.745 61.6178C126.136 60.3444 124.202 59.1445 124.202 59.1445L120.374 62.9874L119.098 66.734Z" fill="#FFDBA7"/>
<path d="M123.887 61.3237C123.887 61.3237 123.984 65.2628 123.031 66.0947C122.073 66.9267 119.6 67.9567 118.981 68.053C118.369 68.1492 117.875 67.9284 117.705 67.5379C117.535 67.1474 116.577 64.7704 116.48 62.0085C116.384 59.241 116.65 57.0903 117.263 56.6489C117.875 56.2074 119.861 54.6397 122.265 55.6188C124.67 56.5979 123.887 61.3237 123.887 61.3237Z" fill="#FFDBA7"/>
<path d="M117.952 57.1298C118.015 57.1694 118.071 57.2147 118.134 57.2487C118.554 57.4751 119.058 57.5543 119.523 57.6392C119.954 57.7184 120.391 57.792 120.822 57.8712C120.981 57.8995 121.146 57.9278 121.293 58.0071C122.235 58.4938 121.287 59.7276 121.747 60.469C121.945 60.7859 123.046 61.25 123.023 61.9858C123 62.7215 123.17 63.0611 123.17 63.0611L124.004 62.7668C124.004 62.7668 123.953 61.3462 124.424 61.0519C124.889 60.7576 125.309 62.3763 125.014 63.2082C124.719 64.0402 124.792 65.2457 124.798 65.4608C125.706 64.1364 126.415 63.4855 126.902 61.3406C127.39 59.1956 128.349 55.7942 124.622 54.566C121.803 52.3871 118.174 54.4189 117.164 55.4716C116.154 56.5243 115.984 59.4333 116.478 59.9936C116.551 59.2012 116.654 58.4146 116.807 57.6335C116.858 57.3789 116.897 57.0676 117.147 56.9374C117.482 56.762 117.708 56.9544 117.952 57.1298Z" fill="#1F2338"/>
<path d="M124.055 63.5369C124.055 63.5369 124.361 64.3066 124.928 63.7124C125.495 63.1124 125.694 61.6862 125.41 61.2165C125.132 60.7411 124.452 61.0127 124.338 61.6296C124.231 62.2409 124.055 63.5369 124.055 63.5369Z" fill="#FFDBA7"/>
<path d="M98.2142 87.5217C98.2142 87.5217 97.7945 88.9309 98.0441 89.1346C98.288 89.344 98.8268 89.4176 98.9856 89.1007C99.1444 88.7837 99.4053 88.5234 99.4053 88.5234C99.4053 88.5234 98.8268 89.5761 98.8665 89.9666C98.9005 90.3571 99.065 90.5892 99.5414 90.3684C100.018 90.1477 100.988 89.1346 100.988 89.1346L100.29 87.25L98.2142 87.5217Z" fill="#FFDBA7"/>
<path d="M114.439 94.3302C113.77 95.3999 112.505 95.8244 111.609 95.2867C110.713 94.7491 110.531 93.4417 111.2 92.3777C111.87 91.3137 113.135 90.8835 114.031 91.4212C114.927 91.9589 115.108 93.2606 114.439 94.3302Z" fill="#B8753D"/>
<path d="M116.131 95.2923C118.326 91.5117 116.852 87.8952 114.26 86.2766C111.639 84.6919 107.924 85.9427 105.962 89.0724C104.096 92.0494 104.493 95.6545 106.79 97.3581C110 99.5483 113.84 98.6937 116.131 95.2923C116.114 95.3149 115.525 94.981 114.441 94.3302C113.772 95.3998 112.507 95.8243 111.611 95.2867C110.715 94.749 110.533 93.4416 111.203 92.3776C111.872 91.3136 113.137 90.8835 114.033 91.4212C114.929 91.9588 115.111 93.2662 114.441 94.3302C115.525 94.9867 116.114 95.3206 116.131 95.2923Z" fill="#BC773E"/>
<path d="M115.803 95.7716C114.294 97.4469 110.409 96.4055 110.222 93.6776C110.017 90.7063 112.814 85.0524 115.269 87.0672C115.377 87.1577 115.513 87.2822 115.61 87.3841L115.269 87.0445L115.207 86.9879L114.838 86.6767C114.668 86.5578 114.441 86.3937 114.26 86.2805C111.639 84.6958 107.924 85.9466 105.962 89.0763C104.096 92.0533 104.493 95.6585 106.79 97.362C106.915 97.4469 107.074 97.5544 107.198 97.6393L107.272 97.6846L107.703 97.9223C107.89 98.0072 108.134 98.1147 108.321 98.1883L108.781 98.3354C108.968 98.3807 109.218 98.4373 109.405 98.4713L109.876 98.5279C110.057 98.5392 110.295 98.5505 110.477 98.5505L110.942 98.5279C111.112 98.5052 111.333 98.4826 111.498 98.4543L111.951 98.3581C112.105 98.3128 112.309 98.2562 112.462 98.2109L112.893 98.0468C113.029 97.9845 113.216 97.9053 113.352 97.8374L113.755 97.6167C113.88 97.5374 114.044 97.4356 114.163 97.3507L114.532 97.0734C114.64 96.9771 114.787 96.8583 114.895 96.7621L115.23 96.4338C115.326 96.3263 115.457 96.1848 115.547 96.0773L115.842 95.6981L115.91 95.6075L115.803 95.7716Z" fill="#BC773E"/>
<path d="M112.564 90.3267C112.621 90.3947 112.74 90.4343 112.819 90.4682C113.33 90.6833 113.903 90.7342 114.373 91.0682C114.493 91.153 114.85 91.4077 115.139 91.8661C115.326 92.1604 115.587 92.5057 115.587 92.5113C115.644 92.551 115.74 92.5623 115.808 92.5736C116.109 92.6359 116.722 91.5832 116.778 91.1927C116.977 89.891 114.748 87.4177 112.978 88.8156C112.723 89.0194 112.122 89.7834 112.564 90.3267Z" fill="#FB9F53"/>
<path d="M114.258 86.2773C115.778 87.2791 116.714 88.5865 117.043 90.1598C117.587 92.7859 116.566 94.5404 116.129 95.2931C116.141 95.2818 115.92 95.1233 115.455 94.812C117.417 91.6823 116.878 87.862 114.258 86.2773Z" fill="#BC773E"/>
<path d="M107.271 97.6878C107.124 97.5972 106.931 97.467 106.789 97.3652C106.908 97.4501 107.027 97.535 107.158 97.6142C109.778 99.1989 113.493 97.9481 115.456 94.8184C115.921 95.1296 116.142 95.2824 116.13 95.2994C113.697 98.9102 109.75 99.2272 107.271 97.6878Z" fill="#BC773E"/>
<path d="M114.167 86.2259L92.3816 73.7126C90.4191 72.5863 87.674 73.5315 86.222 75.8519C84.8325 78.0705 85.116 80.7475 86.8006 82.0435L106.731 97.3244C104.479 95.5982 104.111 92.0327 105.954 89.0784C107.9 85.9826 111.552 84.7205 114.167 86.2259Z" fill="#BC773E"/>
<path d="M115.452 94.8136L93.3488 80.1553C94.8178 77.8065 94.4151 74.9371 92.447 73.7486C92.4243 73.7373 92.4016 73.7203 92.3789 73.709L114.164 86.2223C114.193 86.2393 114.227 86.2563 114.255 86.2733C116.875 87.8636 117.414 91.6838 115.452 94.8136Z" fill="#BC773E"/>
<path d="M106.735 97.3179L86.8047 82.037C86.9068 82.1162 87.0145 82.1898 87.1223 82.2521C89.0904 83.4406 91.8809 82.5011 93.3499 80.1523L115.453 94.8107C113.496 97.9404 109.781 99.1912 107.155 97.6065C107.013 97.5216 106.871 97.4198 106.735 97.3179Z" fill="#BC773E"/>
<path d="M92.5779 73.8316L85.0855 68.8398C85.0401 68.8116 85.0004 68.7833 84.955 68.755C82.9869 67.5664 80.1964 68.5059 78.7274 70.8547C77.2925 73.1525 77.6441 75.9426 79.4988 77.1764L86.9912 82.1682C85.1365 80.9344 84.7849 78.1386 86.2198 75.8464C87.6888 73.4977 90.4793 72.5582 92.4474 73.7467C92.4928 73.775 92.5382 73.8033 92.5779 73.8316Z" fill="#BC773E"/>
<path d="M93.3536 80.1612L85.8612 75.1694C87.2962 72.8716 86.9445 70.0814 85.0898 68.8477L92.5822 73.8394C94.4369 75.0732 94.7885 77.8634 93.3536 80.1612Z" fill="#BC773E"/>
<path d="M85.8573 75.1675C84.3883 77.5162 81.5978 78.4557 79.6297 77.2672C77.6616 76.0787 77.2589 73.2093 78.7279 70.8605C80.1969 68.5118 82.9874 67.5723 84.9555 68.7608C86.9236 69.9493 87.3263 72.8187 85.8573 75.1675Z" fill="#BC773E"/>
<path d="M86.9924 82.1726L79.5 77.1808C79.5454 77.2091 79.5851 77.2374 79.6305 77.2657C81.5986 78.4542 84.3891 77.5147 85.8581 75.166L93.3505 80.1578C91.8815 82.5065 89.091 83.446 87.1229 82.2575C87.0775 82.2292 87.0378 82.2009 86.9924 82.1726Z" fill="#BC773E"/>
<path d="M85.6008 71.5312C85.0428 72.9066 84.9382 73.3842 83.8164 74.2244C90.3903 78.4252 114.901 94.2561 114.901 94.2561C114.901 94.2561 116.343 91.6723 115.837 89.802C115.163 88.208 85.6008 71.5312 85.6008 71.5312Z" fill="#DB8B49"/>
<path d="M105.456 86.4199C105.456 86.4199 105.061 86.8721 105.232 87.2269C105.403 87.5818 106.367 88.6464 106.367 88.6464L106.062 89.3503L105.461 89.8826L101.778 90.4321L101.931 90.7984L105.038 91.4051L101.055 92.275L101.79 93.2366C101.79 93.2366 101.931 93.8833 102.025 93.952C102.125 94.0264 104.614 94.3183 104.614 94.3183C104.614 94.3183 102.584 94.3012 103.202 94.7991C103.82 95.2913 105.72 94.8907 106.703 94.7991C107.685 94.7075 109.68 93.0706 109.68 93.0706C109.68 93.0706 117.152 93.2023 117.417 92.6757C117.681 92.1549 117.317 89.7109 117.175 89.6022C117.028 89.4934 109.686 88.7379 109.686 88.7379L105.456 86.4199Z" fill="#965724"/>
<path d="M81.156 40.0161L72.8809 35.2168C76.5448 37.3448 78.8192 41.8668 78.8362 48.2904C78.8703 61.2226 69.7614 76.9732 58.4803 83.4761C52.8028 86.7473 47.6586 87.0473 43.9492 84.8967L52.2243 89.696C55.9393 91.8523 61.0836 91.5467 66.7554 88.2754C78.0365 81.7782 87.151 66.0219 87.1113 53.0898C87.0943 46.6605 84.8199 42.1385 81.156 40.0161Z" fill="#46426E"/>
<path opacity="0.64" d="M64.2774 86.8422C75.5585 80.345 84.673 64.5887 84.6333 51.6566C84.5993 38.7244 75.4224 33.5063 64.1412 40.0035C52.8601 46.5007 43.7456 62.257 43.7853 75.1891C43.825 88.127 53.0019 93.3394 64.2774 86.8422Z" fill="#6792D1"/>
<path opacity="0.64" d="M77.0194 37.8242C79.8326 40.2182 81.5285 44.3384 81.5455 49.8735C81.5795 62.8056 72.465 78.5563 61.1895 85.0591C56.3175 87.8663 51.8368 88.4832 48.3203 87.2381C52.0807 90.4357 57.8375 90.5546 64.2863 86.8419C75.5675 80.3447 84.682 64.5884 84.6423 51.6563C84.6196 44.3101 81.6476 39.4598 77.0194 37.8242Z" fill="#85A9D4"/>
<path d="M66.6129 38.0017C79.5445 30.548 90.0657 36.5302 90.1054 51.364C90.1451 66.1921 79.6977 84.2519 66.766 91.7055C53.8344 99.1592 43.3133 93.177 43.2736 78.3489C43.2282 63.5151 53.6756 45.4554 66.6129 38.0017ZM66.7547 88.2702C78.0359 81.773 87.1504 66.0167 87.1107 53.0845C87.0767 40.1523 77.8997 34.9342 66.6186 41.4314C55.3374 47.9286 46.2229 63.6849 46.2626 76.6171C46.3023 89.5549 55.4736 94.773 66.7547 88.2702Z" fill="#4B476E"/>
<path d="M75.0031 31.5766C70.7436 29.109 64.8506 29.4542 58.3394 33.2065C45.4078 40.6602 34.9548 58.72 35.0001 73.5481C35.0228 80.9112 37.6262 86.0954 41.8289 88.5347L50.104 93.334C45.9013 90.8948 43.2923 85.7162 43.2752 78.3474C43.2355 63.5193 53.6829 45.4539 66.6145 38.0059C73.12 34.2592 79.0187 33.9083 83.2782 36.3759L75.0031 31.5766Z" fill="#44416E"/>
<path opacity="0.64" d="M69.0396 54.8913C72.034 51.4379 72.5393 46.9789 70.1682 44.9317C67.7971 42.8845 63.4475 44.0244 60.4531 47.4777C57.4587 50.931 56.9534 55.3901 59.3245 57.4372C61.6956 59.4844 66.0452 58.3446 69.0396 54.8913Z" fill="#A6B1C7"/>
<path d="M109.979 88.0492C109.758 88.0265 109.417 87.8794 109.196 88.5132C108.975 89.1471 108.708 92.2316 109.786 92.4806C110.864 92.724 124.402 91.6486 127.079 88.5415C127.249 86.2664 123.427 84.478 121.634 85.1175C119.842 85.7514 114.766 87.4436 113.246 87.7096C111.72 87.9756 109.979 88.0492 109.979 88.0492Z" fill="#FCFDFE"/>
<path d="M131.294 71.5846C130.625 70.464 127.857 71.1827 126.462 74.2446C125.066 77.3064 122.242 84.6412 122.049 85.0091C121.851 85.377 124.647 91.3026 127.08 88.535C129.507 85.7675 132.082 78.6024 132.094 76.0047C132.099 73.4126 131.589 72.0826 131.294 71.5846Z" fill="#FCFDFE"/>
<path d="M106.172 87.5626C106.172 87.5626 105.56 87.1212 105.509 86.6571C105.458 86.193 105.827 85.9723 105.997 86.0968C106.167 86.2213 106.632 86.725 106.808 86.8156C106.978 86.9061 107.936 87.5683 108.18 87.5683C108.424 87.5683 109.213 88.106 109.576 88.5983C109.944 89.0851 109.995 91.513 109.819 91.8753C109.649 92.2431 109.451 92.2941 109.451 92.2941C109.451 92.2941 106.411 94.3202 106.337 94.3202C106.263 94.3202 105.101 94.6768 105.101 94.6768C105.101 94.6768 103.592 94.8975 103.41 94.7503C103.229 94.6032 103.263 94.2862 103.592 94.2013C103.921 94.1165 104.879 93.9919 104.879 93.9919L106.116 93.0525L104.913 93.5675C104.913 93.5675 102.009 93.6014 101.907 93.4939C101.811 93.3864 101.612 92.7864 102.202 92.8091C102.792 92.8317 104.545 92.6846 104.545 92.6846C104.545 92.6846 105.6 92.2318 105.634 92.1978C105.668 92.1639 103.671 92.3563 103.671 92.3563C103.671 92.3563 101.465 92.345 101.329 92.2601C101.193 92.1752 101.193 91.5357 101.658 91.5244C102.123 91.513 104.528 91.3546 104.528 91.3546C104.528 91.3546 105.668 91.0716 105.741 90.9641C105.815 90.8565 105.458 90.6584 105.458 90.6584C105.458 90.6584 102.208 90.5905 102.026 90.4434C101.845 90.2962 101.89 89.7416 102.406 89.7076C102.923 89.6737 106.479 89.5718 106.7 89.436C106.921 89.3001 107.057 88.7851 107.103 88.6266C107.148 88.4682 107.006 88.1116 106.944 88.038C106.898 87.9532 106.172 87.5626 106.172 87.5626Z" fill="#FFDBA7"/>
<path d="M125.214 66.5364C125.214 66.5364 124.535 67.8019 123.117 68.6496C121.699 69.4973 120.48 69.3421 120.48 69.3421L119.843 68.8048L119.741 67.8616C119.741 67.8616 119.522 68.0407 119.415 68.6675C119.314 69.2943 119.078 70.0942 119.078 70.4524C119.078 70.8106 119.72 71.1807 119.72 71.1807L120.244 70.3151C120.244 70.3151 120.902 71.4852 121.02 71.5269C121.138 71.5687 122.748 71.3777 124.497 70.3151C126.247 69.2525 126.166 67.8019 126.107 67.6288C126.049 67.4557 125.391 66.1663 125.391 66.1663L124.979 66.0469L125.214 66.5364Z" fill="#FCFDFE"/>
</svg>
