<svg width="170" height="170" viewBox="0 0 170 170" fill="none" xmlns="http://www.w3.org/2000/svg">
<path d="M103.725 78.8938V66.7137L86.7723 56.7783V44.5983L69.8164 34.666V95.5602L86.7723 105.496L103.725 115.431L120.681 125.366V88.8292L103.725 78.8938Z" fill="#F78933"/>
<path opacity="0.3" d="M103.723 78.8945V91.0715L120.679 101.007V88.8299L103.723 78.8945Z" fill="white"/>
<path d="M120.678 88.8299V101.007L103.722 110.942V123.122L86.7695 133.058V145.235L103.722 135.302L120.678 125.367L137.631 115.432V78.8945L120.678 88.8299Z" fill="#F78933"/>
<path opacity="0.1" d="M120.678 88.8299V101.007L103.722 110.942V123.122L86.7695 133.058V145.235L103.722 135.302L120.678 125.367L137.631 115.432V78.8945L120.678 88.8299Z" fill="white"/>
<path d="M86.7723 44.5981L69.8164 34.6659L86.7723 24.7305L103.725 34.6659L86.7723 44.5981Z" fill="#F78933"/>
<path opacity="0.7" d="M86.7723 44.5981L69.8164 34.6659L86.7723 24.7305L103.725 34.6659L86.7723 44.5981Z" fill="white"/>
<path d="M86.7695 56.7784V44.5983L103.722 34.666V46.843L86.7695 56.7784Z" fill="#F78933"/>
<path opacity="0.1" d="M86.7695 56.7784V44.5983L103.722 34.666V46.843L86.7695 56.7784Z" fill="#141320"/>
<path d="M103.722 66.7126L86.7695 56.7772L103.722 46.8418L120.678 56.7772L103.722 66.7126Z" fill="#F78933"/>
<path d="M103.723 78.8948V66.7147L120.679 56.7793V68.9594L103.723 78.8948Z" fill="#F78933"/>
<path opacity="0.7" d="M103.722 66.7126L86.7695 56.7772L103.722 46.8418L120.678 56.7772L103.722 66.7126Z" fill="white"/>
<path opacity="0.1" d="M103.723 78.8948V66.7147L120.679 56.7793V68.9594L103.723 78.8948Z" fill="#141320"/>
<path d="M120.679 88.8298L103.723 78.8944L120.679 68.959L137.631 78.8944L120.679 88.8298Z" fill="#F78933"/>
<g opacity="0.7">
<path opacity="0.7" d="M120.679 88.8298L103.723 78.8944L120.679 68.959L137.631 78.8944L120.679 88.8298Z" fill="white"/>
</g>
<path d="M103.722 110.943L120.678 101.008L103.722 91.0723L86.7695 101.008L103.722 110.943Z" fill="#F78933"/>
<path opacity="0.7" d="M103.722 110.943L120.678 101.008L103.722 91.0723L86.7695 101.008L103.722 110.943Z" fill="white"/>
<path d="M103.722 123.123V110.943L86.7695 101.008V113.188L103.722 123.123Z" fill="#F78933"/>
<path opacity="0.3" d="M103.722 123.123V110.943L86.7695 101.008V113.188L103.722 123.123Z" fill="white"/>
<path d="M86.7723 133.056L103.725 123.121L86.7723 113.186L69.8164 123.121L86.7723 133.056Z" fill="#F78933"/>
<path d="M86.7723 145.231V133.055L69.8164 123.119V135.299L86.7723 145.231Z" fill="#F78933"/>
<path opacity="0.7" d="M86.7723 133.056L103.725 123.121L86.7723 113.186L69.8164 123.121L86.7723 133.056Z" fill="white"/>
<path opacity="0.3" d="M86.7723 145.233V133.057L69.8164 123.121V135.301L86.7723 145.233Z" fill="white"/>
<path d="M100.445 121.199L83.4892 131.138L73.0938 125.045L90.0465 115.109L100.445 121.199Z" fill="#F78933"/>
<path opacity="0.4" d="M100.445 121.199L83.4892 131.138L73.0938 125.045L90.0465 115.109L100.445 121.199Z" fill="white"/>
<path d="M83.4884 131.138V143.315L73.0898 137.222V125.045H73.093L83.4884 131.138Z" fill="#F78933"/>
<path d="M117.398 99.0873L100.445 109.023L90.0469 102.93L107.003 92.9941L117.398 99.0873Z" fill="#F78933"/>
<path opacity="0.4" d="M117.398 99.0873L100.445 109.023L90.0469 102.93L107.003 92.9941L117.398 99.0873Z" fill="white"/>
<path d="M100.449 109.023V121.2L90.0469 115.11V102.93H90.05L100.449 109.023Z" fill="#F78933"/>
<path d="M117.399 86.9064V99.0865L107 92.9933V80.8164H107.003L117.399 86.9064Z" fill="#F78933"/>
<path d="M117.399 86.9064V99.0865L107 92.9933V80.8164H107.003L117.399 86.9064Z" fill="#F78933"/>
<path d="M90.0469 54.8588L107.003 64.7942L117.398 58.701L100.445 48.7656L90.0469 54.8588Z" fill="#F78933"/>
<path opacity="0.5" d="M90.0469 54.8588L107.003 64.7942L117.398 58.701L100.445 48.7656L90.0469 54.8588Z" fill="white"/>
<path d="M107 64.7944V76.9713L117.399 70.8781V58.7012H117.395L107 64.7944Z" fill="#F78933"/>
<path opacity="0.3" d="M107 64.7944V76.9713L117.399 70.8781V58.7012H117.395L107 64.7944Z" fill="#141320"/>
<path d="M73.0898 32.7436L90.0426 42.679L100.441 36.5889L83.4853 26.6504L73.0898 32.7436Z" fill="#F78933"/>
<path opacity="0.5" d="M73.0898 32.7436L90.0426 42.679L100.441 36.5889L83.4853 26.6504L73.0898 32.7436Z" fill="white"/>
<path d="M90.0469 42.6799V54.86L100.449 48.7668V36.5898H100.445L90.0469 42.6799Z" fill="#F78933"/>
<path opacity="0.3" d="M90.0469 42.6799V54.86L100.449 48.7668V36.5898H100.445L90.0469 42.6799Z" fill="#141320"/>
<path d="M120.677 72.7996L117.395 70.877L107 76.9702L110.279 78.8928L107.003 80.8124L117.399 86.9056L120.677 84.986L131.073 78.8928L120.677 72.7996Z" fill="#F78933"/>
<path opacity="0.4" d="M120.677 72.7996L117.395 70.877L107 76.9702L110.279 78.8928L107.003 80.8124L117.399 86.9056L120.677 84.986L131.073 78.8928L120.677 72.7996Z" fill="white"/>
<path d="M80.02 30.8619C79.9949 30.8619 79.9697 30.8556 79.9446 30.8429L79.3096 30.4704C79.2373 30.4294 79.2121 30.3346 79.2561 30.262C79.297 30.1894 79.3913 30.1642 79.4605 30.2052L80.0955 30.5777C80.1678 30.6188 80.1929 30.7135 80.1489 30.7861C80.1206 30.8335 80.0703 30.8619 80.02 30.8619Z" fill="#F78933"/>
<path d="M92.4704 38.1577C92.4453 38.1577 92.4201 38.1514 92.395 38.1387L91.1502 37.4095C91.0779 37.3684 91.0527 37.2737 91.0967 37.2011C91.1376 37.1285 91.2319 37.1032 91.3011 37.1443L92.5459 37.8735C92.6182 37.9146 92.6433 38.0093 92.5993 38.0819C92.571 38.1324 92.5207 38.1577 92.4704 38.1577ZM89.9777 36.6991C89.9525 36.6991 89.9274 36.6928 89.9022 36.6802L88.6574 35.9509C88.5851 35.9098 88.5599 35.8151 88.604 35.7425C88.6448 35.6699 88.7391 35.6446 88.8083 35.6857L90.0531 36.415C90.1254 36.456 90.1505 36.5507 90.1065 36.6233C90.0814 36.6707 90.0311 36.6991 89.9777 36.6991ZM87.488 35.2405C87.4629 35.2405 87.4377 35.2342 87.4126 35.2216L86.1678 34.4923C86.0955 34.4512 86.0703 34.3565 86.1143 34.2839C86.1552 34.2113 86.2495 34.186 86.3186 34.2271L87.5635 34.9564C87.6358 34.9974 87.6609 35.0921 87.6169 35.1648C87.5918 35.2121 87.5415 35.2405 87.488 35.2405ZM84.9984 33.7788C84.9732 33.7788 84.9481 33.7725 84.9229 33.7598L83.6781 33.0305C83.6058 32.9895 83.5807 32.8948 83.6247 32.8222C83.6656 32.7496 83.7567 32.7243 83.829 32.7653L85.0738 33.4946C85.1461 33.5357 85.1713 33.6304 85.1273 33.703C85.1021 33.7535 85.0518 33.7788 84.9984 33.7788ZM82.5088 32.3202C82.4836 32.3202 82.4585 32.3139 82.4333 32.3013L81.1885 31.572C81.1162 31.5309 81.091 31.4362 81.1351 31.3636C81.1759 31.291 81.2702 31.2657 81.3394 31.3068L82.5842 32.0361C82.6565 32.0771 82.6816 32.1718 82.6376 32.2444C82.6093 32.2949 82.5591 32.3202 82.5088 32.3202Z" fill="#F78933"/>
<path d="M94.352 39.2584C94.3269 39.2584 94.3017 39.252 94.2766 39.2394L93.6416 38.8669C93.5693 38.8258 93.5442 38.7311 93.5882 38.6585C93.629 38.5859 93.7233 38.5606 93.7925 38.6017L94.4275 38.9742C94.4998 39.0153 94.5249 39.11 94.4809 39.1826C94.4526 39.2331 94.4023 39.2584 94.352 39.2584Z" fill="#F78933"/>
<g opacity="0.3">
<path opacity="0.3" d="M80.02 30.8619C79.9949 30.8619 79.9697 30.8556 79.9446 30.8429L79.3096 30.4704C79.2373 30.4294 79.2121 30.3346 79.2561 30.262C79.297 30.1894 79.3913 30.1642 79.4605 30.2052L80.0955 30.5777C80.1678 30.6188 80.1929 30.7135 80.1489 30.7861C80.1206 30.8335 80.0703 30.8619 80.02 30.8619Z" fill="#141320"/>
<path opacity="0.3" d="M92.4704 38.1577C92.4453 38.1577 92.4201 38.1514 92.395 38.1387L91.1502 37.4095C91.0779 37.3684 91.0527 37.2737 91.0967 37.2011C91.1376 37.1285 91.2319 37.1032 91.3011 37.1443L92.5459 37.8735C92.6182 37.9146 92.6433 38.0093 92.5993 38.0819C92.571 38.1324 92.5207 38.1577 92.4704 38.1577ZM89.9777 36.6991C89.9525 36.6991 89.9274 36.6928 89.9022 36.6802L88.6574 35.9509C88.5851 35.9098 88.5599 35.8151 88.604 35.7425C88.6448 35.6699 88.7391 35.6446 88.8083 35.6857L90.0531 36.415C90.1254 36.456 90.1505 36.5507 90.1065 36.6233C90.0814 36.6707 90.0311 36.6991 89.9777 36.6991ZM87.488 35.2405C87.4629 35.2405 87.4377 35.2342 87.4126 35.2216L86.1678 34.4923C86.0955 34.4512 86.0703 34.3565 86.1143 34.2839C86.1552 34.2113 86.2495 34.186 86.3186 34.2271L87.5635 34.9564C87.6358 34.9974 87.6609 35.0921 87.6169 35.1648C87.5918 35.2121 87.5415 35.2405 87.488 35.2405ZM84.9984 33.7788C84.9732 33.7788 84.9481 33.7725 84.9229 33.7598L83.6781 33.0305C83.6058 32.9895 83.5807 32.8948 83.6247 32.8222C83.6656 32.7496 83.7567 32.7243 83.829 32.7653L85.0738 33.4946C85.1461 33.5357 85.1713 33.6304 85.1273 33.703C85.1021 33.7535 85.0518 33.7788 84.9984 33.7788ZM82.5088 32.3202C82.4836 32.3202 82.4585 32.3139 82.4333 32.3013L81.1885 31.572C81.1162 31.5309 81.091 31.4362 81.1351 31.3636C81.1759 31.291 81.2702 31.2657 81.3394 31.3068L82.5842 32.0361C82.6565 32.0771 82.6816 32.1718 82.6376 32.2444C82.6093 32.2949 82.5591 32.3202 82.5088 32.3202Z" fill="#141320"/>
<path opacity="0.3" d="M94.352 39.2584C94.3269 39.2584 94.3017 39.252 94.2766 39.2394L93.6416 38.8669C93.5693 38.8258 93.5442 38.7311 93.5882 38.6585C93.629 38.5859 93.7233 38.5606 93.7925 38.6017L94.4275 38.9742C94.4998 39.0153 94.5249 39.11 94.4809 39.1826C94.4526 39.2331 94.4023 39.2584 94.352 39.2584Z" fill="#141320"/>
</g>
<path d="M96.8833 52.9205C96.8581 52.9205 96.833 52.9142 96.8079 52.9015L96.1729 52.529C96.1006 52.488 96.0754 52.3932 96.1194 52.3206C96.1603 52.248 96.2546 52.2228 96.3238 52.2638L96.9587 52.6363C97.031 52.6774 97.0562 52.7721 97.0122 52.8447C96.9839 52.8952 96.9336 52.9205 96.8833 52.9205Z" fill="#F78933"/>
<path d="M109.346 60.2245C109.321 60.2245 109.296 60.2182 109.271 60.2056L108.023 59.4763C107.951 59.4353 107.925 59.3405 107.969 59.2679C108.01 59.1953 108.105 59.1701 108.174 59.2111L109.422 59.9404C109.494 59.9814 109.519 60.0761 109.475 60.1488C109.45 60.1993 109.397 60.2245 109.346 60.2245ZM106.853 58.766C106.828 58.766 106.803 58.7596 106.778 58.747L105.53 58.0177C105.458 57.9767 105.433 57.882 105.477 57.8094C105.518 57.7367 105.612 57.7115 105.681 57.7525L106.929 58.4818C107.001 58.5229 107.026 58.6176 106.982 58.6902C106.954 58.7375 106.904 58.766 106.853 58.766ZM104.361 57.3042C104.336 57.3042 104.31 57.2979 104.285 57.2853L103.037 56.556C102.965 56.5149 102.94 56.4202 102.984 56.3476C103.025 56.275 103.116 56.2497 103.188 56.2908L104.436 57.0201C104.508 57.0611 104.534 57.1558 104.49 57.2284C104.461 57.2758 104.411 57.3042 104.361 57.3042ZM101.868 55.8425C101.843 55.8425 101.818 55.8362 101.793 55.8235L100.545 55.0942C100.472 55.0532 100.447 54.9585 100.491 54.8859C100.532 54.8133 100.623 54.788 100.695 54.8291L101.943 55.5583C102.016 55.5994 102.041 55.6941 101.997 55.7667C101.969 55.8141 101.918 55.8425 101.868 55.8425ZM99.3752 54.3807C99.35 54.3807 99.3249 54.3744 99.2997 54.3618L98.0518 53.6325C97.9795 53.5915 97.9543 53.4968 97.9983 53.4241C98.0392 53.3515 98.1335 53.3263 98.2027 53.3673L99.4506 54.0966C99.5229 54.1376 99.5481 54.2324 99.5041 54.305C99.4758 54.3555 99.4255 54.3807 99.3752 54.3807Z" fill="#F78933"/>
<path d="M111.227 61.3306C111.202 61.3306 111.177 61.3243 111.152 61.3117L110.517 60.9391C110.444 60.8981 110.419 60.8034 110.463 60.7308C110.504 60.6582 110.595 60.6329 110.668 60.674L111.302 61.0465C111.375 61.0875 111.4 61.1822 111.356 61.2549C111.331 61.3022 111.28 61.3306 111.227 61.3306Z" fill="#F78933"/>
<g opacity="0.3">
<path opacity="0.3" d="M96.8833 52.9205C96.8581 52.9205 96.833 52.9142 96.8079 52.9015L96.1729 52.529C96.1006 52.488 96.0754 52.3932 96.1194 52.3206C96.1603 52.248 96.2546 52.2228 96.3238 52.2638L96.9587 52.6363C97.031 52.6774 97.0562 52.7721 97.0122 52.8447C96.9839 52.8952 96.9336 52.9205 96.8833 52.9205Z" fill="#141320"/>
<path opacity="0.3" d="M109.346 60.2245C109.321 60.2245 109.296 60.2182 109.271 60.2056L108.023 59.4763C107.951 59.4353 107.925 59.3405 107.969 59.2679C108.01 59.1953 108.105 59.1701 108.174 59.2111L109.422 59.9404C109.494 59.9814 109.519 60.0761 109.475 60.1488C109.45 60.1993 109.397 60.2245 109.346 60.2245ZM106.853 58.766C106.828 58.766 106.803 58.7596 106.778 58.747L105.53 58.0177C105.458 57.9767 105.433 57.882 105.477 57.8094C105.518 57.7367 105.612 57.7115 105.681 57.7525L106.929 58.4818C107.001 58.5229 107.026 58.6176 106.982 58.6902C106.954 58.7375 106.904 58.766 106.853 58.766ZM104.361 57.3042C104.336 57.3042 104.31 57.2979 104.285 57.2853L103.037 56.556C102.965 56.5149 102.94 56.4202 102.984 56.3476C103.025 56.275 103.116 56.2497 103.188 56.2908L104.436 57.0201C104.508 57.0611 104.534 57.1558 104.49 57.2284C104.461 57.2758 104.411 57.3042 104.361 57.3042ZM101.868 55.8425C101.843 55.8425 101.818 55.8362 101.793 55.8235L100.545 55.0942C100.472 55.0532 100.447 54.9585 100.491 54.8859C100.532 54.8133 100.623 54.788 100.695 54.8291L101.943 55.5583C102.016 55.5994 102.041 55.6941 101.997 55.7667C101.969 55.8141 101.918 55.8425 101.868 55.8425ZM99.3752 54.3807C99.35 54.3807 99.3249 54.3744 99.2997 54.3618L98.0518 53.6325C97.9795 53.5915 97.9543 53.4968 97.9983 53.4241C98.0392 53.3515 98.1335 53.3263 98.2027 53.3673L99.4506 54.0966C99.5229 54.1376 99.5481 54.2324 99.5041 54.305C99.4758 54.3555 99.4255 54.3807 99.3752 54.3807Z" fill="#141320"/>
<path opacity="0.3" d="M111.227 61.3306C111.202 61.3306 111.177 61.3243 111.152 61.3117L110.517 60.9391C110.444 60.8981 110.419 60.8034 110.463 60.7308C110.504 60.6582 110.595 60.6329 110.668 60.674L111.302 61.0465C111.375 61.0875 111.4 61.1822 111.356 61.2549C111.331 61.3022 111.28 61.3306 111.227 61.3306Z" fill="#141320"/>
</g>
<path d="M112.203 84.0123C112.153 84.0123 112.1 83.9839 112.074 83.9365C112.034 83.8639 112.059 83.7692 112.128 83.7281L112.763 83.3556C112.835 83.3146 112.926 83.3398 112.967 83.4124C113.008 83.485 112.983 83.5798 112.914 83.6208L112.279 83.9933C112.254 84.006 112.228 84.0123 112.203 84.0123Z" fill="#F78933"/>
<path d="M114.277 82.7935C114.227 82.7935 114.174 82.7651 114.149 82.7177C114.108 82.6451 114.133 82.5504 114.202 82.5094L115.642 81.6633C115.714 81.6222 115.805 81.6443 115.846 81.7201C115.887 81.7927 115.862 81.8874 115.793 81.9285L114.353 82.7746C114.331 82.7872 114.306 82.7935 114.277 82.7935ZM117.16 81.1045C117.11 81.1045 117.056 81.076 117.031 81.0287C116.99 80.9561 117.015 80.8614 117.085 80.8203L118.524 79.9774C118.597 79.9363 118.688 79.9584 118.729 80.0342C118.77 80.1068 118.744 80.2015 118.675 80.2426L117.236 81.0855C117.213 81.0981 117.185 81.1045 117.16 81.1045Z" fill="#F78933"/>
<path d="M120.045 79.4161C119.995 79.4161 119.941 79.3876 119.916 79.3403C119.875 79.2677 119.901 79.173 119.97 79.1319L120.378 78.892L119.97 78.652C119.897 78.611 119.872 78.5163 119.916 78.4437C119.957 78.3711 120.048 78.3458 120.121 78.3868L120.756 78.7594C120.815 78.7941 120.844 78.8636 120.825 78.9299C120.812 78.9804 120.774 79.0183 120.73 79.0341L120.117 79.394C120.095 79.4097 120.07 79.4161 120.045 79.4161Z" fill="#F78933"/>
<path d="M118.791 77.9399C118.766 77.9399 118.74 77.9335 118.715 77.9209L117.464 77.1885C117.392 77.1474 117.367 77.0527 117.411 76.9801C117.452 76.9075 117.543 76.8822 117.615 76.9233L118.866 77.6557C118.938 77.6968 118.964 77.7915 118.92 77.8641C118.894 77.9114 118.844 77.9399 118.791 77.9399ZM116.288 76.4718C116.263 76.4718 116.238 76.4655 116.213 76.4529L114.962 75.7204C114.89 75.6794 114.864 75.5846 114.908 75.512C114.949 75.4394 115.041 75.4142 115.113 75.4552L116.364 76.1877C116.436 76.2287 116.461 76.3234 116.417 76.396C116.392 76.4465 116.339 76.4718 116.288 76.4718Z" fill="#F78933"/>
<path d="M113.79 75.0084C113.764 75.0084 113.739 75.002 113.714 74.9894L113.079 74.6169C113.007 74.5758 112.982 74.4811 113.026 74.4085C113.067 74.3359 113.158 74.3106 113.23 74.3517L113.865 74.7242C113.937 74.7653 113.962 74.86 113.918 74.9326C113.89 74.98 113.84 75.0084 113.79 75.0084Z" fill="#F78933"/>
<path d="M111.563 96.5617C111.512 96.5617 111.459 96.5333 111.434 96.486C111.393 96.4134 111.418 96.3187 111.487 96.2776L112.122 95.9051C112.194 95.8641 112.286 95.8862 112.326 95.9619C112.367 96.0345 112.342 96.1293 112.273 96.1703L111.638 96.5428C111.613 96.5554 111.588 96.5617 111.563 96.5617Z" fill="#F78933"/>
<path d="M97.09 105.045C97.0397 105.045 96.9862 105.017 96.9611 104.97C96.9202 104.897 96.9454 104.802 97.0145 104.761L98.2216 104.054C98.2939 104.013 98.3851 104.035 98.4259 104.111C98.4668 104.183 98.4417 104.278 98.3725 104.319L97.1654 105.026C97.1403 105.039 97.1151 105.045 97.09 105.045ZM99.501 103.631C99.4507 103.631 99.3973 103.602 99.3721 103.555C99.3313 103.483 99.3564 103.388 99.4256 103.347L100.633 102.64C100.705 102.599 100.796 102.621 100.837 102.696C100.878 102.769 100.853 102.864 100.784 102.905L99.5765 103.612C99.5513 103.625 99.5262 103.631 99.501 103.631ZM101.912 102.217C101.862 102.217 101.808 102.188 101.783 102.141C101.742 102.068 101.767 101.973 101.837 101.932L103.044 101.225C103.116 101.184 103.207 101.206 103.248 101.282C103.289 101.355 103.264 101.449 103.195 101.49L101.987 102.198C101.965 102.21 101.94 102.217 101.912 102.217ZM104.326 100.802C104.276 100.802 104.223 100.774 104.197 100.726C104.156 100.654 104.182 100.559 104.251 100.518L105.458 99.8108C105.53 99.7698 105.621 99.7919 105.662 99.8676C105.703 99.9402 105.678 100.035 105.609 100.076L104.402 100.783C104.377 100.796 104.351 100.802 104.326 100.802ZM106.737 99.3909C106.687 99.3909 106.634 99.3625 106.608 99.3151C106.568 99.2425 106.593 99.1478 106.662 99.1068L107.869 98.3996C107.941 98.3585 108.032 98.3806 108.073 98.4564C108.114 98.529 108.089 98.6237 108.02 98.6648L106.813 99.372C106.791 99.3814 106.762 99.3909 106.737 99.3909ZM109.151 97.9765C109.101 97.9765 109.048 97.9481 109.023 97.9008C108.982 97.8281 109.007 97.7334 109.076 97.6924L110.283 96.9852C110.355 96.9441 110.447 96.9662 110.487 97.042C110.528 97.1146 110.503 97.2093 110.434 97.2504L109.227 97.9576C109.202 97.9702 109.177 97.9765 109.151 97.9765Z" fill="#F78933"/>
<path d="M95.2501 106.124C95.1998 106.124 95.1464 106.096 95.1212 106.049C95.0804 105.976 95.1055 105.881 95.1747 105.84L95.8097 105.468C95.882 105.427 95.9731 105.449 96.014 105.524C96.0548 105.597 96.0297 105.692 95.9605 105.733L95.3256 106.105C95.3004 106.118 95.2753 106.124 95.2501 106.124Z" fill="#F78933"/>
<path d="M94.6134 118.674C94.5631 118.674 94.5097 118.646 94.4845 118.599C94.4437 118.526 94.4688 118.431 94.538 118.39L95.173 118.018C95.2453 117.977 95.3364 118.002 95.3773 118.075C95.4182 118.147 95.393 118.242 95.3239 118.283L94.6889 118.655C94.6637 118.668 94.6386 118.674 94.6134 118.674Z" fill="#F78933"/>
<path d="M80.1407 127.157C80.0905 127.157 80.037 127.128 80.0119 127.081C79.971 127.008 79.9962 126.914 80.0653 126.872L81.2724 126.165C81.3447 126.124 81.4359 126.149 81.4767 126.222C81.5176 126.295 81.4924 126.389 81.4233 126.43L80.2162 127.138C80.191 127.15 80.1659 127.157 80.1407 127.157ZM82.5518 125.742C82.5015 125.742 82.4481 125.714 82.4229 125.666C82.382 125.594 82.4072 125.499 82.4764 125.458L83.6834 124.751C83.7557 124.71 83.8469 124.732 83.8878 124.808C83.9286 124.88 83.9035 124.975 83.8343 125.016L82.6272 125.723C82.6021 125.736 82.5769 125.742 82.5518 125.742ZM84.9628 124.328C84.9125 124.328 84.8591 124.299 84.834 124.252C84.7931 124.179 84.8182 124.085 84.8874 124.044L86.0945 123.337C86.1668 123.295 86.2579 123.318 86.2988 123.393C86.3397 123.466 86.3145 123.561 86.2454 123.602L85.0383 124.309C85.0163 124.322 84.988 124.328 84.9628 124.328ZM87.377 122.913C87.3267 122.913 87.2733 122.885 87.2481 122.838C87.2073 122.765 87.2324 122.67 87.3016 122.629L88.5087 121.922C88.581 121.881 88.6721 121.903 88.713 121.979C88.7539 122.052 88.7287 122.146 88.6596 122.187L87.4525 122.895C87.4273 122.907 87.4022 122.913 87.377 122.913ZM89.7881 121.502C89.7378 121.502 89.6843 121.474 89.6592 121.426C89.6183 121.354 89.6435 121.259 89.7126 121.218L90.9197 120.511C90.992 120.47 91.0832 120.492 91.124 120.568C91.1649 120.64 91.1398 120.735 91.0706 120.776L89.8635 121.483C89.8384 121.493 89.8132 121.502 89.7881 121.502ZM92.1991 120.088C92.1488 120.088 92.0954 120.059 92.0702 120.012C92.0294 119.939 92.0545 119.845 92.1237 119.804L93.3308 119.097C93.4031 119.055 93.4942 119.078 93.5351 119.153C93.576 119.226 93.5508 119.321 93.4816 119.362L92.2746 120.069C92.2526 120.082 92.2274 120.088 92.1991 120.088Z" fill="#F78933"/>
<path d="M78.3009 128.238C78.2506 128.238 78.1972 128.209 78.172 128.162C78.1312 128.089 78.1563 127.994 78.2255 127.953L78.8604 127.581C78.9327 127.54 79.0239 127.562 79.0648 127.638C79.1056 127.71 79.0805 127.805 79.0113 127.846L78.3763 128.219C78.3512 128.231 78.3261 128.238 78.3009 128.238Z" fill="#F78933"/>
<path d="M88.2175 35.515C87.4159 35.9854 86.1176 35.9854 85.316 35.515C84.5144 35.0446 84.5144 34.2837 85.316 33.8165C86.1176 33.3492 87.4159 33.3461 88.2175 33.8165C89.0191 34.2837 89.0191 35.0446 88.2175 35.515Z" fill="#455A64"/>
<path d="M86.7695 26.4867V19.6484L95.565 23.0676L86.7695 26.4867Z" fill="#F78933"/>
<path d="M86.7666 34.9694C86.6 34.9694 86.4648 34.8337 86.4648 34.6632V18.3062C86.4648 18.1389 86.6 18 86.7666 18C86.9332 18 87.0684 18.1358 87.0684 18.3062V34.6663C87.0684 34.8337 86.9332 34.9694 86.7666 34.9694Z" fill="#263238"/>
</svg>
