<svg width="170" height="170" viewBox="0 0 170 170" fill="none" xmlns="http://www.w3.org/2000/svg">
<path d="M68.9923 128.311C81.6907 128.311 91.9847 122.402 91.9847 115.113C91.9847 107.825 81.6907 101.916 68.9923 101.916C56.294 101.916 46 107.825 46 115.113C46 122.402 56.294 128.311 68.9923 128.311Z" fill="#363636"/>
<path d="M91.9847 115.113C91.9847 122.403 81.6929 128.311 68.9923 128.311C56.2956 128.311 46 122.403 46 115.113V118.801C46 126.091 56.2918 131.999 68.9923 131.999C81.6891 131.999 91.9847 126.091 91.9847 118.801V115.113Z" fill="black"/>
<path d="M68.9933 126.742C57.1988 126.742 47.6055 121.529 47.6055 115.119C47.6055 108.709 57.1988 103.496 68.9933 103.496C80.7877 103.496 90.381 108.709 90.381 115.119C90.381 121.525 80.7877 126.742 68.9933 126.742ZM68.9933 103.892C57.4216 103.892 48.0057 108.928 48.0057 115.116C48.0057 121.303 57.4216 126.339 68.9933 126.339C80.5649 126.339 89.9809 121.303 89.9809 115.116C89.9809 108.928 80.5649 103.892 68.9933 103.892Z" fill="#F3B959"/>
<path d="M68.9933 56.8206C57.1988 56.8206 47.6055 51.6073 47.6055 45.1974C47.6055 38.7875 57.1988 33.5742 68.9933 33.5742C80.7877 33.5742 90.381 38.7875 90.381 45.1974C90.381 51.6073 80.7877 56.8206 68.9933 56.8206ZM68.9933 33.9744C57.4216 33.9744 48.0057 39.0102 48.0057 45.1974C48.0057 51.3846 57.4216 56.4205 68.9933 56.4205C80.5649 56.4205 89.9809 51.3846 89.9809 45.1974C89.9809 39.0064 80.5649 33.9744 68.9933 33.9744Z" fill="#F3B959"/>
<path d="M89.9805 115.119V115.115H90.3807L89.9805 115.119Z" fill="#F3B959"/>
<path d="M47.6055 115.119V115.115H48.0057L47.6055 115.119Z" fill="#F3B959"/>
<path d="M90.381 115.112H89.9809C89.9809 108.925 80.5649 103.889 68.9933 103.889C57.4216 103.889 48.0057 108.925 48.0057 115.112H47.6055V102.87C47.6055 96.0221 51.3243 89.7631 57.3045 86.5431L63.1451 83.3985C64.2211 82.8209 64.8629 81.7375 64.8629 80.5068C64.8629 79.2762 64.2211 78.1965 63.1451 77.6152L57.3045 74.4706C51.3205 71.2506 47.6055 64.9954 47.6055 58.1438V45.709H48.0283L48.0472 45.8864C48.723 51.7943 57.9199 56.4224 68.9895 56.4224C80.059 56.4224 89.2597 51.7943 89.9318 45.8864L89.9506 45.709H90.3735V58.1551C90.3735 65.0067 86.6547 71.2619 80.6744 74.482L74.8338 77.6265C73.7578 78.2041 73.116 79.2837 73.116 80.5182C73.116 81.7488 73.7578 82.8285 74.8338 83.4098L80.6744 86.5544C86.5981 90.0349 90.3131 96.2901 90.3735 102.877V115.112H90.381Z" fill="#F3F3F3"/>
<path d="M70.7952 94.1211C69.6776 93.4831 68.3147 93.4831 67.1972 94.1211C62.4401 96.8391 49.8906 104.446 49.8906 109.059C49.8906 114.748 58.4457 119.361 68.9981 119.361C79.5504 119.361 88.1055 114.748 88.1055 109.059C88.1055 104.446 75.556 96.8391 70.7952 94.1211Z" fill="#F3B959"/>
<path opacity="0.3" d="M70.7952 94.1211C69.6776 93.4831 68.3147 93.4831 67.1972 94.1211C62.4401 96.8391 49.8906 104.446 49.8906 109.059C49.8906 114.748 58.4457 119.361 68.9981 119.361C79.5504 119.361 88.1055 114.748 88.1055 109.059C88.1055 104.446 75.556 96.8391 70.7952 94.1211Z" fill="white"/>
<path d="M68.9981 119.361C58.4457 119.361 49.8906 114.748 49.8906 109.059V114.279C49.8944 119.968 58.4457 124.578 68.9981 124.578C79.5504 124.578 88.1017 119.965 88.1055 114.279V109.059C88.1055 114.748 79.5504 119.361 68.9981 119.361Z" fill="#F3B959"/>
<path d="M49.8906 45.9102V57.2389C49.8906 63.3355 53.2168 68.9376 58.5439 71.8028L63.8106 74.6378C63.8899 74.6794 63.9692 74.7247 64.0409 74.7737C64.2297 74.8945 64.4222 75.0116 64.6148 75.121C66.8008 76.4838 68.141 78.896 68.141 81.497V86.4082C68.141 86.8839 68.5224 87.2727 68.9943 87.2727C69.4662 87.2727 69.8475 86.8877 69.8475 86.4082V81.497C69.8475 78.8922 71.1878 76.4838 73.3738 75.121C73.5701 75.0116 73.7589 74.8945 73.9476 74.7737C74.0231 74.7247 74.0987 74.6794 74.1779 74.6378L79.4447 71.8028C84.7718 68.9376 88.0979 63.3355 88.0979 57.2389V45.9102H49.8906Z" fill="#F3B959"/>
<path d="M69.8588 89.9211C69.8588 89.4455 69.4775 89.0566 69.0056 89.0566C68.5337 89.0566 68.1523 89.4417 68.1523 89.9211C68.1523 90.3968 68.5337 90.7856 69.0056 90.7856C69.4775 90.7856 69.8588 90.3968 69.8588 89.9211Z" fill="#F3B959"/>
<path opacity="0.3" d="M49.8906 45.9102V57.2389C49.8906 63.3355 53.2168 68.9376 58.5439 71.8028L63.8106 74.6378C63.8899 74.6794 63.9692 74.7247 64.0409 74.7737C64.2297 74.8945 64.4222 75.0116 64.6148 75.121C66.8008 76.4838 68.141 78.896 68.141 81.497V86.4082C68.141 86.8839 68.5224 87.2727 68.9943 87.2727C69.4662 87.2727 69.8475 86.8877 69.8475 86.4082V81.497C69.8475 78.8922 71.1878 76.4838 73.3738 75.121C73.5701 75.0116 73.7589 74.8945 73.9476 74.7737C74.0231 74.7247 74.0987 74.6794 74.1779 74.6378L79.4447 71.8028C84.7718 68.9376 88.0979 63.3355 88.0979 57.2389V45.9102H49.8906Z" fill="white"/>
<g opacity="0.3">
<path opacity="0.3" d="M69.8588 89.9211C69.8588 89.4455 69.4775 89.0566 69.0056 89.0566C68.5337 89.0566 68.1523 89.4417 68.1523 89.9211C68.1523 90.3968 68.5337 90.7856 69.0056 90.7856C69.4775 90.7856 69.8588 90.3968 69.8588 89.9211Z" fill="white"/>
</g>
<path d="M68.9981 56.2133C79.5508 56.2133 88.1055 51.6009 88.1055 45.9113C88.1055 40.2217 79.5508 35.6094 68.9981 35.6094C58.4453 35.6094 49.8906 40.2217 49.8906 45.9113C49.8906 51.6009 58.4453 56.2133 68.9981 56.2133Z" fill="#F3B959"/>
<g opacity="0.5">
<path opacity="0.5" d="M67.4223 83.5808L63.7073 86.7253C59.9545 89.9039 57.6062 96.11 57.6062 102.875V124.415C56.3981 123.996 55.273 123.516 54.2461 122.98V102.875C54.2461 96.1137 56.9304 89.9077 61.2344 86.7253L65.4855 83.5808C67.2562 82.2709 67.2562 78.7526 65.4855 77.4502L61.2344 74.3056C56.9304 71.1271 54.2461 64.9172 54.2461 58.1524V45.9102H57.6062V58.1524C57.6062 64.9135 59.9545 71.1233 63.7073 74.3056L67.4223 77.4502C68.9665 78.7526 68.9665 82.2709 67.4223 83.5808Z" fill="white"/>
</g>
<path d="M68.9923 58.3947C81.6907 58.3947 91.9847 52.4861 91.9847 45.1974C91.9847 37.9087 81.6907 32 68.9923 32C56.294 32 46 37.9087 46 45.1974C46 52.4861 56.294 58.3947 68.9923 58.3947Z" fill="#363636"/>
<path d="M91.9847 45.1953C91.9847 52.4848 81.6929 58.3927 68.9923 58.3927C56.2956 58.3927 46 52.4848 46 45.1953V48.8835C46 56.173 56.2918 62.0809 68.9923 62.0809C81.6891 62.0809 91.9847 56.173 91.9847 48.8835V45.1953Z" fill="black"/>
<path d="M111.085 125.092L108.628 127.883C108.309 128.256 107.897 128.309 107.459 128.176C107.353 128.149 107.273 128.109 107.193 128.07C106.954 127.937 106.928 127.737 107.167 127.445L109.624 124.64C109.942 124.268 110.354 124.214 110.792 124.347C110.899 124.374 110.978 124.414 111.058 124.454C111.297 124.6 111.337 124.799 111.085 125.092Z" fill="#F7BF63"/>
<path d="M108.214 122.738L107.563 123.483L105.12 122.751L103.924 123.948C104.402 123.775 104.92 123.762 105.478 123.935C105.678 123.988 105.837 124.054 105.97 124.134C106.541 124.466 106.541 124.958 105.996 125.583L104.987 126.74C104.27 127.564 103.127 127.83 101.746 127.418C101.441 127.325 101.188 127.218 100.989 127.112C100.285 126.7 100.219 126.141 100.79 125.503L101.162 125.078L102.49 125.463L102.065 125.942C101.813 126.221 101.852 126.421 102.092 126.553C102.158 126.593 102.251 126.633 102.357 126.66C102.809 126.793 103.207 126.74 103.526 126.367L104.522 125.237C104.761 124.945 104.735 124.759 104.495 124.613C104.429 124.573 104.336 124.533 104.23 124.506C103.792 124.373 103.38 124.426 103.061 124.799L102.928 124.958L101.6 124.559L104.495 121.635L108.214 122.738Z" fill="#E09E2F"/>
<path d="M110.088 128.242C109.357 129.066 108.188 129.319 106.807 128.907C106.502 128.814 106.249 128.708 106.05 128.588C105.346 128.176 105.266 127.617 105.824 126.966L108.188 124.267C108.919 123.443 110.088 123.191 111.469 123.603C111.774 123.696 112.027 123.802 112.226 123.922C112.943 124.334 113.023 124.892 112.452 125.544L110.088 128.242ZM107.458 128.176C107.909 128.309 108.308 128.256 108.627 127.883L111.084 125.092C111.323 124.799 111.296 124.6 111.057 124.467C110.991 124.427 110.898 124.387 110.791 124.36C110.34 124.228 109.941 124.281 109.623 124.653L107.166 127.458C106.913 127.737 106.953 127.936 107.192 128.083C107.272 128.109 107.352 128.149 107.458 128.176Z" fill="#E09E2F"/>
<path d="M118.47 129.12C115.056 133.015 106.835 134.557 100.101 132.563C98.7864 132.177 97.6309 131.685 96.6481 131.114C92.5574 128.747 91.3488 125.038 94.0981 121.901C97.5114 118.006 105.733 116.464 112.48 118.458C113.781 118.843 114.937 119.335 115.933 119.907C120.01 122.273 121.219 125.982 118.47 129.12ZM101.761 127.418C103.143 127.817 104.272 127.564 105.002 126.74L106.012 125.583C106.556 124.959 106.556 124.467 105.985 124.134C105.852 124.055 105.693 123.988 105.494 123.935C104.936 123.775 104.404 123.775 103.94 123.948L105.135 122.752L107.579 123.483L108.23 122.738L104.524 121.635L101.629 124.56L102.957 124.959L103.09 124.799C103.408 124.427 103.82 124.374 104.258 124.507C104.365 124.533 104.444 124.573 104.524 124.613C104.763 124.746 104.79 124.945 104.551 125.238L103.554 126.368C103.236 126.74 102.837 126.793 102.386 126.66C102.279 126.634 102.186 126.594 102.12 126.554C101.881 126.421 101.841 126.221 102.093 125.942L102.519 125.464L101.19 125.078L100.818 125.504C100.247 126.155 100.314 126.713 101.018 127.112C101.204 127.232 101.456 127.338 101.761 127.418ZM106.808 128.92C108.19 129.332 109.358 129.08 110.089 128.255L112.453 125.57C113.024 124.919 112.931 124.36 112.227 123.948C112.028 123.829 111.776 123.722 111.47 123.629C110.089 123.217 108.92 123.47 108.19 124.294L105.826 126.992C105.268 127.631 105.347 128.202 106.051 128.614C106.251 128.721 106.503 128.827 106.808 128.92Z" fill="#F7BF63"/>
<path d="M88.1602 127.592C88.1602 127.831 88.2 128.083 88.2266 128.323V126.462C88.1867 126.222 88.1602 125.97 88.1602 125.73V127.592Z" fill="#E09E2F"/>
<path d="M115.586 136.404C115.958 136.285 116.303 136.152 116.648 136.006V134.145C116.303 134.277 115.958 134.41 115.586 134.543V136.404Z" fill="#E09E2F"/>
<path d="M121.683 125.384L124.406 125.291C124.393 125.039 124.366 124.799 124.34 124.56L121.617 124.653C121.391 123.364 120.687 122.114 119.545 120.997L121.829 120.147C121.617 119.934 121.391 119.735 121.152 119.535L118.868 120.386C118.363 119.974 117.792 119.575 117.154 119.203C116.185 118.644 115.069 118.153 113.821 117.74L115.056 116.331C114.87 116.278 114.697 116.212 114.511 116.159C114.325 116.105 114.126 116.052 113.94 115.999L112.705 117.408C110.553 116.836 108.282 116.571 106.038 116.584L105.878 115.002C105.453 115.002 105.028 115.015 104.617 115.042L104.776 116.624C102.558 116.743 100.393 117.156 98.4674 117.807L96.9798 116.478C96.6212 116.611 96.2759 116.73 95.9306 116.876L97.4181 118.206C95.5986 118.95 94.0313 119.934 92.8758 121.13L90.4454 120.413C90.3391 120.519 90.2461 120.625 90.1532 120.732C90.0602 120.838 89.9672 120.958 89.8743 121.064L92.3048 121.782C91.3219 123.031 90.8704 124.347 90.9102 125.637L88.1875 125.73C88.1875 125.969 88.2274 126.222 88.2539 126.461L90.9766 126.368C91.2024 127.658 91.9063 128.907 93.0353 130.024L90.7376 130.875V132.736C90.9501 132.949 91.1759 133.148 91.4149 133.347V131.486L93.6993 130.635C94.204 131.061 94.7884 131.446 95.4126 131.819C96.3821 132.377 97.4978 132.869 98.7463 133.281L97.5111 134.69V136.551C97.697 136.604 97.883 136.671 98.0689 136.724C98.2548 136.777 98.4408 136.83 98.6267 136.884V135.022L99.8619 133.613C102.013 134.185 104.285 134.451 106.529 134.437L106.689 136.019V137.881C107.114 137.881 107.539 137.867 107.95 137.841V135.98L107.791 134.398C110.009 134.278 112.174 133.866 114.086 133.214L115.561 134.544C115.932 134.424 116.278 134.291 116.623 134.145L115.136 132.816C116.955 132.071 118.522 131.087 119.678 129.891L122.108 130.609C122.215 130.503 122.308 130.396 122.4 130.29C122.308 130.396 122.201 130.516 122.108 130.609V132.47C122.215 132.364 122.308 132.257 122.4 132.151C122.493 132.045 122.586 131.938 122.679 131.819V129.957L120.249 129.24C121.272 128.003 121.723 126.687 121.683 125.384ZM118.469 129.12C115.056 133.015 106.835 134.557 100.101 132.563C98.7861 132.178 97.6306 131.686 96.6478 131.114C92.5571 128.748 91.3485 125.039 94.0978 121.901C97.5111 118.006 105.732 116.464 112.479 118.458C113.781 118.844 114.936 119.336 115.932 119.907C120.01 122.274 121.218 125.983 118.469 129.12Z" fill="#E09E2F"/>
<path d="M124.123 127.392C124.043 127.631 123.963 127.87 123.857 128.096C123.578 128.734 123.193 129.359 122.715 129.957V131.818C123.206 131.207 123.578 130.582 123.857 129.957C123.963 129.718 124.043 129.479 124.123 129.253C124.309 128.641 124.402 128.03 124.402 127.431V125.57C124.402 126.182 124.309 126.78 124.123 127.392Z" fill="#EDA939"/>
<path d="M88.8758 128.388C88.5571 127.763 88.3445 127.112 88.2383 126.447V128.308C88.3445 128.973 88.5571 129.611 88.8758 130.249C88.9821 130.489 89.1148 130.715 89.2609 130.941C89.6594 131.565 90.1508 132.164 90.7352 132.735V130.874C90.1508 130.302 89.6594 129.704 89.2609 129.079C89.1281 128.867 88.9953 128.627 88.8758 128.388Z" fill="#EDA939"/>
<path d="M119.396 132.788C118.559 133.306 117.643 133.758 116.66 134.144V136.005C117.643 135.606 118.559 135.154 119.396 134.649C119.688 134.476 119.967 134.29 120.233 134.104C120.95 133.612 121.588 133.054 122.145 132.482V130.621C121.588 131.206 120.95 131.751 120.233 132.256C119.954 132.429 119.675 132.615 119.396 132.788Z" fill="#EDA939"/>
<path d="M93.7766 133.095C93.6969 133.055 93.6172 133.002 93.5508 132.962C92.7672 132.51 92.05 132.018 91.4258 131.5V133.361C92.05 133.88 92.7539 134.371 93.5508 134.823C93.6305 134.863 93.7102 134.917 93.7766 134.956C94.0821 135.116 94.3876 135.289 94.7196 135.435C95.5696 135.847 96.5259 136.219 97.5352 136.552V134.691C96.5259 134.358 95.5829 133.986 94.7196 133.574C94.3876 133.428 94.0821 133.255 93.7766 133.095Z" fill="#EDA939"/>
<path d="M111.308 135.62C110.219 135.793 109.103 135.926 107.961 135.979V137.84C109.103 137.787 110.219 137.654 111.308 137.481C111.72 137.414 112.118 137.335 112.503 137.255C113.579 137.029 114.602 136.75 115.584 136.404V134.543C114.602 134.889 113.579 135.168 112.503 135.394C112.118 135.474 111.72 135.553 111.308 135.62Z" fill="#EDA939"/>
<path d="M101.863 135.699C100.773 135.54 99.6977 135.314 98.6484 135.021V136.883C99.6977 137.162 100.787 137.388 101.863 137.561C102.274 137.614 102.673 137.667 103.084 137.72C104.28 137.853 105.488 137.906 106.684 137.88V136.019C105.488 136.032 104.28 135.979 103.084 135.859C102.686 135.806 102.274 135.753 101.863 135.699Z" fill="#EDA939"/>
<path d="M112.678 117.408C110.527 116.837 108.255 116.571 106.011 116.584L105.852 115.002C107.047 114.989 108.255 115.042 109.451 115.162C109.863 115.201 110.274 115.255 110.673 115.321C111.762 115.481 112.838 115.707 113.887 115.999L112.678 117.408Z" fill="#F7BF63"/>
<path d="M104.761 116.623C102.543 116.743 100.378 117.155 98.4524 117.807L96.9648 116.477C97.9477 116.145 98.9836 115.852 100.059 115.64C100.458 115.56 100.856 115.48 101.255 115.414C102.344 115.227 103.459 115.108 104.602 115.055L104.761 116.623Z" fill="#F7BF63"/>
<path d="M117.138 119.203C116.169 118.645 115.053 118.153 113.805 117.741L115.04 116.332C116.049 116.651 117.005 117.037 117.856 117.449C118.188 117.595 118.493 117.754 118.799 117.927C118.891 117.98 118.984 118.034 119.077 118.087C119.848 118.539 120.538 119.017 121.149 119.523L118.865 120.373C118.347 119.961 117.776 119.576 117.138 119.203Z" fill="#F7BF63"/>
<path d="M97.4024 118.206C95.5829 118.951 94.0157 119.935 92.8602 121.131L90.4297 120.413C90.9875 119.828 91.625 119.283 92.3422 118.778C92.6078 118.592 92.8867 118.406 93.1657 118.233C94.0157 117.728 94.9321 117.262 95.9149 116.877L97.4024 118.206Z" fill="#F7BF63"/>
<path d="M124.338 124.574L121.615 124.667C121.389 123.377 120.685 122.128 119.543 121.011L121.827 120.16C122.412 120.732 122.916 121.33 123.302 121.955C123.448 122.181 123.581 122.407 123.7 122.646C124.006 123.271 124.218 123.909 124.338 124.574Z" fill="#F7BF63"/>
<path d="M92.2896 121.782C91.3068 123.032 90.8552 124.348 90.8951 125.638L88.1724 125.731C88.1458 125.039 88.2388 124.335 88.4513 123.643C88.5177 123.404 88.6107 123.165 88.7169 122.926C88.9826 122.301 89.3677 121.676 89.8591 121.064L92.2896 121.782Z" fill="#F7BF63"/>
<path d="M120.285 129.253C121.268 128.003 121.72 126.687 121.68 125.384L124.402 125.291C124.429 125.982 124.336 126.687 124.137 127.378C124.057 127.617 123.977 127.857 123.871 128.083C123.592 128.721 123.22 129.346 122.729 129.944L120.285 129.253Z" fill="#F7BF63"/>
<path d="M90.9625 126.367C91.1883 127.657 91.8923 128.906 93.0212 130.023L90.7235 130.874C90.1391 130.302 89.6477 129.704 89.2493 129.079C89.1032 128.853 88.9703 128.614 88.8641 128.388C88.5453 127.763 88.3328 127.112 88.2266 126.447L90.9625 126.367Z" fill="#F7BF63"/>
<path d="M119.395 132.789C118.559 133.307 117.642 133.759 116.659 134.145L115.172 132.815C116.991 132.071 118.559 131.087 119.714 129.891L122.145 130.608C121.587 131.193 120.949 131.738 120.232 132.244C119.953 132.43 119.674 132.616 119.395 132.789Z" fill="#F7BF63"/>
<path d="M95.4368 131.818C96.4063 132.377 97.522 132.869 98.7704 133.281L97.5352 134.69C96.5259 134.357 95.5829 133.985 94.7196 133.573C94.3876 133.427 94.0821 133.254 93.7766 133.095C93.6969 133.055 93.6172 133.001 93.5508 132.962C92.7672 132.51 92.05 132.018 91.4258 131.499L93.7102 130.648C94.2149 131.061 94.7993 131.459 95.4368 131.818Z" fill="#F7BF63"/>
<path d="M107.801 134.398C110.019 134.278 112.184 133.866 114.096 133.215L115.57 134.544C114.588 134.89 113.565 135.169 112.489 135.395C112.104 135.475 111.706 135.555 111.294 135.621C110.205 135.794 109.089 135.927 107.947 135.98L107.801 134.398Z" fill="#F7BF63"/>
<path d="M99.8883 133.613C102.04 134.185 104.311 134.451 106.556 134.437L106.715 136.019C105.52 136.033 104.311 135.98 103.116 135.86C102.704 135.82 102.292 135.767 101.894 135.7C100.805 135.541 99.7289 135.315 98.6797 135.022L99.8883 133.613Z" fill="#F7BF63"/>
<path d="M111.085 121.092L108.628 123.883C108.309 124.256 107.897 124.309 107.459 124.176C107.353 124.149 107.273 124.109 107.193 124.07C106.954 123.937 106.928 123.737 107.167 123.445L109.624 120.64C109.942 120.268 110.354 120.214 110.792 120.347C110.899 120.374 110.978 120.414 111.058 120.454C111.297 120.6 111.337 120.799 111.085 121.092Z" fill="#F7BF63"/>
<path d="M108.214 118.738L107.563 119.483L105.12 118.751L103.924 119.948C104.402 119.775 104.92 119.762 105.478 119.935C105.678 119.988 105.837 120.054 105.97 120.134C106.541 120.466 106.541 120.958 105.996 121.583L104.987 122.74C104.27 123.564 103.127 123.83 101.746 123.418C101.441 123.325 101.188 123.218 100.989 123.112C100.285 122.7 100.219 122.141 100.79 121.503L101.162 121.078L102.49 121.463L102.065 121.942C101.813 122.221 101.852 122.421 102.092 122.553C102.158 122.593 102.251 122.633 102.357 122.66C102.809 122.793 103.207 122.74 103.526 122.367L104.522 121.237C104.761 120.945 104.735 120.759 104.495 120.613C104.429 120.573 104.336 120.533 104.23 120.506C103.792 120.373 103.38 120.426 103.061 120.799L102.928 120.958L101.6 120.559L104.495 117.635L108.214 118.738Z" fill="#E09E2F"/>
<path d="M110.088 124.242C109.357 125.066 108.188 125.319 106.807 124.907C106.502 124.814 106.249 124.708 106.05 124.588C105.346 124.176 105.266 123.617 105.824 122.966L108.188 120.267C108.919 119.443 110.088 119.191 111.469 119.603C111.774 119.696 112.027 119.802 112.226 119.922C112.943 120.334 113.023 120.892 112.452 121.544L110.088 124.242ZM107.458 124.176C107.909 124.309 108.308 124.256 108.627 123.883L111.084 121.092C111.323 120.799 111.296 120.6 111.057 120.467C110.991 120.427 110.898 120.387 110.791 120.36C110.34 120.228 109.941 120.281 109.623 120.653L107.166 123.458C106.913 123.737 106.953 123.936 107.192 124.083C107.272 124.109 107.352 124.149 107.458 124.176Z" fill="#E09E2F"/>
<path d="M118.47 125.12C115.056 129.015 106.835 130.557 100.101 128.563C98.7864 128.177 97.6309 127.685 96.6481 127.114C92.5574 124.747 91.3488 121.038 94.0981 117.901C97.5114 114.006 105.733 112.464 112.48 114.458C113.781 114.843 114.937 115.335 115.933 115.907C120.01 118.273 121.219 121.982 118.47 125.12ZM101.761 123.418C103.143 123.817 104.272 123.564 105.002 122.74L106.012 121.583C106.556 120.959 106.556 120.467 105.985 120.134C105.852 120.055 105.693 119.988 105.494 119.935C104.936 119.775 104.404 119.775 103.94 119.948L105.135 118.752L107.579 119.483L108.23 118.738L104.524 117.635L101.629 120.56L102.957 120.959L103.09 120.799C103.408 120.427 103.82 120.374 104.258 120.507C104.365 120.533 104.444 120.573 104.524 120.613C104.763 120.746 104.79 120.945 104.551 121.238L103.554 122.368C103.236 122.74 102.837 122.793 102.386 122.66C102.279 122.634 102.186 122.594 102.12 122.554C101.881 122.421 101.841 122.221 102.093 121.942L102.519 121.464L101.19 121.078L100.818 121.504C100.247 122.155 100.314 122.713 101.018 123.112C101.204 123.232 101.456 123.338 101.761 123.418ZM106.808 124.92C108.19 125.332 109.358 125.08 110.089 124.255L112.453 121.57C113.024 120.919 112.931 120.36 112.227 119.948C112.028 119.829 111.776 119.722 111.47 119.629C110.089 119.217 108.92 119.47 108.19 120.294L105.826 122.992C105.268 123.631 105.347 124.202 106.051 124.614C106.251 124.721 106.503 124.827 106.808 124.92Z" fill="#F7BF63"/>
<path d="M88.1602 123.592C88.1602 123.831 88.2 124.083 88.2266 124.323V122.462C88.1867 122.222 88.1602 121.97 88.1602 121.73V123.592Z" fill="#E09E2F"/>
<path d="M115.586 132.404C115.958 132.285 116.303 132.152 116.648 132.006V130.145C116.303 130.277 115.958 130.41 115.586 130.543V132.404Z" fill="#E09E2F"/>
<path d="M121.683 121.384L124.406 121.291C124.393 121.039 124.366 120.799 124.34 120.56L121.617 120.653C121.391 119.364 120.687 118.114 119.545 116.997L121.829 116.147C121.617 115.934 121.391 115.735 121.152 115.535L118.868 116.386C118.363 115.974 117.792 115.575 117.154 115.203C116.185 114.644 115.069 114.153 113.821 113.74L115.056 112.331C114.87 112.278 114.697 112.212 114.511 112.159C114.325 112.105 114.126 112.052 113.94 111.999L112.705 113.408C110.553 112.836 108.282 112.571 106.038 112.584L105.878 111.002C105.453 111.002 105.028 111.015 104.617 111.042L104.776 112.624C102.558 112.743 100.393 113.156 98.4674 113.807L96.9798 112.478C96.6212 112.611 96.2759 112.73 95.9306 112.876L97.4181 114.206C95.5986 114.95 94.0313 115.934 92.8758 117.13L90.4454 116.413C90.3391 116.519 90.2461 116.625 90.1532 116.732C90.0602 116.838 89.9672 116.958 89.8743 117.064L92.3048 117.782C91.3219 119.031 90.8704 120.347 90.9102 121.637L88.1875 121.73C88.1875 121.969 88.2274 122.222 88.2539 122.461L90.9766 122.368C91.2024 123.658 91.9063 124.907 93.0353 126.024L90.7376 126.875V128.736C90.9501 128.949 91.1759 129.148 91.4149 129.347V127.486L93.6993 126.635C94.204 127.061 94.7884 127.446 95.4126 127.819C96.3821 128.377 97.4978 128.869 98.7463 129.281L97.5111 130.69V132.551C97.697 132.604 97.883 132.671 98.0689 132.724C98.2548 132.777 98.4408 132.83 98.6267 132.884V131.022L99.8619 129.613C102.013 130.185 104.285 130.451 106.529 130.437L106.689 132.019V133.881C107.114 133.881 107.539 133.867 107.95 133.841V131.98L107.791 130.398C110.009 130.278 112.174 129.866 114.086 129.214L115.561 130.544C115.932 130.424 116.278 130.291 116.623 130.145L115.136 128.816C116.955 128.071 118.522 127.087 119.678 125.891L122.108 126.609C122.215 126.503 122.308 126.396 122.4 126.29C122.308 126.396 122.201 126.516 122.108 126.609V128.47C122.215 128.364 122.308 128.257 122.4 128.151C122.493 128.045 122.586 127.938 122.679 127.819V125.957L120.249 125.24C121.272 124.003 121.723 122.687 121.683 121.384ZM118.469 125.12C115.056 129.015 106.835 130.557 100.101 128.563C98.7861 128.178 97.6306 127.686 96.6478 127.114C92.5571 124.748 91.3485 121.039 94.0978 117.901C97.5111 114.006 105.732 112.464 112.479 114.458C113.781 114.844 114.936 115.336 115.932 115.907C120.01 118.274 121.218 121.983 118.469 125.12Z" fill="#E09E2F"/>
<path d="M124.123 123.392C124.043 123.631 123.963 123.87 123.857 124.096C123.578 124.734 123.193 125.359 122.715 125.957V127.818C123.206 127.207 123.578 126.582 123.857 125.957C123.963 125.718 124.043 125.479 124.123 125.253C124.309 124.641 124.402 124.03 124.402 123.431V121.57C124.402 122.182 124.309 122.78 124.123 123.392Z" fill="#EDA939"/>
<path d="M88.8758 124.388C88.5571 123.763 88.3445 123.112 88.2383 122.447V124.308C88.3445 124.973 88.5571 125.611 88.8758 126.249C88.9821 126.489 89.1148 126.715 89.2609 126.941C89.6594 127.565 90.1508 128.164 90.7352 128.735V126.874C90.1508 126.302 89.6594 125.704 89.2609 125.079C89.1281 124.867 88.9953 124.627 88.8758 124.388Z" fill="#EDA939"/>
<path d="M119.396 128.788C118.559 129.306 117.643 129.758 116.66 130.144V132.005C117.643 131.606 118.559 131.154 119.396 130.649C119.688 130.476 119.967 130.29 120.233 130.104C120.95 129.612 121.588 129.054 122.145 128.482V126.621C121.588 127.206 120.95 127.751 120.233 128.256C119.954 128.429 119.675 128.615 119.396 128.788Z" fill="#EDA939"/>
<path d="M93.7766 129.095C93.6969 129.055 93.6172 129.002 93.5508 128.962C92.7672 128.51 92.05 128.018 91.4258 127.5V129.361C92.05 129.88 92.7539 130.371 93.5508 130.823C93.6305 130.863 93.7102 130.917 93.7766 130.956C94.0821 131.116 94.3876 131.289 94.7196 131.435C95.5696 131.847 96.5259 132.219 97.5352 132.552V130.691C96.5259 130.358 95.5829 129.986 94.7196 129.574C94.3876 129.428 94.0821 129.255 93.7766 129.095Z" fill="#EDA939"/>
<path d="M111.308 131.62C110.219 131.793 109.103 131.926 107.961 131.979V133.84C109.103 133.787 110.219 133.654 111.308 133.481C111.72 133.414 112.118 133.335 112.503 133.255C113.579 133.029 114.602 132.75 115.584 132.404V130.543C114.602 130.889 113.579 131.168 112.503 131.394C112.118 131.474 111.72 131.553 111.308 131.62Z" fill="#EDA939"/>
<path d="M101.863 131.699C100.773 131.54 99.6977 131.314 98.6484 131.021V132.883C99.6977 133.162 100.787 133.388 101.863 133.561C102.274 133.614 102.673 133.667 103.084 133.72C104.28 133.853 105.488 133.906 106.684 133.88V132.019C105.488 132.032 104.28 131.979 103.084 131.859C102.686 131.806 102.274 131.753 101.863 131.699Z" fill="#EDA939"/>
<path d="M112.678 113.408C110.527 112.837 108.255 112.571 106.011 112.584L105.852 111.002C107.047 110.989 108.255 111.042 109.451 111.162C109.863 111.201 110.274 111.255 110.673 111.321C111.762 111.481 112.838 111.707 113.887 111.999L112.678 113.408Z" fill="#F7BF63"/>
<path d="M104.761 112.623C102.543 112.743 100.378 113.155 98.4524 113.807L96.9648 112.477C97.9477 112.145 98.9836 111.852 100.059 111.64C100.458 111.56 100.856 111.48 101.255 111.414C102.344 111.227 103.459 111.108 104.602 111.055L104.761 112.623Z" fill="#F7BF63"/>
<path d="M117.138 115.203C116.169 114.645 115.053 114.153 113.805 113.741L115.04 112.332C116.049 112.651 117.005 113.037 117.856 113.449C118.188 113.595 118.493 113.754 118.799 113.927C118.891 113.98 118.984 114.034 119.077 114.087C119.848 114.539 120.538 115.017 121.149 115.523L118.865 116.373C118.347 115.961 117.776 115.576 117.138 115.203Z" fill="#F7BF63"/>
<path d="M97.4024 114.206C95.5829 114.951 94.0157 115.935 92.8602 117.131L90.4297 116.413C90.9875 115.828 91.625 115.283 92.3422 114.778C92.6078 114.592 92.8867 114.406 93.1657 114.233C94.0157 113.728 94.9321 113.262 95.9149 112.877L97.4024 114.206Z" fill="#F7BF63"/>
<path d="M124.338 120.574L121.615 120.667C121.389 119.377 120.685 118.128 119.543 117.011L121.827 116.16C122.412 116.732 122.916 117.33 123.302 117.955C123.448 118.181 123.581 118.407 123.7 118.646C124.006 119.271 124.218 119.909 124.338 120.574Z" fill="#F7BF63"/>
<path d="M92.2896 117.782C91.3068 119.032 90.8552 120.348 90.8951 121.638L88.1724 121.731C88.1458 121.039 88.2388 120.335 88.4513 119.643C88.5177 119.404 88.6107 119.165 88.7169 118.926C88.9826 118.301 89.3677 117.676 89.8591 117.064L92.2896 117.782Z" fill="#F7BF63"/>
<path d="M120.285 125.253C121.268 124.003 121.72 122.687 121.68 121.384L124.402 121.291C124.429 121.982 124.336 122.687 124.137 123.378C124.057 123.617 123.977 123.857 123.871 124.083C123.592 124.721 123.22 125.346 122.729 125.944L120.285 125.253Z" fill="#F7BF63"/>
<path d="M90.9625 122.367C91.1883 123.657 91.8923 124.906 93.0212 126.023L90.7235 126.874C90.1391 126.302 89.6477 125.704 89.2493 125.079C89.1032 124.853 88.9703 124.614 88.8641 124.388C88.5453 123.763 88.3328 123.112 88.2266 122.447L90.9625 122.367Z" fill="#F7BF63"/>
<path d="M119.395 128.789C118.559 129.307 117.642 129.759 116.659 130.145L115.172 128.815C116.991 128.071 118.559 127.087 119.714 125.891L122.145 126.608C121.587 127.193 120.949 127.738 120.232 128.244C119.953 128.43 119.674 128.616 119.395 128.789Z" fill="#F7BF63"/>
<path d="M95.4368 127.818C96.4063 128.377 97.522 128.869 98.7704 129.281L97.5352 130.69C96.5259 130.357 95.5829 129.985 94.7196 129.573C94.3876 129.427 94.0821 129.254 93.7766 129.095C93.6969 129.055 93.6172 129.001 93.5508 128.962C92.7672 128.51 92.05 128.018 91.4258 127.499L93.7102 126.648C94.2149 127.061 94.7993 127.459 95.4368 127.818Z" fill="#F7BF63"/>
<path d="M107.801 130.398C110.019 130.278 112.184 129.866 114.096 129.215L115.57 130.544C114.588 130.89 113.565 131.169 112.489 131.395C112.104 131.475 111.706 131.555 111.294 131.621C110.205 131.794 109.089 131.927 107.947 131.98L107.801 130.398Z" fill="#F7BF63"/>
<path d="M99.8883 129.613C102.04 130.185 104.311 130.451 106.556 130.437L106.715 132.019C105.52 132.033 104.311 131.98 103.116 131.86C102.704 131.82 102.292 131.767 101.894 131.7C100.805 131.541 99.7289 131.315 98.6797 131.022L99.8883 129.613Z" fill="#F7BF63"/>
<path d="M111.085 117.092L108.628 119.883C108.309 120.256 107.897 120.309 107.459 120.176C107.353 120.149 107.273 120.109 107.193 120.07C106.954 119.937 106.928 119.737 107.167 119.445L109.624 116.64C109.942 116.268 110.354 116.214 110.792 116.347C110.899 116.374 110.978 116.414 111.058 116.454C111.297 116.6 111.337 116.799 111.085 117.092Z" fill="#F7BF63"/>
<path d="M108.214 114.738L107.563 115.483L105.12 114.751L103.924 115.948C104.402 115.775 104.92 115.762 105.478 115.935C105.678 115.988 105.837 116.054 105.97 116.134C106.541 116.466 106.541 116.958 105.996 117.583L104.987 118.74C104.27 119.564 103.127 119.83 101.746 119.418C101.441 119.325 101.188 119.218 100.989 119.112C100.285 118.7 100.219 118.141 100.79 117.503L101.162 117.078L102.49 117.463L102.065 117.942C101.813 118.221 101.852 118.421 102.092 118.553C102.158 118.593 102.251 118.633 102.357 118.66C102.809 118.793 103.207 118.74 103.526 118.367L104.522 117.237C104.761 116.945 104.735 116.759 104.495 116.613C104.429 116.573 104.336 116.533 104.23 116.506C103.792 116.373 103.38 116.426 103.061 116.799L102.928 116.958L101.6 116.559L104.495 113.635L108.214 114.738Z" fill="#E09E2F"/>
<path d="M110.088 120.242C109.357 121.066 108.188 121.319 106.807 120.907C106.502 120.814 106.249 120.708 106.05 120.588C105.346 120.176 105.266 119.617 105.824 118.966L108.188 116.267C108.919 115.443 110.088 115.191 111.469 115.603C111.774 115.696 112.027 115.802 112.226 115.922C112.943 116.334 113.023 116.892 112.452 117.544L110.088 120.242ZM107.458 120.176C107.909 120.309 108.308 120.256 108.627 119.883L111.084 117.092C111.323 116.799 111.296 116.6 111.057 116.467C110.991 116.427 110.898 116.387 110.791 116.36C110.34 116.228 109.941 116.281 109.623 116.653L107.166 119.458C106.913 119.737 106.953 119.936 107.192 120.083C107.272 120.109 107.352 120.149 107.458 120.176Z" fill="#E09E2F"/>
<path d="M118.47 121.12C115.056 125.015 106.835 126.557 100.101 124.563C98.7864 124.177 97.6309 123.685 96.6481 123.114C92.5574 120.747 91.3488 117.038 94.0981 113.901C97.5114 110.006 105.733 108.464 112.48 110.458C113.781 110.843 114.937 111.335 115.933 111.907C120.01 114.273 121.219 117.982 118.47 121.12ZM101.761 119.418C103.143 119.817 104.272 119.564 105.002 118.74L106.012 117.583C106.556 116.959 106.556 116.467 105.985 116.134C105.852 116.055 105.693 115.988 105.494 115.935C104.936 115.775 104.404 115.775 103.94 115.948L105.135 114.752L107.579 115.483L108.23 114.738L104.524 113.635L101.629 116.56L102.957 116.959L103.09 116.799C103.408 116.427 103.82 116.374 104.258 116.507C104.365 116.533 104.444 116.573 104.524 116.613C104.763 116.746 104.79 116.945 104.551 117.238L103.554 118.368C103.236 118.74 102.837 118.793 102.386 118.66C102.279 118.634 102.186 118.594 102.12 118.554C101.881 118.421 101.841 118.221 102.093 117.942L102.519 117.464L101.19 117.078L100.818 117.504C100.247 118.155 100.314 118.713 101.018 119.112C101.204 119.232 101.456 119.338 101.761 119.418ZM106.808 120.92C108.19 121.332 109.358 121.08 110.089 120.255L112.453 117.57C113.024 116.919 112.931 116.36 112.227 115.948C112.028 115.829 111.776 115.722 111.47 115.629C110.089 115.217 108.92 115.47 108.19 116.294L105.826 118.992C105.268 119.631 105.347 120.202 106.051 120.614C106.251 120.721 106.503 120.827 106.808 120.92Z" fill="#F7BF63"/>
<path d="M88.1602 119.592C88.1602 119.831 88.2 120.083 88.2266 120.323V118.462C88.1867 118.222 88.1602 117.97 88.1602 117.73V119.592Z" fill="#E09E2F"/>
<path d="M115.586 128.404C115.958 128.285 116.303 128.152 116.648 128.006V126.145C116.303 126.277 115.958 126.41 115.586 126.543V128.404Z" fill="#E09E2F"/>
<path d="M121.683 117.384L124.406 117.291C124.393 117.039 124.366 116.799 124.34 116.56L121.617 116.653C121.391 115.364 120.687 114.114 119.545 112.997L121.829 112.147C121.617 111.934 121.391 111.735 121.152 111.535L118.868 112.386C118.363 111.974 117.792 111.575 117.154 111.203C116.185 110.644 115.069 110.153 113.821 109.74L115.056 108.331C114.87 108.278 114.697 108.212 114.511 108.159C114.325 108.105 114.126 108.052 113.94 107.999L112.705 109.408C110.553 108.836 108.282 108.571 106.038 108.584L105.878 107.002C105.453 107.002 105.028 107.015 104.617 107.042L104.776 108.624C102.558 108.743 100.393 109.156 98.4674 109.807L96.9798 108.478C96.6212 108.611 96.2759 108.73 95.9306 108.876L97.4181 110.206C95.5986 110.95 94.0313 111.934 92.8758 113.13L90.4454 112.413C90.3391 112.519 90.2461 112.625 90.1532 112.732C90.0602 112.838 89.9672 112.958 89.8743 113.064L92.3048 113.782C91.3219 115.031 90.8704 116.347 90.9102 117.637L88.1875 117.73C88.1875 117.969 88.2274 118.222 88.2539 118.461L90.9766 118.368C91.2024 119.658 91.9063 120.907 93.0353 122.024L90.7376 122.875V124.736C90.9501 124.949 91.1759 125.148 91.4149 125.347V123.486L93.6993 122.635C94.204 123.061 94.7884 123.446 95.4126 123.819C96.3821 124.377 97.4978 124.869 98.7463 125.281L97.5111 126.69V128.551C97.697 128.604 97.883 128.671 98.0689 128.724C98.2548 128.777 98.4408 128.83 98.6267 128.884V127.022L99.8619 125.613C102.013 126.185 104.285 126.451 106.529 126.437L106.689 128.019V129.881C107.114 129.881 107.539 129.867 107.95 129.841V127.98L107.791 126.398C110.009 126.278 112.174 125.866 114.086 125.214L115.561 126.544C115.932 126.424 116.278 126.291 116.623 126.145L115.136 124.816C116.955 124.071 118.522 123.087 119.678 121.891L122.108 122.609C122.215 122.503 122.308 122.396 122.4 122.29C122.308 122.396 122.201 122.516 122.108 122.609V124.47C122.215 124.364 122.308 124.257 122.4 124.151C122.493 124.045 122.586 123.938 122.679 123.819V121.957L120.249 121.24C121.272 120.003 121.723 118.687 121.683 117.384ZM118.469 121.12C115.056 125.015 106.835 126.557 100.101 124.563C98.7861 124.178 97.6306 123.686 96.6478 123.114C92.5571 120.748 91.3485 117.039 94.0978 113.901C97.5111 110.006 105.732 108.464 112.479 110.458C113.781 110.844 114.936 111.336 115.932 111.907C120.01 114.274 121.218 117.983 118.469 121.12Z" fill="#E09E2F"/>
<path d="M124.123 119.392C124.043 119.631 123.963 119.87 123.857 120.096C123.578 120.734 123.193 121.359 122.715 121.957V123.818C123.206 123.207 123.578 122.582 123.857 121.957C123.963 121.718 124.043 121.479 124.123 121.253C124.309 120.641 124.402 120.03 124.402 119.431V117.57C124.402 118.182 124.309 118.78 124.123 119.392Z" fill="#EDA939"/>
<path d="M88.8758 120.388C88.5571 119.763 88.3445 119.112 88.2383 118.447V120.308C88.3445 120.973 88.5571 121.611 88.8758 122.249C88.9821 122.489 89.1148 122.715 89.2609 122.941C89.6594 123.565 90.1508 124.164 90.7352 124.735V122.874C90.1508 122.302 89.6594 121.704 89.2609 121.079C89.1281 120.867 88.9953 120.627 88.8758 120.388Z" fill="#EDA939"/>
<path d="M119.396 124.788C118.559 125.306 117.643 125.758 116.66 126.144V128.005C117.643 127.606 118.559 127.154 119.396 126.649C119.688 126.476 119.967 126.29 120.233 126.104C120.95 125.612 121.588 125.054 122.145 124.482V122.621C121.588 123.206 120.95 123.751 120.233 124.256C119.954 124.429 119.675 124.615 119.396 124.788Z" fill="#EDA939"/>
<path d="M93.7766 125.095C93.6969 125.055 93.6172 125.002 93.5508 124.962C92.7672 124.51 92.05 124.018 91.4258 123.5V125.361C92.05 125.88 92.7539 126.371 93.5508 126.823C93.6305 126.863 93.7102 126.917 93.7766 126.956C94.0821 127.116 94.3876 127.289 94.7196 127.435C95.5696 127.847 96.5259 128.219 97.5352 128.552V126.691C96.5259 126.358 95.5829 125.986 94.7196 125.574C94.3876 125.428 94.0821 125.255 93.7766 125.095Z" fill="#EDA939"/>
<path d="M111.308 127.62C110.219 127.793 109.103 127.926 107.961 127.979V129.84C109.103 129.787 110.219 129.654 111.308 129.481C111.72 129.414 112.118 129.335 112.503 129.255C113.579 129.029 114.602 128.75 115.584 128.404V126.543C114.602 126.889 113.579 127.168 112.503 127.394C112.118 127.474 111.72 127.553 111.308 127.62Z" fill="#EDA939"/>
<path d="M101.863 127.699C100.773 127.54 99.6977 127.314 98.6484 127.021V128.883C99.6977 129.162 100.787 129.388 101.863 129.561C102.274 129.614 102.673 129.667 103.084 129.72C104.28 129.853 105.488 129.906 106.684 129.88V128.019C105.488 128.032 104.28 127.979 103.084 127.859C102.686 127.806 102.274 127.753 101.863 127.699Z" fill="#EDA939"/>
<path d="M112.678 109.408C110.527 108.837 108.255 108.571 106.011 108.584L105.852 107.002C107.047 106.989 108.255 107.042 109.451 107.162C109.863 107.201 110.274 107.255 110.673 107.321C111.762 107.481 112.838 107.707 113.887 107.999L112.678 109.408Z" fill="#F7BF63"/>
<path d="M104.761 108.623C102.543 108.743 100.378 109.155 98.4524 109.807L96.9648 108.477C97.9477 108.145 98.9836 107.852 100.059 107.64C100.458 107.56 100.856 107.48 101.255 107.414C102.344 107.227 103.459 107.108 104.602 107.055L104.761 108.623Z" fill="#F7BF63"/>
<path d="M117.138 111.203C116.169 110.645 115.053 110.153 113.805 109.741L115.04 108.332C116.049 108.651 117.005 109.037 117.856 109.449C118.188 109.595 118.493 109.754 118.799 109.927C118.891 109.98 118.984 110.034 119.077 110.087C119.848 110.539 120.538 111.017 121.149 111.523L118.865 112.373C118.347 111.961 117.776 111.576 117.138 111.203Z" fill="#F7BF63"/>
<path d="M97.4024 110.206C95.5829 110.951 94.0157 111.935 92.8602 113.131L90.4297 112.413C90.9875 111.828 91.625 111.283 92.3422 110.778C92.6078 110.592 92.8867 110.406 93.1657 110.233C94.0157 109.728 94.9321 109.262 95.9149 108.877L97.4024 110.206Z" fill="#F7BF63"/>
<path d="M124.338 116.574L121.615 116.667C121.389 115.377 120.685 114.128 119.543 113.011L121.827 112.16C122.412 112.732 122.916 113.33 123.302 113.955C123.448 114.181 123.581 114.407 123.7 114.646C124.006 115.271 124.218 115.909 124.338 116.574Z" fill="#F7BF63"/>
<path d="M92.2896 113.782C91.3068 115.032 90.8552 116.348 90.8951 117.638L88.1724 117.731C88.1458 117.039 88.2388 116.335 88.4513 115.643C88.5177 115.404 88.6107 115.165 88.7169 114.926C88.9826 114.301 89.3677 113.676 89.8591 113.064L92.2896 113.782Z" fill="#F7BF63"/>
<path d="M120.285 121.253C121.268 120.003 121.72 118.687 121.68 117.384L124.402 117.291C124.429 117.982 124.336 118.687 124.137 119.378C124.057 119.617 123.977 119.857 123.871 120.083C123.592 120.721 123.22 121.346 122.729 121.944L120.285 121.253Z" fill="#F7BF63"/>
<path d="M90.9625 118.367C91.1883 119.657 91.8923 120.906 93.0212 122.023L90.7235 122.874C90.1391 122.302 89.6477 121.704 89.2493 121.079C89.1032 120.853 88.9703 120.614 88.8641 120.388C88.5453 119.763 88.3328 119.112 88.2266 118.447L90.9625 118.367Z" fill="#F7BF63"/>
<path d="M119.395 124.789C118.559 125.307 117.642 125.759 116.659 126.145L115.172 124.815C116.991 124.071 118.559 123.087 119.714 121.891L122.145 122.608C121.587 123.193 120.949 123.738 120.232 124.244C119.953 124.43 119.674 124.616 119.395 124.789Z" fill="#F7BF63"/>
<path d="M95.4368 123.818C96.4063 124.377 97.522 124.869 98.7704 125.281L97.5352 126.69C96.5259 126.357 95.5829 125.985 94.7196 125.573C94.3876 125.427 94.0821 125.254 93.7766 125.095C93.6969 125.055 93.6172 125.001 93.5508 124.962C92.7672 124.51 92.05 124.018 91.4258 123.499L93.7102 122.648C94.2149 123.061 94.7993 123.459 95.4368 123.818Z" fill="#F7BF63"/>
<path d="M107.801 126.398C110.019 126.278 112.184 125.866 114.096 125.215L115.57 126.544C114.588 126.89 113.565 127.169 112.489 127.395C112.104 127.475 111.706 127.555 111.294 127.621C110.205 127.794 109.089 127.927 107.947 127.98L107.801 126.398Z" fill="#F7BF63"/>
<path d="M99.8883 125.613C102.04 126.185 104.311 126.451 106.556 126.437L106.715 128.019C105.52 128.033 104.311 127.98 103.116 127.86C102.704 127.82 102.292 127.767 101.894 127.7C100.805 127.541 99.7289 127.315 98.6797 127.022L99.8883 125.613Z" fill="#F7BF63"/>
<path d="M111.085 113.092L108.628 115.883C108.309 116.256 107.897 116.309 107.459 116.176C107.353 116.149 107.273 116.109 107.193 116.07C106.954 115.937 106.928 115.737 107.167 115.445L109.624 112.64C109.942 112.268 110.354 112.214 110.792 112.347C110.899 112.374 110.978 112.414 111.058 112.454C111.297 112.6 111.337 112.799 111.085 113.092Z" fill="#F7BF63"/>
<path d="M108.214 110.738L107.563 111.483L105.12 110.751L103.924 111.948C104.402 111.775 104.92 111.762 105.478 111.935C105.678 111.988 105.837 112.054 105.97 112.134C106.541 112.466 106.541 112.958 105.996 113.583L104.987 114.74C104.27 115.564 103.127 115.83 101.746 115.418C101.441 115.325 101.188 115.218 100.989 115.112C100.285 114.7 100.219 114.141 100.79 113.503L101.162 113.078L102.49 113.463L102.065 113.942C101.813 114.221 101.852 114.421 102.092 114.553C102.158 114.593 102.251 114.633 102.357 114.66C102.809 114.793 103.207 114.74 103.526 114.367L104.522 113.237C104.761 112.945 104.735 112.759 104.495 112.613C104.429 112.573 104.336 112.533 104.23 112.506C103.792 112.373 103.38 112.426 103.061 112.799L102.928 112.958L101.6 112.559L104.495 109.635L108.214 110.738Z" fill="#E09E2F"/>
<path d="M110.088 116.242C109.357 117.066 108.188 117.319 106.807 116.907C106.502 116.814 106.249 116.708 106.05 116.588C105.346 116.176 105.266 115.617 105.824 114.966L108.188 112.267C108.919 111.443 110.088 111.191 111.469 111.603C111.774 111.696 112.027 111.802 112.226 111.922C112.943 112.334 113.023 112.892 112.452 113.544L110.088 116.242ZM107.458 116.176C107.909 116.309 108.308 116.256 108.627 115.883L111.084 113.092C111.323 112.799 111.296 112.6 111.057 112.467C110.991 112.427 110.898 112.387 110.791 112.36C110.34 112.228 109.941 112.281 109.623 112.653L107.166 115.458C106.913 115.737 106.953 115.936 107.192 116.083C107.272 116.109 107.352 116.149 107.458 116.176Z" fill="#E09E2F"/>
<path d="M118.47 117.12C115.056 121.015 106.835 122.557 100.101 120.563C98.7864 120.177 97.6309 119.685 96.6481 119.114C92.5574 116.747 91.3488 113.038 94.0981 109.901C97.5114 106.006 105.733 104.464 112.48 106.458C113.781 106.843 114.937 107.335 115.933 107.907C120.01 110.273 121.219 113.982 118.47 117.12ZM101.761 115.418C103.143 115.817 104.272 115.564 105.002 114.74L106.012 113.583C106.556 112.959 106.556 112.467 105.985 112.134C105.852 112.055 105.693 111.988 105.494 111.935C104.936 111.775 104.404 111.775 103.94 111.948L105.135 110.752L107.579 111.483L108.23 110.738L104.524 109.635L101.629 112.56L102.957 112.959L103.09 112.799C103.408 112.427 103.82 112.374 104.258 112.507C104.365 112.533 104.444 112.573 104.524 112.613C104.763 112.746 104.79 112.945 104.551 113.238L103.554 114.368C103.236 114.74 102.837 114.793 102.386 114.66C102.279 114.634 102.186 114.594 102.12 114.554C101.881 114.421 101.841 114.221 102.093 113.942L102.519 113.464L101.19 113.078L100.818 113.504C100.247 114.155 100.314 114.713 101.018 115.112C101.204 115.232 101.456 115.338 101.761 115.418ZM106.808 116.92C108.19 117.332 109.358 117.08 110.089 116.255L112.453 113.57C113.024 112.919 112.931 112.36 112.227 111.948C112.028 111.829 111.776 111.722 111.47 111.629C110.089 111.217 108.92 111.47 108.19 112.294L105.826 114.992C105.268 115.631 105.347 116.202 106.051 116.614C106.251 116.721 106.503 116.827 106.808 116.92Z" fill="#F7BF63"/>
<path d="M88.1602 115.592C88.1602 115.831 88.2 116.083 88.2266 116.323V114.462C88.1867 114.222 88.1602 113.97 88.1602 113.73V115.592Z" fill="#E09E2F"/>
<path d="M115.586 124.404C115.958 124.285 116.303 124.152 116.648 124.006V122.145C116.303 122.277 115.958 122.41 115.586 122.543V124.404Z" fill="#E09E2F"/>
<path d="M121.683 113.384L124.406 113.291C124.393 113.039 124.366 112.799 124.34 112.56L121.617 112.653C121.391 111.364 120.687 110.114 119.545 108.997L121.829 108.147C121.617 107.934 121.391 107.735 121.152 107.535L118.868 108.386C118.363 107.974 117.792 107.575 117.154 107.203C116.185 106.644 115.069 106.153 113.821 105.74L115.056 104.331C114.87 104.278 114.697 104.212 114.511 104.159C114.325 104.105 114.126 104.052 113.94 103.999L112.705 105.408C110.553 104.836 108.282 104.571 106.038 104.584L105.878 103.002C105.453 103.002 105.028 103.015 104.617 103.042L104.776 104.624C102.558 104.743 100.393 105.156 98.4674 105.807L96.9798 104.478C96.6212 104.611 96.2759 104.73 95.9306 104.876L97.4181 106.206C95.5986 106.95 94.0313 107.934 92.8758 109.13L90.4454 108.413C90.3391 108.519 90.2461 108.625 90.1532 108.732C90.0602 108.838 89.9672 108.958 89.8743 109.064L92.3048 109.782C91.3219 111.031 90.8704 112.347 90.9102 113.637L88.1875 113.73C88.1875 113.969 88.2274 114.222 88.2539 114.461L90.9766 114.368C91.2024 115.658 91.9063 116.907 93.0353 118.024L90.7376 118.875V120.736C90.9501 120.949 91.1759 121.148 91.4149 121.347V119.486L93.6993 118.635C94.204 119.061 94.7884 119.446 95.4126 119.819C96.3821 120.377 97.4978 120.869 98.7463 121.281L97.5111 122.69V124.551C97.697 124.604 97.883 124.671 98.0689 124.724C98.2548 124.777 98.4408 124.83 98.6267 124.884V123.022L99.8619 121.613C102.013 122.185 104.285 122.451 106.529 122.437L106.689 124.019V125.881C107.114 125.881 107.539 125.867 107.95 125.841V123.98L107.791 122.398C110.009 122.278 112.174 121.866 114.086 121.214L115.561 122.544C115.932 122.424 116.278 122.291 116.623 122.145L115.136 120.816C116.955 120.071 118.522 119.087 119.678 117.891L122.108 118.609C122.215 118.503 122.308 118.396 122.4 118.29C122.308 118.396 122.201 118.516 122.108 118.609V120.47C122.215 120.364 122.308 120.257 122.4 120.151C122.493 120.045 122.586 119.938 122.679 119.819V117.957L120.249 117.24C121.272 116.003 121.723 114.687 121.683 113.384ZM118.469 117.12C115.056 121.015 106.835 122.557 100.101 120.563C98.7861 120.178 97.6306 119.686 96.6478 119.114C92.5571 116.748 91.3485 113.039 94.0978 109.901C97.5111 106.006 105.732 104.464 112.479 106.458C113.781 106.844 114.936 107.336 115.932 107.907C120.01 110.274 121.218 113.983 118.469 117.12Z" fill="#E09E2F"/>
<path d="M124.123 115.392C124.043 115.631 123.963 115.87 123.857 116.096C123.578 116.734 123.193 117.359 122.715 117.957V119.818C123.206 119.207 123.578 118.582 123.857 117.957C123.963 117.718 124.043 117.479 124.123 117.253C124.309 116.641 124.402 116.03 124.402 115.431V113.57C124.402 114.182 124.309 114.78 124.123 115.392Z" fill="#EDA939"/>
<path d="M88.8758 116.388C88.5571 115.763 88.3445 115.112 88.2383 114.447V116.308C88.3445 116.973 88.5571 117.611 88.8758 118.249C88.9821 118.489 89.1148 118.715 89.2609 118.941C89.6594 119.565 90.1508 120.164 90.7352 120.735V118.874C90.1508 118.302 89.6594 117.704 89.2609 117.079C89.1281 116.867 88.9953 116.627 88.8758 116.388Z" fill="#EDA939"/>
<path d="M119.396 120.788C118.559 121.306 117.643 121.758 116.66 122.144V124.005C117.643 123.606 118.559 123.154 119.396 122.649C119.688 122.476 119.967 122.29 120.233 122.104C120.95 121.612 121.588 121.054 122.145 120.482V118.621C121.588 119.206 120.95 119.751 120.233 120.256C119.954 120.429 119.675 120.615 119.396 120.788Z" fill="#EDA939"/>
<path d="M93.7766 121.095C93.6969 121.055 93.6172 121.002 93.5508 120.962C92.7672 120.51 92.05 120.018 91.4258 119.5V121.361C92.05 121.88 92.7539 122.371 93.5508 122.823C93.6305 122.863 93.7102 122.917 93.7766 122.956C94.0821 123.116 94.3876 123.289 94.7196 123.435C95.5696 123.847 96.5259 124.219 97.5352 124.552V122.691C96.5259 122.358 95.5829 121.986 94.7196 121.574C94.3876 121.428 94.0821 121.255 93.7766 121.095Z" fill="#EDA939"/>
<path d="M111.308 123.62C110.219 123.793 109.103 123.926 107.961 123.979V125.84C109.103 125.787 110.219 125.654 111.308 125.481C111.72 125.414 112.118 125.335 112.503 125.255C113.579 125.029 114.602 124.75 115.584 124.404V122.543C114.602 122.889 113.579 123.168 112.503 123.394C112.118 123.474 111.72 123.553 111.308 123.62Z" fill="#EDA939"/>
<path d="M101.863 123.699C100.773 123.54 99.6977 123.314 98.6484 123.021V124.883C99.6977 125.162 100.787 125.388 101.863 125.561C102.274 125.614 102.673 125.667 103.084 125.72C104.28 125.853 105.488 125.906 106.684 125.88V124.019C105.488 124.032 104.28 123.979 103.084 123.859C102.686 123.806 102.274 123.753 101.863 123.699Z" fill="#EDA939"/>
<path d="M112.678 105.408C110.527 104.837 108.255 104.571 106.011 104.584L105.852 103.002C107.047 102.989 108.255 103.042 109.451 103.162C109.863 103.201 110.274 103.255 110.673 103.321C111.762 103.481 112.838 103.707 113.887 103.999L112.678 105.408Z" fill="#F7BF63"/>
<path d="M104.761 104.623C102.543 104.743 100.378 105.155 98.4524 105.807L96.9648 104.477C97.9477 104.145 98.9836 103.852 100.059 103.64C100.458 103.56 100.856 103.48 101.255 103.414C102.344 103.227 103.459 103.108 104.602 103.055L104.761 104.623Z" fill="#F7BF63"/>
<path d="M117.138 107.203C116.169 106.645 115.053 106.153 113.805 105.741L115.04 104.332C116.049 104.651 117.005 105.037 117.856 105.449C118.188 105.595 118.493 105.754 118.799 105.927C118.891 105.98 118.984 106.034 119.077 106.087C119.848 106.539 120.538 107.017 121.149 107.523L118.865 108.373C118.347 107.961 117.776 107.576 117.138 107.203Z" fill="#F7BF63"/>
<path d="M97.4024 106.206C95.5829 106.951 94.0157 107.935 92.8602 109.131L90.4297 108.413C90.9875 107.828 91.625 107.283 92.3422 106.778C92.6078 106.592 92.8867 106.406 93.1657 106.233C94.0157 105.728 94.9321 105.262 95.9149 104.877L97.4024 106.206Z" fill="#F7BF63"/>
<path d="M124.338 112.574L121.615 112.667C121.389 111.377 120.685 110.128 119.543 109.011L121.827 108.16C122.412 108.732 122.916 109.33 123.302 109.955C123.448 110.181 123.581 110.407 123.7 110.646C124.006 111.271 124.218 111.909 124.338 112.574Z" fill="#F7BF63"/>
<path d="M92.2896 109.782C91.3068 111.032 90.8552 112.348 90.8951 113.638L88.1724 113.731C88.1458 113.039 88.2388 112.335 88.4513 111.643C88.5177 111.404 88.6107 111.165 88.7169 110.926C88.9826 110.301 89.3677 109.676 89.8591 109.064L92.2896 109.782Z" fill="#F7BF63"/>
<path d="M120.285 117.253C121.268 116.003 121.72 114.687 121.68 113.384L124.402 113.291C124.429 113.982 124.336 114.687 124.137 115.378C124.057 115.617 123.977 115.857 123.871 116.083C123.592 116.721 123.22 117.346 122.729 117.944L120.285 117.253Z" fill="#F7BF63"/>
<path d="M90.9625 114.367C91.1883 115.657 91.8923 116.906 93.0212 118.023L90.7235 118.874C90.1391 118.302 89.6477 117.704 89.2493 117.079C89.1032 116.853 88.9703 116.614 88.8641 116.388C88.5453 115.763 88.3328 115.112 88.2266 114.447L90.9625 114.367Z" fill="#F7BF63"/>
<path d="M119.395 120.789C118.559 121.307 117.642 121.759 116.659 122.145L115.172 120.815C116.991 120.071 118.559 119.087 119.714 117.891L122.145 118.608C121.587 119.193 120.949 119.738 120.232 120.244C119.953 120.43 119.674 120.616 119.395 120.789Z" fill="#F7BF63"/>
<path d="M95.4368 119.818C96.4063 120.377 97.522 120.869 98.7704 121.281L97.5352 122.69C96.5259 122.357 95.5829 121.985 94.7196 121.573C94.3876 121.427 94.0821 121.254 93.7766 121.095C93.6969 121.055 93.6172 121.001 93.5508 120.962C92.7672 120.51 92.05 120.018 91.4258 119.499L93.7102 118.648C94.2149 119.061 94.7993 119.459 95.4368 119.818Z" fill="#F7BF63"/>
<path d="M107.801 122.398C110.019 122.278 112.184 121.866 114.096 121.215L115.57 122.544C114.588 122.89 113.565 123.169 112.489 123.395C112.104 123.475 111.706 123.555 111.294 123.621C110.205 123.794 109.089 123.927 107.947 123.98L107.801 122.398Z" fill="#F7BF63"/>
<path d="M99.8883 121.613C102.04 122.185 104.311 122.451 106.556 122.437L106.715 124.019C105.52 124.033 104.311 123.98 103.116 123.86C102.704 123.82 102.292 123.767 101.894 123.7C100.805 123.541 99.7289 123.315 98.6797 123.022L99.8883 121.613Z" fill="#F7BF63"/>
<path d="M111.085 109.092L108.628 111.883C108.309 112.256 107.897 112.309 107.459 112.176C107.353 112.149 107.273 112.109 107.193 112.07C106.954 111.937 106.928 111.737 107.167 111.445L109.624 108.64C109.942 108.268 110.354 108.214 110.792 108.347C110.899 108.374 110.978 108.414 111.058 108.454C111.297 108.6 111.337 108.799 111.085 109.092Z" fill="#F7BF63"/>
<path d="M108.214 106.738L107.563 107.483L105.12 106.751L103.924 107.948C104.402 107.775 104.92 107.762 105.478 107.935C105.678 107.988 105.837 108.054 105.97 108.134C106.541 108.466 106.541 108.958 105.996 109.583L104.987 110.74C104.27 111.564 103.127 111.83 101.746 111.418C101.441 111.325 101.188 111.218 100.989 111.112C100.285 110.7 100.219 110.141 100.79 109.503L101.162 109.078L102.49 109.463L102.065 109.942C101.813 110.221 101.852 110.421 102.092 110.553C102.158 110.593 102.251 110.633 102.357 110.66C102.809 110.793 103.207 110.74 103.526 110.367L104.522 109.237C104.761 108.945 104.735 108.759 104.495 108.613C104.429 108.573 104.336 108.533 104.23 108.506C103.792 108.373 103.38 108.426 103.061 108.799L102.928 108.958L101.6 108.559L104.495 105.635L108.214 106.738Z" fill="#E09E2F"/>
<path d="M110.088 112.242C109.357 113.066 108.188 113.319 106.807 112.907C106.502 112.814 106.249 112.708 106.05 112.588C105.346 112.176 105.266 111.617 105.824 110.966L108.188 108.267C108.919 107.443 110.088 107.191 111.469 107.603C111.774 107.696 112.027 107.802 112.226 107.922C112.943 108.334 113.023 108.892 112.452 109.544L110.088 112.242ZM107.458 112.176C107.909 112.309 108.308 112.256 108.627 111.883L111.084 109.092C111.323 108.799 111.296 108.6 111.057 108.467C110.991 108.427 110.898 108.387 110.791 108.36C110.34 108.228 109.941 108.281 109.623 108.653L107.166 111.458C106.913 111.737 106.953 111.936 107.192 112.083C107.272 112.109 107.352 112.149 107.458 112.176Z" fill="#E09E2F"/>
<path d="M118.47 113.12C115.056 117.015 106.835 118.557 100.101 116.563C98.7864 116.177 97.6309 115.685 96.6481 115.114C92.5574 112.747 91.3488 109.038 94.0981 105.901C97.5114 102.006 105.733 100.464 112.48 102.458C113.781 102.843 114.937 103.335 115.933 103.907C120.01 106.273 121.219 109.982 118.47 113.12ZM101.761 111.418C103.143 111.817 104.272 111.564 105.002 110.74L106.012 109.583C106.556 108.959 106.556 108.467 105.985 108.134C105.852 108.055 105.693 107.988 105.494 107.935C104.936 107.775 104.404 107.775 103.94 107.948L105.135 106.752L107.579 107.483L108.23 106.738L104.524 105.635L101.629 108.56L102.957 108.959L103.09 108.799C103.408 108.427 103.82 108.374 104.258 108.507C104.365 108.533 104.444 108.573 104.524 108.613C104.763 108.746 104.79 108.945 104.551 109.238L103.554 110.368C103.236 110.74 102.837 110.793 102.386 110.66C102.279 110.634 102.186 110.594 102.12 110.554C101.881 110.421 101.841 110.221 102.093 109.942L102.519 109.464L101.19 109.078L100.818 109.504C100.247 110.155 100.314 110.713 101.018 111.112C101.204 111.232 101.456 111.338 101.761 111.418ZM106.808 112.92C108.19 113.332 109.358 113.08 110.089 112.255L112.453 109.57C113.024 108.919 112.931 108.36 112.227 107.948C112.028 107.829 111.776 107.722 111.47 107.629C110.089 107.217 108.92 107.47 108.19 108.294L105.826 110.992C105.268 111.631 105.347 112.202 106.051 112.614C106.251 112.721 106.503 112.827 106.808 112.92Z" fill="#F7BF63"/>
<path d="M88.1602 111.592C88.1602 111.831 88.2 112.083 88.2266 112.323V110.462C88.1867 110.222 88.1602 109.97 88.1602 109.73V111.592Z" fill="#E09E2F"/>
<path d="M115.586 120.404C115.958 120.285 116.303 120.152 116.648 120.006V118.145C116.303 118.277 115.958 118.41 115.586 118.543V120.404Z" fill="#E09E2F"/>
<path d="M121.683 109.384L124.406 109.291C124.393 109.039 124.366 108.799 124.34 108.56L121.617 108.653C121.391 107.364 120.687 106.114 119.545 104.997L121.829 104.147C121.617 103.934 121.391 103.735 121.152 103.535L118.868 104.386C118.363 103.974 117.792 103.575 117.154 103.203C116.185 102.644 115.069 102.153 113.821 101.74L115.056 100.331C114.87 100.278 114.697 100.212 114.511 100.159C114.325 100.105 114.126 100.052 113.94 99.999L112.705 101.408C110.553 100.836 108.282 100.571 106.038 100.584L105.878 99.002C105.453 99.002 105.028 99.0152 104.617 99.0418L104.776 100.624C102.558 100.743 100.393 101.156 98.4674 101.807L96.9798 100.478C96.6212 100.611 96.2759 100.73 95.9306 100.876L97.4181 102.206C95.5986 102.95 94.0313 103.934 92.8758 105.13L90.4454 104.413C90.3391 104.519 90.2461 104.625 90.1532 104.732C90.0602 104.838 89.9672 104.958 89.8743 105.064L92.3048 105.782C91.3219 107.031 90.8704 108.347 90.9102 109.637L88.1875 109.73C88.1875 109.969 88.2274 110.222 88.2539 110.461L90.9766 110.368C91.2024 111.658 91.9063 112.907 93.0353 114.024L90.7376 114.875V116.736C90.9501 116.949 91.1759 117.148 91.4149 117.347V115.486L93.6993 114.635C94.204 115.061 94.7884 115.446 95.4126 115.819C96.3821 116.377 97.4978 116.869 98.7463 117.281L97.5111 118.69V120.551C97.697 120.604 97.883 120.671 98.0689 120.724C98.2548 120.777 98.4408 120.83 98.6267 120.884V119.022L99.8619 117.613C102.013 118.185 104.285 118.451 106.529 118.437L106.689 120.019V121.881C107.114 121.881 107.539 121.867 107.95 121.841V119.98L107.791 118.398C110.009 118.278 112.174 117.866 114.086 117.214L115.561 118.544C115.932 118.424 116.278 118.291 116.623 118.145L115.136 116.816C116.955 116.071 118.522 115.087 119.678 113.891L122.108 114.609C122.215 114.503 122.308 114.396 122.4 114.29C122.308 114.396 122.201 114.516 122.108 114.609V116.47C122.215 116.364 122.308 116.257 122.4 116.151C122.493 116.045 122.586 115.938 122.679 115.819V113.957L120.249 113.24C121.272 112.003 121.723 110.687 121.683 109.384ZM118.469 113.12C115.056 117.015 106.835 118.557 100.101 116.563C98.7861 116.178 97.6306 115.686 96.6478 115.114C92.5571 112.748 91.3485 109.039 94.0978 105.901C97.5111 102.006 105.732 100.464 112.479 102.458C113.781 102.844 114.936 103.336 115.932 103.907C120.01 106.274 121.218 109.983 118.469 113.12Z" fill="#E09E2F"/>
<path d="M124.123 111.392C124.043 111.631 123.963 111.87 123.857 112.096C123.578 112.734 123.193 113.359 122.715 113.957V115.818C123.206 115.207 123.578 114.582 123.857 113.957C123.963 113.718 124.043 113.479 124.123 113.253C124.309 112.641 124.402 112.03 124.402 111.431V109.57C124.402 110.182 124.309 110.78 124.123 111.392Z" fill="#EDA939"/>
<path d="M88.8758 112.388C88.5571 111.763 88.3445 111.112 88.2383 110.447V112.308C88.3445 112.973 88.5571 113.611 88.8758 114.249C88.9821 114.489 89.1148 114.715 89.2609 114.941C89.6594 115.565 90.1508 116.164 90.7352 116.735V114.874C90.1508 114.302 89.6594 113.704 89.2609 113.079C89.1281 112.867 88.9953 112.627 88.8758 112.388Z" fill="#EDA939"/>
<path d="M119.396 116.788C118.559 117.306 117.643 117.758 116.66 118.144V120.005C117.643 119.606 118.559 119.154 119.396 118.649C119.688 118.476 119.967 118.29 120.233 118.104C120.95 117.612 121.588 117.054 122.145 116.482V114.621C121.588 115.206 120.95 115.751 120.233 116.256C119.954 116.429 119.675 116.615 119.396 116.788Z" fill="#EDA939"/>
<path d="M93.7766 117.095C93.6969 117.055 93.6172 117.002 93.5508 116.962C92.7672 116.51 92.05 116.018 91.4258 115.5V117.361C92.05 117.88 92.7539 118.371 93.5508 118.823C93.6305 118.863 93.7102 118.917 93.7766 118.956C94.0821 119.116 94.3876 119.289 94.7196 119.435C95.5696 119.847 96.5259 120.219 97.5352 120.552V118.691C96.5259 118.358 95.5829 117.986 94.7196 117.574C94.3876 117.428 94.0821 117.255 93.7766 117.095Z" fill="#EDA939"/>
<path d="M111.308 119.62C110.219 119.793 109.103 119.926 107.961 119.979V121.84C109.103 121.787 110.219 121.654 111.308 121.481C111.72 121.414 112.118 121.335 112.503 121.255C113.579 121.029 114.602 120.75 115.584 120.404V118.543C114.602 118.889 113.579 119.168 112.503 119.394C112.118 119.474 111.72 119.553 111.308 119.62Z" fill="#EDA939"/>
<path d="M101.863 119.699C100.773 119.54 99.6977 119.314 98.6484 119.021V120.883C99.6977 121.162 100.787 121.388 101.863 121.561C102.274 121.614 102.673 121.667 103.084 121.72C104.28 121.853 105.488 121.906 106.684 121.88V120.019C105.488 120.032 104.28 119.979 103.084 119.859C102.686 119.806 102.274 119.753 101.863 119.699Z" fill="#EDA939"/>
<path d="M112.678 101.408C110.527 100.837 108.255 100.571 106.011 100.584L105.852 99.002C107.047 98.9887 108.255 99.0419 109.451 99.1615C109.863 99.2014 110.274 99.2546 110.673 99.321C111.762 99.4806 112.838 99.7066 113.887 99.999L112.678 101.408Z" fill="#F7BF63"/>
<path d="M104.761 100.623C102.543 100.743 100.378 101.155 98.4524 101.807L96.9648 100.477C97.9477 100.145 98.9836 99.8523 100.059 99.6396C100.458 99.5599 100.856 99.4801 101.255 99.4136C102.344 99.2275 103.459 99.1079 104.602 99.0547L104.761 100.623Z" fill="#F7BF63"/>
<path d="M117.138 103.203C116.169 102.645 115.053 102.153 113.805 101.741L115.04 100.332C116.049 100.651 117.005 101.037 117.856 101.449C118.188 101.595 118.493 101.754 118.799 101.927C118.891 101.98 118.984 102.034 119.077 102.087C119.848 102.539 120.538 103.017 121.149 103.523L118.865 104.373C118.347 103.961 117.776 103.576 117.138 103.203Z" fill="#F7BF63"/>
<path d="M97.4024 102.206C95.5829 102.951 94.0157 103.935 92.8602 105.131L90.4297 104.413C90.9875 103.828 91.625 103.283 92.3422 102.778C92.6078 102.592 92.8867 102.406 93.1657 102.233C94.0157 101.728 94.9321 101.262 95.9149 100.877L97.4024 102.206Z" fill="#F7BF63"/>
<path d="M124.338 108.574L121.615 108.667C121.389 107.377 120.685 106.128 119.543 105.011L121.827 104.16C122.412 104.732 122.916 105.33 123.302 105.955C123.448 106.181 123.581 106.407 123.7 106.646C124.006 107.271 124.218 107.909 124.338 108.574Z" fill="#F7BF63"/>
<path d="M92.2896 105.782C91.3068 107.032 90.8552 108.348 90.8951 109.638L88.1724 109.731C88.1458 109.039 88.2388 108.335 88.4513 107.643C88.5177 107.404 88.6107 107.165 88.7169 106.926C88.9826 106.301 89.3677 105.676 89.8591 105.064L92.2896 105.782Z" fill="#F7BF63"/>
<path d="M120.285 113.253C121.268 112.003 121.72 110.687 121.68 109.384L124.402 109.291C124.429 109.982 124.336 110.687 124.137 111.378C124.057 111.617 123.977 111.857 123.871 112.083C123.592 112.721 123.22 113.346 122.729 113.944L120.285 113.253Z" fill="#F7BF63"/>
<path d="M90.9625 110.367C91.1883 111.657 91.8923 112.906 93.0212 114.023L90.7235 114.874C90.1391 114.302 89.6477 113.704 89.2493 113.079C89.1032 112.853 88.9703 112.614 88.8641 112.388C88.5453 111.763 88.3328 111.112 88.2266 110.447L90.9625 110.367Z" fill="#F7BF63"/>
<path d="M119.395 116.789C118.559 117.307 117.642 117.759 116.659 118.145L115.172 116.815C116.991 116.071 118.559 115.087 119.714 113.891L122.145 114.608C121.587 115.193 120.949 115.738 120.232 116.244C119.953 116.43 119.674 116.616 119.395 116.789Z" fill="#F7BF63"/>
<path d="M95.4368 115.818C96.4063 116.377 97.522 116.869 98.7704 117.281L97.5352 118.69C96.5259 118.357 95.5829 117.985 94.7196 117.573C94.3876 117.427 94.0821 117.254 93.7766 117.095C93.6969 117.055 93.6172 117.001 93.5508 116.962C92.7672 116.51 92.05 116.018 91.4258 115.499L93.7102 114.648C94.2149 115.061 94.7993 115.459 95.4368 115.818Z" fill="#F7BF63"/>
<path d="M107.801 118.398C110.019 118.278 112.184 117.866 114.096 117.215L115.57 118.544C114.588 118.89 113.565 119.169 112.489 119.395C112.104 119.475 111.706 119.555 111.294 119.621C110.205 119.794 109.089 119.927 107.947 119.98L107.801 118.398Z" fill="#F7BF63"/>
<path d="M99.8883 117.613C102.04 118.185 104.311 118.451 106.556 118.437L106.715 120.019C105.52 120.033 104.311 119.98 103.116 119.86C102.704 119.82 102.292 119.767 101.894 119.7C100.805 119.541 99.7289 119.315 98.6797 119.022L99.8883 117.613Z" fill="#F7BF63"/>
<path d="M111.085 105.092L108.628 107.883C108.309 108.256 107.897 108.309 107.459 108.176C107.353 108.149 107.273 108.109 107.193 108.07C106.954 107.937 106.928 107.737 107.167 107.445L109.624 104.64C109.942 104.268 110.354 104.214 110.792 104.347C110.899 104.374 110.978 104.414 111.058 104.454C111.297 104.6 111.337 104.799 111.085 105.092Z" fill="#F7BF63"/>
<path d="M108.214 102.738L107.563 103.483L105.12 102.751L103.924 103.948C104.402 103.775 104.92 103.762 105.478 103.935C105.678 103.988 105.837 104.054 105.97 104.134C106.541 104.466 106.541 104.958 105.996 105.583L104.987 106.74C104.27 107.564 103.127 107.83 101.746 107.418C101.441 107.325 101.188 107.218 100.989 107.112C100.285 106.7 100.219 106.141 100.79 105.503L101.162 105.078L102.49 105.463L102.065 105.942C101.813 106.221 101.852 106.421 102.092 106.553C102.158 106.593 102.251 106.633 102.357 106.66C102.809 106.793 103.207 106.74 103.526 106.367L104.522 105.237C104.761 104.945 104.735 104.759 104.495 104.613C104.429 104.573 104.336 104.533 104.23 104.506C103.792 104.373 103.38 104.426 103.061 104.799L102.928 104.958L101.6 104.559L104.495 101.635L108.214 102.738Z" fill="#E09E2F"/>
<path d="M110.088 108.242C109.357 109.066 108.188 109.319 106.807 108.907C106.502 108.814 106.249 108.708 106.05 108.588C105.346 108.176 105.266 107.617 105.824 106.966L108.188 104.267C108.919 103.443 110.088 103.191 111.469 103.603C111.774 103.696 112.027 103.802 112.226 103.922C112.943 104.334 113.023 104.892 112.452 105.544L110.088 108.242ZM107.458 108.176C107.909 108.309 108.308 108.256 108.627 107.883L111.084 105.092C111.323 104.799 111.296 104.6 111.057 104.467C110.991 104.427 110.898 104.387 110.791 104.36C110.34 104.228 109.941 104.281 109.623 104.653L107.166 107.458C106.913 107.737 106.953 107.936 107.192 108.083C107.272 108.109 107.352 108.149 107.458 108.176Z" fill="#E09E2F"/>
<path d="M118.47 109.12C115.056 113.015 106.835 114.557 100.101 112.563C98.7864 112.177 97.6309 111.685 96.6481 111.114C92.5574 108.747 91.3488 105.038 94.0981 101.901C97.5114 98.0059 105.733 96.4638 112.48 98.4579C113.781 98.8434 114.937 99.3353 115.933 99.9069C120.01 102.273 121.219 105.982 118.47 109.12ZM101.761 107.418C103.143 107.817 104.272 107.564 105.002 106.74L106.012 105.583C106.556 104.959 106.556 104.467 105.985 104.134C105.852 104.055 105.693 103.988 105.494 103.935C104.936 103.775 104.404 103.775 103.94 103.948L105.135 102.752L107.579 103.483L108.23 102.738L104.524 101.635L101.629 104.56L102.957 104.959L103.09 104.799C103.408 104.427 103.82 104.374 104.258 104.507C104.365 104.533 104.444 104.573 104.524 104.613C104.763 104.746 104.79 104.945 104.551 105.238L103.554 106.368C103.236 106.74 102.837 106.793 102.386 106.66C102.279 106.634 102.186 106.594 102.12 106.554C101.881 106.421 101.841 106.221 102.093 105.942L102.519 105.464L101.19 105.078L100.818 105.504C100.247 106.155 100.314 106.713 101.018 107.112C101.204 107.232 101.456 107.338 101.761 107.418ZM106.808 108.92C108.19 109.332 109.358 109.08 110.089 108.255L112.453 105.57C113.024 104.919 112.931 104.36 112.227 103.948C112.028 103.829 111.776 103.722 111.47 103.629C110.089 103.217 108.92 103.47 108.19 104.294L105.826 106.992C105.268 107.631 105.347 108.202 106.051 108.614C106.251 108.721 106.503 108.827 106.808 108.92Z" fill="#F7BF63"/>
<path d="M88.1602 107.592C88.1602 107.831 88.2 108.083 88.2266 108.323V106.462C88.1867 106.222 88.1602 105.97 88.1602 105.73V107.592Z" fill="#E09E2F"/>
<path d="M115.586 116.404C115.958 116.285 116.303 116.152 116.648 116.006V114.145C116.303 114.277 115.958 114.41 115.586 114.543V116.404Z" fill="#E09E2F"/>
<path d="M121.683 105.384L124.406 105.291C124.393 105.039 124.366 104.799 124.34 104.56L121.617 104.653C121.391 103.364 120.687 102.114 119.545 100.997L121.829 100.147C121.617 99.9339 121.391 99.7345 121.152 99.5351L118.868 100.386C118.363 99.9738 117.792 99.575 117.154 99.2028C116.185 98.6445 115.069 98.1526 113.821 97.7405L115.056 96.3313C114.87 96.2782 114.697 96.2117 114.511 96.1585C114.325 96.1053 114.126 96.0522 113.94 95.999L112.705 97.4081C110.553 96.8365 108.282 96.5706 106.038 96.5839L105.878 95.002C105.453 95.002 105.028 95.0152 104.617 95.0418L104.776 96.6238C102.558 96.7434 100.393 97.1556 98.4674 97.807L96.9798 96.4776C96.6212 96.6105 96.2759 96.7302 95.9306 96.8764L97.4181 98.2058C95.5986 98.9502 94.0313 99.934 92.8758 101.13L90.4454 100.413C90.3391 100.519 90.2461 100.625 90.1532 100.732C90.0602 100.838 89.9672 100.958 89.8743 101.064L92.3048 101.782C91.3219 103.031 90.8704 104.347 90.9102 105.637L88.1875 105.73C88.1875 105.969 88.2274 106.222 88.2539 106.461L90.9766 106.368C91.2024 107.658 91.9063 108.907 93.0353 110.024L90.7376 110.875V112.736C90.9501 112.949 91.1759 113.148 91.4149 113.347V111.486L93.6993 110.635C94.204 111.061 94.7884 111.446 95.4126 111.819C96.3821 112.377 97.4978 112.869 98.7463 113.281L97.5111 114.69V116.551C97.697 116.604 97.883 116.671 98.0689 116.724C98.2548 116.777 98.4408 116.83 98.6267 116.884V115.022L99.8619 113.613C102.013 114.185 104.285 114.451 106.529 114.437L106.689 116.019V117.881C107.114 117.881 107.539 117.867 107.95 117.841V115.98L107.791 114.398C110.009 114.278 112.174 113.866 114.086 113.214L115.561 114.544C115.932 114.424 116.278 114.291 116.623 114.145L115.136 112.816C116.955 112.071 118.522 111.087 119.678 109.891L122.108 110.609C122.215 110.503 122.308 110.396 122.4 110.29C122.308 110.396 122.201 110.516 122.108 110.609V112.47C122.215 112.364 122.308 112.257 122.4 112.151C122.493 112.045 122.586 111.938 122.679 111.819V109.957L120.249 109.24C121.272 108.003 121.723 106.687 121.683 105.384ZM118.469 109.12C115.056 113.015 106.835 114.557 100.101 112.563C98.7861 112.178 97.6306 111.686 96.6478 111.114C92.5571 108.748 91.3485 105.039 94.0978 101.901C97.5111 98.0064 105.732 96.4643 112.479 98.4583C113.781 98.8439 114.936 99.3357 115.932 99.9074C120.01 102.274 121.218 105.983 118.469 109.12Z" fill="#E09E2F"/>
<path d="M124.123 107.392C124.043 107.631 123.963 107.87 123.857 108.096C123.578 108.734 123.193 109.359 122.715 109.957V111.818C123.206 111.207 123.578 110.582 123.857 109.957C123.963 109.718 124.043 109.479 124.123 109.253C124.309 108.641 124.402 108.03 124.402 107.431V105.57C124.402 106.182 124.309 106.78 124.123 107.392Z" fill="#EDA939"/>
<path d="M88.8758 108.388C88.5571 107.763 88.3445 107.112 88.2383 106.447V108.308C88.3445 108.973 88.5571 109.611 88.8758 110.249C88.9821 110.489 89.1148 110.715 89.2609 110.941C89.6594 111.565 90.1508 112.164 90.7352 112.735V110.874C90.1508 110.302 89.6594 109.704 89.2609 109.079C89.1281 108.867 88.9953 108.627 88.8758 108.388Z" fill="#EDA939"/>
<path d="M119.396 112.788C118.559 113.306 117.643 113.758 116.66 114.144V116.005C117.643 115.606 118.559 115.154 119.396 114.649C119.688 114.476 119.967 114.29 120.233 114.104C120.95 113.612 121.588 113.054 122.145 112.482V110.621C121.588 111.206 120.95 111.751 120.233 112.256C119.954 112.429 119.675 112.615 119.396 112.788Z" fill="#EDA939"/>
<path d="M93.7766 113.095C93.6969 113.055 93.6172 113.002 93.5508 112.962C92.7672 112.51 92.05 112.018 91.4258 111.5V113.361C92.05 113.88 92.7539 114.371 93.5508 114.823C93.6305 114.863 93.7102 114.917 93.7766 114.956C94.0821 115.116 94.3876 115.289 94.7196 115.435C95.5696 115.847 96.5259 116.219 97.5352 116.552V114.691C96.5259 114.358 95.5829 113.986 94.7196 113.574C94.3876 113.428 94.0821 113.255 93.7766 113.095Z" fill="#EDA939"/>
<path d="M111.308 115.62C110.219 115.793 109.103 115.926 107.961 115.979V117.84C109.103 117.787 110.219 117.654 111.308 117.481C111.72 117.414 112.118 117.335 112.503 117.255C113.579 117.029 114.602 116.75 115.584 116.404V114.543C114.602 114.889 113.579 115.168 112.503 115.394C112.118 115.474 111.72 115.553 111.308 115.62Z" fill="#EDA939"/>
<path d="M101.863 115.699C100.773 115.54 99.6977 115.314 98.6484 115.021V116.883C99.6977 117.162 100.787 117.388 101.863 117.561C102.274 117.614 102.673 117.667 103.084 117.72C104.28 117.853 105.488 117.906 106.684 117.88V116.019C105.488 116.032 104.28 115.979 103.084 115.859C102.686 115.806 102.274 115.753 101.863 115.699Z" fill="#EDA939"/>
<path d="M112.678 97.4082C110.527 96.8365 108.255 96.5707 106.011 96.584L105.852 95.002C107.047 94.9887 108.255 95.0419 109.451 95.1615C109.863 95.2014 110.274 95.2546 110.673 95.321C111.762 95.4806 112.838 95.7066 113.887 95.999L112.678 97.4082Z" fill="#F7BF63"/>
<path d="M104.761 96.6233C102.543 96.743 100.378 97.1551 98.4524 97.8065L96.9648 96.4771C97.9477 96.1448 98.9836 95.8523 100.059 95.6396C100.458 95.5599 100.856 95.4801 101.255 95.4136C102.344 95.2275 103.459 95.1079 104.602 95.0547L104.761 96.6233Z" fill="#F7BF63"/>
<path d="M117.138 99.2035C116.169 98.6452 115.053 98.1533 113.805 97.7412L115.04 96.332C116.049 96.6511 117.005 97.0366 117.856 97.4487C118.188 97.5949 118.493 97.7545 118.799 97.9273C118.891 97.9805 118.984 98.0336 119.077 98.0868C119.848 98.5388 120.538 99.0174 121.149 99.5225L118.865 100.373C118.347 99.9612 117.776 99.5757 117.138 99.2035Z" fill="#F7BF63"/>
<path d="M97.4024 98.2063C95.5829 98.9508 94.0157 99.9345 92.8602 101.131L90.4297 100.413C90.9875 99.8282 91.625 99.2831 92.3422 98.778C92.6078 98.5918 92.8867 98.4057 93.1657 98.2329C94.0157 97.7277 94.9321 97.2625 95.9149 96.877L97.4024 98.2063Z" fill="#F7BF63"/>
<path d="M124.338 104.574L121.615 104.667C121.389 103.377 120.685 102.128 119.543 101.011L121.827 100.16C122.412 100.732 122.916 101.33 123.302 101.955C123.448 102.181 123.581 102.407 123.7 102.646C124.006 103.271 124.218 103.909 124.338 104.574Z" fill="#F7BF63"/>
<path d="M92.2896 101.782C91.3068 103.032 90.8552 104.348 90.8951 105.638L88.1724 105.731C88.1458 105.039 88.2388 104.335 88.4513 103.643C88.5177 103.404 88.6107 103.165 88.7169 102.926C88.9826 102.301 89.3677 101.676 89.8591 101.064L92.2896 101.782Z" fill="#F7BF63"/>
<path d="M120.285 109.253C121.268 108.003 121.72 106.687 121.68 105.384L124.402 105.291C124.429 105.982 124.336 106.687 124.137 107.378C124.057 107.617 123.977 107.857 123.871 108.083C123.592 108.721 123.22 109.346 122.729 109.944L120.285 109.253Z" fill="#F7BF63"/>
<path d="M90.9625 106.367C91.1883 107.657 91.8923 108.906 93.0212 110.023L90.7235 110.874C90.1391 110.302 89.6477 109.704 89.2493 109.079C89.1032 108.853 88.9703 108.614 88.8641 108.388C88.5453 107.763 88.3328 107.112 88.2266 106.447L90.9625 106.367Z" fill="#F7BF63"/>
<path d="M119.395 112.789C118.559 113.307 117.642 113.759 116.659 114.145L115.172 112.815C116.991 112.071 118.559 111.087 119.714 109.891L122.145 110.608C121.587 111.193 120.949 111.738 120.232 112.244C119.953 112.43 119.674 112.616 119.395 112.789Z" fill="#F7BF63"/>
<path d="M95.4368 111.818C96.4063 112.377 97.522 112.869 98.7704 113.281L97.5352 114.69C96.5259 114.357 95.5829 113.985 94.7196 113.573C94.3876 113.427 94.0821 113.254 93.7766 113.095C93.6969 113.055 93.6172 113.001 93.5508 112.962C92.7672 112.51 92.05 112.018 91.4258 111.499L93.7102 110.648C94.2149 111.061 94.7993 111.459 95.4368 111.818Z" fill="#F7BF63"/>
<path d="M107.801 114.398C110.019 114.278 112.184 113.866 114.096 113.215L115.57 114.544C114.588 114.89 113.565 115.169 112.489 115.395C112.104 115.475 111.706 115.555 111.294 115.621C110.205 115.794 109.089 115.927 107.947 115.98L107.801 114.398Z" fill="#F7BF63"/>
<path d="M99.8883 113.613C102.04 114.185 104.311 114.451 106.556 114.437L106.715 116.019C105.52 116.033 104.311 115.98 103.116 115.86C102.704 115.82 102.292 115.767 101.894 115.7C100.805 115.541 99.7289 115.315 98.6797 115.022L99.8883 113.613Z" fill="#F7BF63"/>
</svg>
