<svg width="1925" height="558" viewBox="0 0 1925 558" fill="none" xmlns="http://www.w3.org/2000/svg">
    <g clip-path="url(#clip0_592:39055)">
        <path fill-rule="evenodd" clip-rule="evenodd" d="M1925 133.167C1844.79 142.789 1604.17 258.121 1443.75 248.5C1283.33 238.879 1061.5 400.998 877.5 401C693.5 401.002 515.5 220.999 338 220.999C160.5 220.999 8.27796e-06 306.349 8.27796e-06 306.349L3.50706e-05 -0.000961679L80.2084 -0.000954669C160.417 -0.00094766 320.833 -0.000933642 481.25 -0.000919623C641.667 -0.000905605 802.083 -0.000891586 962.5 -0.000877568C1122.92 -0.000863549 1283.33 -0.000849531 1443.75 -0.000835512C1604.17 -0.000821494 1764.58 -0.000807475 1844.79 -0.000800466L1925 -0.000793457L1925 133.167Z" fill="transparent" />
        <path fill-rule="evenodd" clip-rule="evenodd" d="M1925 133.169C1844.79 142.79 1801.92 515.121 1641.5 505.5C1481.08 495.879 1157.42 287.773 997 345.5C836.583 403.227 547.5 505.5 370 505.5C192.5 505.5 1.74332e-05 306.35 1.74332e-05 306.35L4.42259e-05 0.00044213L80.2084 0.000449139C160.417 0.000456148 320.833 0.000470167 481.25 0.000484185C641.667 0.000498204 802.083 0.000512222 962.5 0.000526241C1122.92 0.000540259 1283.33 0.000554278 1443.75 0.000568296C1604.17 0.000582315 1764.58 0.000596333 1844.79 0.000603342L1925 0.000610352L1925 133.169Z" fill="#E9EEFF">
            <animate attributeName="d" dur="10s" repeatCount="indefinite" values="
            M1925 133.167C1844.79 142.789 1604.17 258.121 1443.75 248.5C1283.33 238.879 1061.5 400.998 877.5 401C693.5 401.002 515.5 220.999 338 220.999C160.5 220.999 8.27796e-06 306.349 8.27796e-06 306.349L3.50706e-05 -0.000961679L80.2084 -0.000954669C160.417 -0.00094766 320.833 -0.000933642 481.25 -0.000919623C641.667 -0.000905605 802.083 -0.000891586 962.5 -0.000877568C1122.92 -0.000863549 1283.33 -0.000849531 1443.75 -0.000835512C1604.17 -0.000821494 1764.58 -0.000807475 1844.79 -0.000800466L1925 -0.000793457L1925 133.167Z;
            M1925 133.169C1844.79 142.79 1801.92 515.121 1641.5 505.5C1481.08 495.879 1157.42 287.773 997 345.5C836.583 403.227 547.5 505.5 370 505.5C192.5 505.5 1.74332e-05 306.35 1.74332e-05 306.35L4.42259e-05 0.00044213L80.2084 0.000449139C160.417 0.000456148 320.833 0.000470167 481.25 0.000484185C641.667 0.000498204 802.083 0.000512222 962.5 0.000526241C1122.92 0.000540259 1283.33 0.000554278 1443.75 0.000568296C1604.17 0.000582315 1764.58 0.000596333 1844.79 0.000603342L1925 0.000610352L1925 133.169Z;
            M1925 133.167C1844.79 142.789 1604.17 258.121 1443.75 248.5C1283.33 238.879 1061.5 400.998 877.5 401C693.5 401.002 515.5 220.999 338 220.999C160.5 220.999 8.27796e-06 306.349 8.27796e-06 306.349L3.50706e-05 -0.000961679L80.2084 -0.000954669C160.417 -0.00094766 320.833 -0.000933642 481.25 -0.000919623C641.667 -0.000905605 802.083 -0.000891586 962.5 -0.000877568C1122.92 -0.000863549 1283.33 -0.000849531 1443.75 -0.000835512C1604.17 -0.000821494 1764.58 -0.000807475 1844.79 -0.000800466L1925 -0.000793457L1925 133.167Z;
            " />
        </path>
    </g>
    <defs>
        <clipPath id="clip0_592:39055">
            <rect width="1925" height="558" fill="white" />
        </clipPath>
    </defs>
</svg>