<svg width="1139" height="1125" viewBox="0 0 1139 1125" fill="none" xmlns="http://www.w3.org/2000/svg">
    <g clip-path="url(#clip0_589:39036)">
        <path fill-rule="evenodd" clip-rule="evenodd" d="M1194.31 -112.384C1309.33 -29.7777 1442.82 41.016 1495.24 172.569C1550.39 310.986 1533.56 368.802 1481.51 508.413C1429.39 648.196 1344.67 791.494 1206.35 847.389C1074.49 900.675 945.759 945.119 803.566 948C644.488 951.223 539.481 782.348 401.566 703C266.513 625.298 347.064 544.107 309.066 393C272.165 246.252 57.7051 236.098 117.547 97.1178C176.982 -40.9184 347.596 -80.9925 480.139 -151.837C598.625 -215.169 713.016 -300.275 847.161 -292.865C980.649 -285.49 1085.72 -190.37 1194.31 -112.384Z" fill="transparent" />
        <path fill-rule="evenodd" clip-rule="evenodd" d="M1194.29 -184.592C1309.32 -101.986 1442.81 -31.1919 1495.23 100.362C1550.38 238.778 1533.55 296.594 1481.49 436.205C1429.38 575.988 1344.65 719.286 1206.34 775.181C1074.47 828.467 953.689 700.411 811.496 703.292C652.417 706.515 373.91 822.643 235.996 743.295C100.942 665.593 155.531 499.899 117.534 348.792C80.6329 202.044 240.656 239.345 300.498 100.365C359.933 -37.6714 347.583 -153.2 480.126 -224.045C598.612 -287.376 713.004 -372.483 847.148 -365.073C980.636 -357.698 1085.7 -262.578 1194.29 -184.592Z" fill="transparent" />
        <path fill-rule="evenodd" clip-rule="evenodd" d="M1194.24 -112.384C1309.26 -29.7777 1442.76 41.016 1495.17 172.569C1550.33 310.986 1533.5 368.802 1481.44 508.413C1429.32 648.196 1344.6 791.494 1206.28 847.389C1074.42 900.675 936.808 783.082 794.616 785.963C635.537 789.186 473.638 944.372 335.724 865.025C200.67 787.322 222.387 585.981 184.39 434.874C147.489 288.126 57.6387 236.098 117.481 97.1178C176.916 -40.9184 347.53 -80.9926 480.072 -151.837C598.558 -215.169 712.95 -300.275 847.095 -292.865C980.582 -285.49 1085.65 -190.37 1194.24 -112.384Z" fill="#E9EEFF">
            <animate attributeName="d" dur="10s" repeatCount="indefinite" values="
            M1194.31 -112.384C1309.33 -29.7777 1442.82 41.016 1495.24 172.569C1550.39 310.986 1533.56 368.802 1481.51 508.413C1429.39 648.196 1344.67 791.494 1206.35 847.389C1074.49 900.675 945.759 945.119 803.566 948C644.488 951.223 539.481 782.348 401.566 703C266.513 625.298 347.064 544.107 309.066 393C272.165 246.252 57.7051 236.098 117.547 97.1178C176.982 -40.9184 347.596 -80.9925 480.139 -151.837C598.625 -215.169 713.016 -300.275 847.161 -292.865C980.649 -285.49 1085.72 -190.37 1194.31 -112.384Z;
            M1194.29 -184.592C1309.32 -101.986 1442.81 -31.1919 1495.23 100.362C1550.38 238.778 1533.55 296.594 1481.49 436.205C1429.38 575.988 1344.65 719.286 1206.34 775.181C1074.47 828.467 953.689 700.411 811.496 703.292C652.417 706.515 373.91 822.643 235.996 743.295C100.942 665.593 155.531 499.899 117.534 348.792C80.6329 202.044 240.656 239.345 300.498 100.365C359.933 -37.6714 347.583 -153.2 480.126 -224.045C598.612 -287.376 713.004 -372.483 847.148 -365.073C980.636 -357.698 1085.7 -262.578 1194.29 -184.592Z;
            M1194.24 -112.384C1309.26 -29.7777 1442.76 41.016 1495.17 172.569C1550.33 310.986 1533.5 368.802 1481.44 508.413C1429.32 648.196 1344.6 791.494 1206.28 847.389C1074.42 900.675 936.808 783.082 794.616 785.963C635.537 789.186 473.638 944.372 335.724 865.025C200.67 787.322 222.387 585.981 184.39 434.874C147.489 288.126 57.6387 236.098 117.481 97.1178C176.916 -40.9184 347.53 -80.9926 480.072 -151.837C598.558 -215.169 712.95 -300.275 847.095 -292.865C980.582 -285.49 1085.65 -190.37 1194.24 -112.384Z;
            M1194.31 -112.384C1309.33 -29.7777 1442.82 41.016 1495.24 172.569C1550.39 310.986 1533.56 368.802 1481.51 508.413C1429.39 648.196 1344.67 791.494 1206.35 847.389C1074.49 900.675 945.759 945.119 803.566 948C644.488 951.223 539.481 782.348 401.566 703C266.513 625.298 347.064 544.107 309.066 393C272.165 246.252 57.7051 236.098 117.547 97.1178C176.982 -40.9184 347.596 -80.9925 480.139 -151.837C598.625 -215.169 713.016 -300.275 847.161 -292.865C980.649 -285.49 1085.72 -190.37 1194.31 -112.384Z;
            " />
        </path>
    </g>
    <defs>
        <clipPath id="clip0_589:39036">
            <rect width="1139" height="1125" fill="white" />
        </clipPath>
    </defs>
</svg>