<svg width="1920" height="459" viewBox="0 0 1920 459" fill="none" xmlns="http://www.w3.org/2000/svg">
    <g clip-path="url(#clip0_591:39052)">
        <path fill-rule="evenodd" clip-rule="evenodd" d="M0 25.9992L80 35.5825C160 45.1659 320 -41.0843 480 25.9991C640 93.0824 736 207.667 896 188.5C1056 169.333 1252 292.5 1412 292.5C1572 292.5 1760 275.166 1840 351.833L1920 428.499V458.999H1840C1760 458.999 1600 458.999 1440 458.999C1280 458.999 1120 458.999 960 458.999C800 458.999 640 458.999 480 458.999C320 458.999 160 458.999 80 458.999H0V25.9992Z" fill="transparent" />
        <path fill-rule="evenodd" clip-rule="evenodd" d="M0 26L80 35.5833C160 45.1667 268.5 73.4167 428.5 140.5C588.5 207.583 729 74.1675 889 55.0008C1049 35.8341 1280 203.5 1440 203.5C1600 203.5 1760 275.167 1840 351.833L1920 428.5V459H1840C1760 459 1600 459 1440 459C1280 459 1120 459 960 459C800 459 640 459 480 459C320 459 160 459 80 459H0V26Z" fill="transparent" />
        <path fill-rule="evenodd" clip-rule="evenodd" d="M0 26L80 35.5833C160 45.1667 320 64.3333 480 131.417C640 198.5 800 313.5 960 294.333C1120 275.167 1280 121.833 1440 121.833C1600 121.833 1760 275.167 1840 351.833L1920 428.5V459H1840C1760 459 1600 459 1440 459C1280 459 1120 459 960 459C800 459 640 459 480 459C320 459 160 459 80 459H0V26Z" fill="#E9EEFF">
            <animate attributeName="d" dur="10s" repeatCount="indefinite" values="
            M0 25.9992L80 35.5825C160 45.1659 320 -41.0843 480 25.9991C640 93.0824 736 207.667 896 188.5C1056 169.333 1252 292.5 1412 292.5C1572 292.5 1760 275.166 1840 351.833L1920 428.499V458.999H1840C1760 458.999 1600 458.999 1440 458.999C1280 458.999 1120 458.999 960 458.999C800 458.999 640 458.999 480 458.999C320 458.999 160 458.999 80 458.999H0V25.9992Z;
            M0 26L80 35.5833C160 45.1667 268.5 73.4167 428.5 140.5C588.5 207.583 729 74.1675 889 55.0008C1049 35.8341 1280 203.5 1440 203.5C1600 203.5 1760 275.167 1840 351.833L1920 428.5V459H1840C1760 459 1600 459 1440 459C1280 459 1120 459 960 459C800 459 640 459 480 459C320 459 160 459 80 459H0V26Z;
            M0 26L80 35.5833C160 45.1667 320 64.3333 480 131.417C640 198.5 800 313.5 960 294.333C1120 275.167 1280 121.833 1440 121.833C1600 121.833 1760 275.167 1840 351.833L1920 428.5V459H1840C1760 459 1600 459 1440 459C1280 459 1120 459 960 459C800 459 640 459 480 459C320 459 160 459 80 459H0V26Z;
            M0 25.9992L80 35.5825C160 45.1659 320 -41.0843 480 25.9991C640 93.0824 736 207.667 896 188.5C1056 169.333 1252 292.5 1412 292.5C1572 292.5 1760 275.166 1840 351.833L1920 428.499V458.999H1840C1760 458.999 1600 458.999 1440 458.999C1280 458.999 1120 458.999 960 458.999C800 458.999 640 458.999 480 458.999C320 458.999 160 458.999 80 458.999H0V25.9992Z
            " />
        </path>
    </g>
    <defs>
        <clipPath id="clip0_591:39052">
            <rect width="1920" height="459" fill="white" />
        </clipPath>
    </defs>
</svg>
            