<svg width="1196" height="572" viewBox="0 0 1196 572" fill="none" xmlns="http://www.w3.org/2000/svg">
    <g clip-path="url(#clip0_590:39044)">
        <path fill-rule="evenodd" clip-rule="evenodd" d="M0 165.708C0 155.107 6.95518 145.762 17.11 142.718L39.8667 135.898C79.7333 123.95 129.267 32.1317 209 62.0018C288.733 91.872 362.267 -5.47473 442 0.499298C521.733 6.47332 601.267 141.872 681 112.002C760.733 82.1317 853.267 197.5 933 197.5C1012.73 197.5 1116.27 123.95 1156.13 117.976L1168.44 116.131C1182.95 113.957 1196 125.195 1196 139.866V548.002C1196 561.257 1185.25 572.002 1172 572.002H1156.13C1116.27 572.002 1036.53 572.002 956.8 572.002C877.067 572.002 797.333 572.002 717.6 572.002C637.867 572.002 558.133 572.002 478.4 572.002C398.667 572.002 318.933 572.002 239.2 572.002C159.467 572.002 79.7333 572.002 39.8667 572.002H24C10.7451 572.002 0 561.257 0 548.002V165.708Z" fill="transparent" />
        <path fill-rule="evenodd" clip-rule="evenodd" d="M0 165.706C0 155.105 6.95518 145.76 17.11 142.716L39.8667 135.896C79.7333 123.948 124.767 206.13 204.5 236C284.233 265.87 311.267 129.924 391 135.898C470.733 141.872 580.267 199.87 660 170C739.733 140.13 853.267 261 933 261C1012.73 261 1116.27 123.948 1156.13 117.974L1168.44 116.129C1182.95 113.955 1196 125.193 1196 139.864V548C1196 561.255 1185.25 572 1172 572H1156.13C1116.27 572 1036.53 572 956.8 572C877.067 572 797.333 572 717.6 572C637.867 572 558.133 572 478.4 572C398.667 572 318.933 572 239.2 572C159.467 572 79.7333 572 39.8667 572H24C10.7451 572 0 561.255 0 548V165.706Z" fill="transparent" />
        <path fill-rule="evenodd" clip-rule="evenodd" d="M0 165.706C0 155.105 6.95518 145.76 17.11 142.716L39.8667 135.896C79.7333 123.948 121.767 187.13 201.5 217C281.233 246.87 374.767 112 454.5 117.974C534.233 123.948 637.867 229.37 717.6 199.5C797.333 169.63 861.767 31.5 941.5 31.5C1021.23 31.5 1116.27 123.948 1156.13 117.974L1168.44 116.129C1182.95 113.955 1196 125.193 1196 139.864V548C1196 561.255 1185.25 572 1172 572H1156.13C1116.27 572 1036.53 572 956.8 572C877.067 572 797.333 572 717.6 572C637.867 572 558.133 572 478.4 572C398.667 572 318.933 572 239.2 572C159.467 572 79.7333 572 39.8667 572H24C10.7451 572 0 561.255 0 548V165.706Z" fill="#E9EEFF">
            <animate attributeName="d" dur="10s" repeatCount="indefinite" values="
    M0 165.708C0 155.107 6.95518 145.762 17.11 142.718L39.8667 135.898C79.7333 123.95 129.267 32.1317 209 62.0018C288.733 91.872 362.267 -5.47473 442 0.499298C521.733 6.47332 601.267 141.872 681 112.002C760.733 82.1317 853.267 197.5 933 197.5C1012.73 197.5 1116.27 123.95 1156.13 117.976L1168.44 116.131C1182.95 113.957 1196 125.195 1196 139.866V548.002C1196 561.257 1185.25 572.002 1172 572.002H1156.13C1116.27 572.002 1036.53 572.002 956.8 572.002C877.067 572.002 797.333 572.002 717.6 572.002C637.867 572.002 558.133 572.002 478.4 572.002C398.667 572.002 318.933 572.002 239.2 572.002C159.467 572.002 79.7333 572.002 39.8667 572.002H24C10.7451 572.002 0 561.257 0 548.002V165.708Z;
    M0 165.706C0 155.105 6.95518 145.76 17.11 142.716L39.8667 135.896C79.7333 123.948 124.767 206.13 204.5 236C284.233 265.87 311.267 129.924 391 135.898C470.733 141.872 580.267 199.87 660 170C739.733 140.13 853.267 261 933 261C1012.73 261 1116.27 123.948 1156.13 117.974L1168.44 116.129C1182.95 113.955 1196 125.193 1196 139.864V548C1196 561.255 1185.25 572 1172 572H1156.13C1116.27 572 1036.53 572 956.8 572C877.067 572 797.333 572 717.6 572C637.867 572 558.133 572 478.4 572C398.667 572 318.933 572 239.2 572C159.467 572 79.7333 572 39.8667 572H24C10.7451 572 0 561.255 0 548V165.706Z;
    M0 165.706C0 155.105 6.95518 145.76 17.11 142.716L39.8667 135.896C79.7333 123.948 121.767 187.13 201.5 217C281.233 246.87 374.767 112 454.5 117.974C534.233 123.948 637.867 229.37 717.6 199.5C797.333 169.63 861.767 31.5 941.5 31.5C1021.23 31.5 1116.27 123.948 1156.13 117.974L1168.44 116.129C1182.95 113.955 1196 125.193 1196 139.864V548C1196 561.255 1185.25 572 1172 572H1156.13C1116.27 572 1036.53 572 956.8 572C877.067 572 797.333 572 717.6 572C637.867 572 558.133 572 478.4 572C398.667 572 318.933 572 239.2 572C159.467 572 79.7333 572 39.8667 572H24C10.7451 572 0 561.255 0 548V165.706Z;
    M0 165.708C0 155.107 6.95518 145.762 17.11 142.718L39.8667 135.898C79.7333 123.95 129.267 32.1317 209 62.0018C288.733 91.872 362.267 -5.47473 442 0.499298C521.733 6.47332 601.267 141.872 681 112.002C760.733 82.1317 853.267 197.5 933 197.5C1012.73 197.5 1116.27 123.95 1156.13 117.976L1168.44 116.131C1182.95 113.957 1196 125.195 1196 139.866V548.002C1196 561.257 1185.25 572.002 1172 572.002H1156.13C1116.27 572.002 1036.53 572.002 956.8 572.002C877.067 572.002 797.333 572.002 717.6 572.002C637.867 572.002 558.133 572.002 478.4 572.002C398.667 572.002 318.933 572.002 239.2 572.002C159.467 572.002 79.7333 572.002 39.8667 572.002H24C10.7451 572.002 0 561.257 0 548.002V165.708Z;
    " />
        </path>
    </g>
    <defs>
        <clipPath id="clip0_590:39044">
            <rect width="1196" height="572" fill="white" />
        </clipPath>
    </defs>
</svg>
    