<svg width="1925" height="450" viewBox="0 0 1925 450" fill="none" xmlns="http://www.w3.org/2000/svg">
    <path fill-rule="evenodd" clip-rule="evenodd" d="M0 286.278L52.9375 273C107.479 253.758 172.521 141.961 280 141.961C387.479 141.961 534.187 325.863 641.667 297C749.146 268.137 793 141.961 954.5 141.961C1116 141.961 1175.85 318.394 1283.33 366.5C1390.81 414.606 1496.69 257.415 1604.17 286.278C1711.65 315.142 1817.52 170.825 1872.06 141.961L1925 113.098V449.733H1872.06C1817.52 449.733 1711.65 449.733 1604.17 449.733C1496.69 449.733 1390.81 449.733 1283.33 449.733C1175.85 449.733 1069.98 449.733 962.5 449.733C855.021 449.733 749.146 449.733 641.667 449.733C534.187 449.733 428.312 449.733 320.833 449.733C213.354 449.733 107.479 449.733 52.9375 449.733H0V286.278Z" fill="transparent" />
    <path fill-rule="evenodd" clip-rule="evenodd" d="M0 266.28L52.9375 247.038C107.479 227.796 154.521 341.498 262 341.498C369.479 341.498 491.021 106.361 598.5 77.4978C705.979 48.6344 812.5 266.281 962.5 266.28C1112.5 266.28 1136.02 107.891 1243.5 155.997C1350.98 204.102 1496.69 273.137 1604.17 302C1711.65 330.863 1817.52 270.826 1872.06 241.963L1925 213.1V449.735H1872.06C1817.52 449.735 1711.65 449.735 1604.17 449.735C1496.69 449.735 1390.81 449.735 1283.33 449.735C1175.85 449.735 1069.98 449.735 962.5 449.735C855.021 449.735 749.146 449.735 641.667 449.735C534.187 449.735 428.312 449.735 320.833 449.735C213.354 449.735 107.479 449.735 52.9375 449.735H0V266.28Z" fill="#E9EEFF">
        <animate attributeName="d" dur="10s" repeatCount="indefinite" values="
        M0 286.278L52.9375 273C107.479 253.758 172.521 141.961 280 141.961C387.479 141.961 534.187 325.863 641.667 297C749.146 268.137 793 141.961 954.5 141.961C1116 141.961 1175.85 318.394 1283.33 366.5C1390.81 414.606 1496.69 257.415 1604.17 286.278C1711.65 315.142 1817.52 170.825 1872.06 141.961L1925 113.098V449.733H1872.06C1817.52 449.733 1711.65 449.733 1604.17 449.733C1496.69 449.733 1390.81 449.733 1283.33 449.733C1175.85 449.733 1069.98 449.733 962.5 449.733C855.021 449.733 749.146 449.733 641.667 449.733C534.187 449.733 428.312 449.733 320.833 449.733C213.354 449.733 107.479 449.733 52.9375 449.733H0V286.278Z;
        M0 266.28L52.9375 247.038C107.479 227.796 154.521 341.498 262 341.498C369.479 341.498 491.021 106.361 598.5 77.4978C705.979 48.6344 812.5 266.281 962.5 266.28C1112.5 266.28 1136.02 107.891 1243.5 155.997C1350.98 204.102 1496.69 273.137 1604.17 302C1711.65 330.863 1817.52 270.826 1872.06 241.963L1925 213.1V449.735H1872.06C1817.52 449.735 1711.65 449.735 1604.17 449.735C1496.69 449.735 1390.81 449.735 1283.33 449.735C1175.85 449.735 1069.98 449.735 962.5 449.735C855.021 449.735 749.146 449.735 641.667 449.735C534.187 449.735 428.312 449.735 320.833 449.735C213.354 449.735 107.479 449.735 52.9375 449.735H0V266.28Z;
        M0 286.278L52.9375 273C107.479 253.758 172.521 141.961 280 141.961C387.479 141.961 534.187 325.863 641.667 297C749.146 268.137 793 141.961 954.5 141.961C1116 141.961 1175.85 318.394 1283.33 366.5C1390.81 414.606 1496.69 257.415 1604.17 286.278C1711.65 315.142 1817.52 170.825 1872.06 141.961L1925 113.098V449.733H1872.06C1817.52 449.733 1711.65 449.733 1604.17 449.733C1496.69 449.733 1390.81 449.733 1283.33 449.733C1175.85 449.733 1069.98 449.733 962.5 449.733C855.021 449.733 749.146 449.733 641.667 449.733C534.187 449.733 428.312 449.733 320.833 449.733C213.354 449.733 107.479 449.733 52.9375 449.733H0V286.278Z;
        " />
    </path>
</svg>
    