<svg width="1925" height="1513" viewBox="0 0 1925 1513" fill="none" xmlns="http://www.w3.org/2000/svg"
                    class="bottom-wave">
                    <path fill-rule="evenodd" clip-rule="evenodd"
                        d="M1925 1213.17L1844.79 1222.79C1764.58 1232.41 1604.17 1251.65 1443.75 1242.03C1283.33 1232.41 1122.92 1193.93 962.5 1251.65C802.083 1309.38 641.667 1463.32 481.25 1501.8C320.833 1540.29 160.417 1463.32 80.2084 1424.83L1.10146e-05 1386.35L0.000132262 -0.000412362L80.2085 -0.000405353C160.417 -0.000398344 320.834 -0.000384325 481.25 -0.000370307C641.667 -0.000356288 802.084 -0.00034227 962.5 -0.000328251C1122.92 -0.000314233 1283.33 -0.000300214 1443.75 -0.000286196C1604.17 -0.000272178 1764.58 -0.000258159 1844.79 -0.00025115L1925 -0.000244141L1925 1213.17Z"
                        fill="#E9EEFF" />
                </svg>