<svg width="1925" height="1150" viewBox="0 0 1925 1150" fill="none" xmlns="http://www.w3.org/2000/svg"
                    class="top-wave">
                    <path fill-rule="evenodd" clip-rule="evenodd"
                        d="M0 306.278L52.9375 287.036C107.479 267.794 213.354 229.309 320.833 229.309C428.312 229.309 534.188 267.794 641.667 238.93C749.146 210.067 855.021 113.855 962.5 56.1285C1069.98 -1.59847 1175.85 -20.8408 1283.33 27.265C1390.81 75.3708 1496.69 190.825 1604.17 219.688C1711.65 248.552 1817.52 190.825 1872.06 161.961L1925 133.098V1149.73H1872.06C1817.52 1149.73 1711.65 1149.73 1604.17 1149.73C1496.69 1149.73 1390.81 1149.73 1283.33 1149.73C1175.85 1149.73 1069.98 1149.73 962.5 1149.73C855.021 1149.73 749.146 1149.73 641.667 1149.73C534.188 1149.73 428.312 1149.73 320.833 1149.73C213.354 1149.73 107.479 1149.73 52.9375 1149.73H0V306.278Z"
                        fill="#E9EEFF" />
                </svg>